<svg width="24" height="24" viewBox="0 0 24 24" fill="none" xmlns="http://www.w3.org/2000/svg">
<path d="M15.8356 3.13542C15.8356 5.20829 13.1327 7.78429 11.786 8.86433C11.5753 9.03324 11.3133 9.12529 11.0432 9.12529C10.7731 9.12529 10.5111 9.03324 10.3004 8.86433C8.95373 7.78333 6.25084 5.20829 6.25084 3.13542C6.22061 2.46863 6.45574 1.81701 6.9048 1.32312C7.35386 0.829227 7.98028 0.533272 8.64702 0.5C9.31376 0.533272 9.94018 0.829227 10.3892 1.32312C10.8383 1.81701 11.0734 2.46863 11.0432 3.13542C11.013 2.46863 11.2481 1.81701 11.6972 1.32312C12.1462 0.829227 12.7726 0.533272 13.4394 0.5C14.1061 0.533272 14.7325 0.829227 15.1816 1.32312C15.6307 1.81701 15.8658 2.46863 15.8356 3.13542ZM22.8688 12.3354L15.4886 20.394C14.5901 21.3737 13.4975 22.1557 12.2804 22.6904C11.0633 23.2251 9.7483 23.5008 8.4189 23.5H4.33389C3.31708 23.5 2.34191 23.0961 1.62292 22.3772C0.903927 21.6583 0.5 20.6833 0.5 19.6667V14.875C0.5 13.8583 0.903927 12.8833 1.62292 12.1644C2.34191 11.4455 3.31708 11.0417 4.33389 11.0417H11.7975C12.1143 11.0423 12.427 11.1137 12.7127 11.2507C12.9984 11.3877 13.2498 11.5868 13.4486 11.8334C13.6475 12.08 13.7886 12.368 13.8618 12.6762C13.935 12.9844 13.9384 13.3051 13.8717 13.6148C13.7679 14.048 13.5342 14.4391 13.2018 14.7358C12.8695 15.0324 12.4544 15.2204 12.0122 15.2746L8.02209 15.8333C7.77061 15.8694 7.54374 16.0038 7.39133 16.2071C7.23892 16.4103 7.17345 16.6657 7.20931 16.9172C7.24515 17.1688 7.3795 17.3959 7.5828 17.5485C7.78609 17.7011 8.04168 17.7667 8.29334 17.7308L12.3688 17.1558C13.3287 17.0145 14.2061 16.5339 14.8421 15.8013C15.4781 15.0687 15.8306 14.1325 15.8356 13.1625C15.8309 12.9573 15.81 12.7529 15.7733 12.551L19.1682 8.96975C19.6159 8.48506 20.2372 8.19719 20.8964 8.169C21.5557 8.14081 22.1993 8.37459 22.6867 8.81929C23.1717 9.26368 23.4626 9.88084 23.4966 10.5377C23.5307 11.1945 23.3052 11.8385 22.8688 12.3306V12.3354Z" fill="white"/>
</svg>
