<svg xmlns="http://www.w3.org/2000/svg" width="33" height="33" viewBox="0 0 33 33" fill="none">
<path d="M7.05257 25.9466H13.0096L31.4219 7.53437C32.2106 6.74375 32.6535 5.67259 32.6535 4.55585C32.6535 3.43911 32.2106 2.36796 31.4219 1.57734C30.6198 0.810635 29.5529 0.38276 28.4434 0.38276C27.3338 0.38276 26.2669 0.810635 25.4648 1.57734L7.05257 19.9896V25.9466ZM9.75172 21.1071L27.3731 3.48564C27.6614 3.21026 28.0447 3.0566 28.4434 3.0566C28.842 3.0566 29.2253 3.21026 29.5136 3.48564C29.7969 3.76974 29.956 4.15461 29.956 4.55585C29.956 4.95709 29.7969 5.34196 29.5136 5.62607L11.8922 23.2475H9.75172V21.1071Z" fill="white"/>
<path d="M32.183 10.5912L29.9954 12.7788V21.8979H21.8979V29.9954H3.00384V4.35342C3.00384 3.99549 3.14603 3.65222 3.39912 3.39912C3.65222 3.14603 3.99549 3.00384 4.35342 3.00384H20.2217L22.4094 0.816177C22.6064 0.633476 22.8142 0.462677 23.0316 0.304688H4.35342C3.27963 0.304688 2.24982 0.731249 1.49053 1.49053C0.731249 2.24982 0.304688 3.27963 0.304688 4.35342V32.6945H25.1558L32.6945 25.1558V9.969C32.5362 10.1861 32.3654 10.3938 32.183 10.5912ZM24.5971 29.4366V24.5971H29.4366L24.5971 29.4366Z" fill="white"/>
</svg>