<svg xmlns="http://www.w3.org/2000/svg" width="28" height="28" viewBox="0 0 28 28" fill="none">
    <path d="M12.832 4.66602H4.66536C4.04653 4.66602 3.45303 4.91185 3.01545 5.34943C2.57786 5.78702 2.33203 6.38051 2.33203 6.99935V23.3327C2.33203 23.9515 2.57786 24.545 3.01545 24.9826C3.45303 25.4202 4.04653 25.666 4.66536 25.666H20.9987C21.6175 25.666 22.211 25.4202 22.6486 24.9826C23.0862 24.545 23.332 23.9515 23.332 23.3327V15.166" stroke="white" stroke-width="2" stroke-linecap="square" stroke-linejoin="round"/>
    <path d="M21.582 2.91628C22.0462 2.45215 22.6757 2.19141 23.332 2.19141C23.9884 2.19141 24.6179 2.45215 25.082 2.91628C25.5462 3.38041 25.8069 4.0099 25.8069 4.66628C25.8069 5.32266 25.5462 5.95215 25.082 6.41628L13.9987 17.4996L9.33203 18.6663L10.4987 13.9996L21.582 2.91628Z" stroke="white" stroke-width="2" stroke-linecap="round" stroke-linejoin="round"/>
</svg>