<svg xmlns="http://www.w3.org/2000/svg" width="14" height="11" viewBox="0 0 14 11" fill="none">
    <path d="M13.8959 5.045C13.3837 3.97833 11.3752 0.5 7.0001 0.5C2.62499 0.5 0.616524 3.97833 0.104344 5.045C0.0355898 5.18795 0 5.34333 0 5.50056C0 5.65778 0.0355898 5.81317 0.104344 5.95611C0.616524 7.02167 2.62499 10.5 7.0001 10.5C11.3752 10.5 13.3837 7.02167 13.8959 5.955C13.9645 5.81222 14 5.65703 14 5.5C14 5.34297 13.9645 5.18778 13.8959 5.045ZM7.0001 8.83333C6.30785 8.83333 5.63115 8.63784 5.05556 8.27156C4.47997 7.90529 4.03136 7.3847 3.76644 6.77561C3.50153 6.16652 3.43222 5.4963 3.56727 4.8497C3.70232 4.2031 4.03567 3.60915 4.52517 3.14298C5.01466 2.6768 5.63832 2.35933 6.31727 2.23072C6.99622 2.1021 7.69997 2.16811 8.33953 2.4204C8.97909 2.67269 9.52573 3.09994 9.91032 3.6481C10.2949 4.19626 10.5002 4.84073 10.5002 5.5C10.4993 6.38378 10.1302 7.23112 9.47402 7.85605C8.81782 8.48098 7.9281 8.83245 7.0001 8.83333Z" fill="#B73A34"/>
    <path d="M7.0001 7.72222C8.2888 7.72222 9.3335 6.7273 9.3335 5.5C9.3335 4.2727 8.2888 3.27778 7.0001 3.27778C5.71141 3.27778 4.66671 4.2727 4.66671 5.5C4.66671 6.7273 5.71141 7.72222 7.0001 7.72222Z" fill="#B73A34"/>
</svg>