<svg width="25" height="24" viewBox="0 0 25 24" fill="none" xmlns="http://www.w3.org/2000/svg">
<path fill-rule="evenodd" clip-rule="evenodd" d="M15.6873 3C15.9525 3 16.2068 3.10536 16.3944 3.29289C16.5819 3.48043 16.6873 3.73478 16.6873 4V8C16.6873 8.26522 16.5819 8.51957 16.3944 8.70711C16.2068 8.89464 15.9525 9 15.6873 9C15.422 9 15.1677 8.89464 14.9801 8.70711C14.7926 8.51957 14.6873 8.26522 14.6873 8V7H4.68726C4.42204 7 4.16769 6.89464 3.98015 6.70711C3.79261 6.51957 3.68726 6.26522 3.68726 6C3.68726 5.73478 3.79261 5.48043 3.98015 5.29289C4.16769 5.10536 4.42204 5 4.68726 5H14.6873V4C14.6873 3.73478 14.7926 3.48043 14.9801 3.29289C15.1677 3.10536 15.422 3 15.6873 3ZM17.6873 6C17.6873 5.73478 17.7926 5.48043 17.9801 5.29289C18.1677 5.10536 18.422 5 18.6873 5H20.6873C20.9525 5 21.2068 5.10536 21.3944 5.29289C21.5819 5.48043 21.6873 5.73478 21.6873 6C21.6873 6.26522 21.5819 6.51957 21.3944 6.70711C21.2068 6.89464 20.9525 7 20.6873 7H18.6873C18.422 7 18.1677 6.89464 17.9801 6.70711C17.7926 6.51957 17.6873 6.26522 17.6873 6ZM9.68726 9C9.95247 9 10.2068 9.10536 10.3944 9.29289C10.5819 9.48043 10.6873 9.73478 10.6873 10V11H20.6873C20.9525 11 21.2068 11.1054 21.3944 11.2929C21.5819 11.4804 21.6873 11.7348 21.6873 12C21.6873 12.2652 21.5819 12.5196 21.3944 12.7071C21.2068 12.8946 20.9525 13 20.6873 13H10.6873V14C10.6873 14.2652 10.5819 14.5196 10.3944 14.7071C10.2068 14.8946 9.95247 15 9.68726 15C9.42204 15 9.16769 14.8946 8.98015 14.7071C8.79261 14.5196 8.68726 14.2652 8.68726 14V10C8.68726 9.73478 8.79261 9.48043 8.98015 9.29289C9.16769 9.10536 9.42204 9 9.68726 9ZM3.68726 12C3.68726 11.7348 3.79261 11.4804 3.98015 11.2929C4.16769 11.1054 4.42204 11 4.68726 11H6.68726C6.95247 11 7.20683 11.1054 7.39436 11.2929C7.5819 11.4804 7.68726 11.7348 7.68726 12C7.68726 12.2652 7.5819 12.5196 7.39436 12.7071C7.20683 12.8946 6.95247 13 6.68726 13H4.68726C4.42204 13 4.16769 12.8946 3.98015 12.7071C3.79261 12.5196 3.68726 12.2652 3.68726 12ZM15.6873 15C15.9525 15 16.2068 15.1054 16.3944 15.2929C16.5819 15.4804 16.6873 15.7348 16.6873 16V20C16.6873 20.2652 16.5819 20.5196 16.3944 20.7071C16.2068 20.8946 15.9525 21 15.6873 21C15.422 21 15.1677 20.8946 14.9801 20.7071C14.7926 20.5196 14.6873 20.2652 14.6873 20V19H4.68726C4.42204 19 4.16769 18.8946 3.98015 18.7071C3.79261 18.5196 3.68726 18.2652 3.68726 18C3.68726 17.7348 3.79261 17.4804 3.98015 17.2929C4.16769 17.1054 4.42204 17 4.68726 17H14.6873V16C14.6873 15.7348 14.7926 15.4804 14.9801 15.2929C15.1677 15.1054 15.422 15 15.6873 15ZM17.6873 18C17.6873 17.7348 17.7926 17.4804 17.9801 17.2929C18.1677 17.1054 18.422 17 18.6873 17H20.6873C20.9525 17 21.2068 17.1054 21.3944 17.2929C21.5819 17.4804 21.6873 17.7348 21.6873 18C21.6873 18.2652 21.5819 18.5196 21.3944 18.7071C21.2068 18.8946 20.9525 19 20.6873 19H18.6873C18.422 19 18.1677 18.8946 17.9801 18.7071C17.7926 18.5196 17.6873 18.2652 17.6873 18Z" fill="white"/>
</svg>
