<svg xmlns="http://www.w3.org/2000/svg" width="16" height="16" viewBox="0 0 16 16" fill="none">
    <path d="M1.2 0C1.0976 0 0.995588 0.0395875 0.917188 0.117188C0.761187 0.273187 0.761187 0.526812 0.917188 0.682813L2.475 2.24063C0.956018 3.69594 0 5.73481 0 8C0 12.4091 3.59093 16 8 16C12.4091 16 16 12.4091 16 8C16 3.89129 12.8852 0.494072 8.8875 0.0515625C8.86103 0.0486751 8.83444 0.0471106 8.80781 0.046875C8.60256 0.0448969 8.40439 0.121884 8.2543 0.261913C8.10422 0.401942 8.01369 0.594301 8.00145 0.799202C7.9892 1.0041 8.05618 1.20587 8.18853 1.36277C8.32088 1.51968 8.50847 1.61971 8.7125 1.64219C11.9132 1.99648 14.4 4.69751 14.4 8C14.4 11.5445 11.5445 14.4 8 14.4C4.45547 14.4 1.6 11.5445 1.6 8C1.6 6.16843 2.37401 4.53152 3.60313 3.36875L4.91719 4.68281C5.07319 4.83881 5.32681 4.83881 5.48281 4.68281C5.56121 4.60521 5.6 4.5024 5.6 4.4V0.8C5.6 0.587827 5.51571 0.384344 5.36569 0.234315C5.21566 0.0842854 5.01217 0 4.8 0H1.2Z" fill="white"/>
</svg>