<svg width="0" height="0" class="hidden">
    <symbol xmlns="http://www.w3.org/2000/svg" viewBox="0 0 24 24" id="arrow">
        <path d="M20 11L7.83 11L13.42 5.41L12 4L4 12L12 20L13.41 18.59L7.83 13L20 13L20 11Z"></path>
    </symbol>
    <symbol xmlns="http://www.w3.org/2000/svg" viewBox="0 0 24 24" id="burger">
        <path d="M3 6H21M3 12H21M3 18H21" stroke="white" stroke-width="2" stroke-linecap="round" stroke-linejoin="round"></path>
    </symbol>
    <symbol xmlns="http://www.w3.org/2000/svg" viewBox="0 0 18 13" id="check">
        <path d="M6.5501 12.9996L0.850098 7.29961L2.2751 5.87461L6.5501 10.1496L15.7251 0.974609L17.1501 2.39961L6.5501 12.9996Z" fill="currentColor"></path>
    </symbol>
    <symbol xmlns="http://www.w3.org/2000/svg" viewBox="0 0 20 20" id="chevron">
        <path d="M4 8L10 14L16 8" stroke="#222222" stroke-width="2" stroke-linecap="round" stroke-linejoin="round"></path>
    </symbol>
    <symbol xmlns="http://www.w3.org/2000/svg" viewBox="0 0 20 20" id="close">
        <path d="M18.4001 2L2.40015 18M2.40015 2L18.4001 18" stroke="white" stroke-width="2" stroke-linecap="square" stroke-linejoin="round"></path>
    </symbol>
    <symbol xmlns="http://www.w3.org/2000/svg" viewBox="0 0 24 24" id="donating">
        <path d="M15.8356 3.13542C15.8356 5.20829 13.1327 7.78429 11.786 8.86433C11.5753 9.03324 11.3133 9.12529 11.0432 9.12529C10.7731 9.12529 10.5111 9.03324 10.3004 8.86433C8.95373 7.78333 6.25084 5.20829 6.25084 3.13542C6.22061 2.46863 6.45574 1.81701 6.9048 1.32312C7.35386 0.829227 7.98028 0.533272 8.64702 0.5C9.31376 0.533272 9.94018 0.829227 10.3892 1.32312C10.8383 1.81701 11.0734 2.46863 11.0432 3.13542C11.013 2.46863 11.2481 1.81701 11.6972 1.32312C12.1462 0.829227 12.7726 0.533272 13.4394 0.5C14.1061 0.533272 14.7325 0.829227 15.1816 1.32312C15.6307 1.81701 15.8658 2.46863 15.8356 3.13542ZM22.8688 12.3354L15.4886 20.394C14.5901 21.3737 13.4975 22.1557 12.2804 22.6904C11.0633 23.2251 9.7483 23.5008 8.4189 23.5H4.33389C3.31708 23.5 2.34191 23.0961 1.62292 22.3772C0.903927 21.6583 0.5 20.6833 0.5 19.6667V14.875C0.5 13.8583 0.903927 12.8833 1.62292 12.1644C2.34191 11.4455 3.31708 11.0417 4.33389 11.0417H11.7975C12.1143 11.0423 12.427 11.1137 12.7127 11.2507C12.9984 11.3877 13.2498 11.5868 13.4486 11.8334C13.6475 12.08 13.7886 12.368 13.8618 12.6762C13.935 12.9844 13.9384 13.3051 13.8717 13.6148C13.7679 14.048 13.5342 14.4391 13.2018 14.7358C12.8695 15.0324 12.4544 15.2204 12.0122 15.2746L8.02209 15.8333C7.77061 15.8694 7.54374 16.0038 7.39133 16.2071C7.23892 16.4103 7.17345 16.6657 7.20931 16.9172C7.24515 17.1688 7.3795 17.3959 7.5828 17.5485C7.78609 17.7011 8.04168 17.7667 8.29334 17.7308L12.3688 17.1558C13.3287 17.0145 14.2061 16.5339 14.8421 15.8013C15.4781 15.0687 15.8306 14.1325 15.8356 13.1625C15.8309 12.9573 15.81 12.7529 15.7733 12.551L19.1682 8.96975C19.6159 8.48506 20.2372 8.19719 20.8964 8.169C21.5557 8.14081 22.1993 8.37459 22.6867 8.81929C23.1717 9.26368 23.4626 9.88084 23.4966 10.5377C23.5307 11.1945 23.3052 11.8385 22.8688 12.3306V12.3354Z" fill="white"></path>
    </symbol>
    <symbol xmlns="http://www.w3.org/2000/svg" viewBox="0 0 25 24" id="filter-mob">
        <path fill-rule="evenodd" clip-rule="evenodd" d="M15.6873 3C15.9525 3 16.2068 3.10536 16.3944 3.29289C16.5819 3.48043 16.6873 3.73478 16.6873 4V8C16.6873 8.26522 16.5819 8.51957 16.3944 8.70711C16.2068 8.89464 15.9525 9 15.6873 9C15.422 9 15.1677 8.89464 14.9801 8.70711C14.7926 8.51957 14.6873 8.26522 14.6873 8V7H4.68726C4.42204 7 4.16769 6.89464 3.98015 6.70711C3.79261 6.51957 3.68726 6.26522 3.68726 6C3.68726 5.73478 3.79261 5.48043 3.98015 5.29289C4.16769 5.10536 4.42204 5 4.68726 5H14.6873V4C14.6873 3.73478 14.7926 3.48043 14.9801 3.29289C15.1677 3.10536 15.422 3 15.6873 3ZM17.6873 6C17.6873 5.73478 17.7926 5.48043 17.9801 5.29289C18.1677 5.10536 18.422 5 18.6873 5H20.6873C20.9525 5 21.2068 5.10536 21.3944 5.29289C21.5819 5.48043 21.6873 5.73478 21.6873 6C21.6873 6.26522 21.5819 6.51957 21.3944 6.70711C21.2068 6.89464 20.9525 7 20.6873 7H18.6873C18.422 7 18.1677 6.89464 17.9801 6.70711C17.7926 6.51957 17.6873 6.26522 17.6873 6ZM9.68726 9C9.95247 9 10.2068 9.10536 10.3944 9.29289C10.5819 9.48043 10.6873 9.73478 10.6873 10V11H20.6873C20.9525 11 21.2068 11.1054 21.3944 11.2929C21.5819 11.4804 21.6873 11.7348 21.6873 12C21.6873 12.2652 21.5819 12.5196 21.3944 12.7071C21.2068 12.8946 20.9525 13 20.6873 13H10.6873V14C10.6873 14.2652 10.5819 14.5196 10.3944 14.7071C10.2068 14.8946 9.95247 15 9.68726 15C9.42204 15 9.16769 14.8946 8.98015 14.7071C8.79261 14.5196 8.68726 14.2652 8.68726 14V10C8.68726 9.73478 8.79261 9.48043 8.98015 9.29289C9.16769 9.10536 9.42204 9 9.68726 9ZM3.68726 12C3.68726 11.7348 3.79261 11.4804 3.98015 11.2929C4.16769 11.1054 4.42204 11 4.68726 11H6.68726C6.95247 11 7.20683 11.1054 7.39436 11.2929C7.5819 11.4804 7.68726 11.7348 7.68726 12C7.68726 12.2652 7.5819 12.5196 7.39436 12.7071C7.20683 12.8946 6.95247 13 6.68726 13H4.68726C4.42204 13 4.16769 12.8946 3.98015 12.7071C3.79261 12.5196 3.68726 12.2652 3.68726 12ZM15.6873 15C15.9525 15 16.2068 15.1054 16.3944 15.2929C16.5819 15.4804 16.6873 15.7348 16.6873 16V20C16.6873 20.2652 16.5819 20.5196 16.3944 20.7071C16.2068 20.8946 15.9525 21 15.6873 21C15.422 21 15.1677 20.8946 14.9801 20.7071C14.7926 20.5196 14.6873 20.2652 14.6873 20V19H4.68726C4.42204 19 4.16769 18.8946 3.98015 18.7071C3.79261 18.5196 3.68726 18.2652 3.68726 18C3.68726 17.7348 3.79261 17.4804 3.98015 17.2929C4.16769 17.1054 4.42204 17 4.68726 17H14.6873V16C14.6873 15.7348 14.7926 15.4804 14.9801 15.2929C15.1677 15.1054 15.422 15 15.6873 15ZM17.6873 18C17.6873 17.7348 17.7926 17.4804 17.9801 17.2929C18.1677 17.1054 18.422 17 18.6873 17H20.6873C20.9525 17 21.2068 17.1054 21.3944 17.2929C21.5819 17.4804 21.6873 17.7348 21.6873 18C21.6873 18.2652 21.5819 18.5196 21.3944 18.7071C21.2068 18.8946 20.9525 19 20.6873 19H18.6873C18.422 19 18.1677 18.8946 17.9801 18.7071C17.7926 18.5196 17.6873 18.2652 17.6873 18Z" fill="white"></path>
    </symbol>
    <symbol xmlns="http://www.w3.org/2000/svg" viewBox="0 0 14 2" id="minus">
        <path d="M14 1.99805H0V-0.00195312H14V1.99805Z" fill="white"></path>
    </symbol>
    <symbol xmlns="http://www.w3.org/2000/svg" viewBox="0 0 14 14" id="plus">
        <path d="M14 7.99805H8V13.998H6V7.99805H0V5.99805H6V-0.00195312H8V5.99805H14V7.99805Z" fill="white"></path>
    </symbol>
    <symbol fill="none" xmlns="http://www.w3.org/2000/svg" viewBox="0 0 21 20" id="profile">
        <path fill-rule="evenodd" clip-rule="evenodd" d="M10.5 2C9.10077 1.99974 7.72593 2.36649 6.51273 3.06363C5.29952 3.76077 4.29038 4.76392 3.58603 5.97295C2.88168 7.18199 2.50675 8.55462 2.49868 9.95383C2.4906 11.3531 2.84966 12.7299 3.54001 13.947C4.00662 13.3406 4.60644 12.8496 5.2931 12.512C5.97975 12.1744 6.73485 11.9992 7.50001 12H13.5C14.2652 11.9992 15.0203 12.1744 15.7069 12.512C16.3936 12.8496 16.9934 13.3406 17.46 13.947C18.1504 12.7299 18.5094 11.3531 18.5013 9.95383C18.4933 8.55462 18.1183 7.18199 17.414 5.97295C16.7096 4.76392 15.7005 3.76077 14.4873 3.06363C13.2741 2.36649 11.8993 1.99974 10.5 2ZM18.443 16.076C19.78 14.333 20.5032 12.1968 20.5 10C20.5 4.477 16.023 0 10.5 0C4.97701 0 0.500011 4.477 0.500011 10C0.49671 12.1968 1.21992 14.333 2.55701 16.076L2.55201 16.094L2.90701 16.507C3.8449 17.6035 5.0094 18.4836 6.32024 19.0866C7.63109 19.6897 9.05711 20.0013 10.5 20C12.5273 20.0037 14.5074 19.3879 16.175 18.235C16.8859 17.7438 17.5306 17.163 18.093 16.507L18.448 16.094L18.443 16.076ZM10.5 4C9.70436 4 8.9413 4.31607 8.37869 4.87868C7.81608 5.44129 7.50001 6.20435 7.50001 7C7.50001 7.79565 7.81608 8.55871 8.37869 9.12132C8.9413 9.68393 9.70436 10 10.5 10C11.2957 10 12.0587 9.68393 12.6213 9.12132C13.1839 8.55871 13.5 7.79565 13.5 7C13.5 6.20435 13.1839 5.44129 12.6213 4.87868C12.0587 4.31607 11.2957 4 10.5 4Z" fill="white"></path>
    </symbol>
    <symbol fill="none" xmlns="http://www.w3.org/2000/svg" viewBox="0 0 20 20" id="search">
        <path fill-rule="evenodd" clip-rule="evenodd" d="M8.50001 1.91687e-08C7.1446 0.000115492 5.80887 0.324364 4.60427 0.945694C3.39966 1.56702 2.3611 2.46742 1.57525 3.57175C0.789389 4.67609 0.279019 5.95235 0.0867177 7.29404C-0.105584 8.63574 0.0257587 10.004 0.469788 11.2846C0.913817 12.5652 1.65766 13.7211 2.63925 14.6557C3.62084 15.5904 4.81171 16.2768 6.11252 16.6576C7.41333 17.0384 8.78635 17.1026 10.117 16.8449C11.4477 16.5872 12.6975 16.015 13.762 15.176L17.414 18.828C17.6026 19.0102 17.8552 19.111 18.1174 19.1087C18.3796 19.1064 18.6304 19.0012 18.8158 18.8158C19.0012 18.6304 19.1064 18.3796 19.1087 18.1174C19.111 17.8552 19.0102 17.6026 18.828 17.414L15.176 13.762C16.164 12.5086 16.7792 11.0024 16.9511 9.41573C17.123 7.82905 16.8448 6.22602 16.1482 4.79009C15.4517 3.35417 14.3649 2.14336 13.0123 1.29623C11.6597 0.449106 10.096 -0.000107143 8.50001 1.91687e-08ZM2.00001 8.5C2.00001 6.77609 2.68483 5.12279 3.90382 3.90381C5.1228 2.68482 6.7761 2 8.50001 2C10.2239 2 11.8772 2.68482 13.0962 3.90381C14.3152 5.12279 15 6.77609 15 8.5C15 10.2239 14.3152 11.8772 13.0962 13.0962C11.8772 14.3152 10.2239 15 8.50001 15C6.7761 15 5.1228 14.3152 3.90382 13.0962C2.68483 11.8772 2.00001 10.2239 2.00001 8.5Z" fill="#222222"></path>
    </symbol>
    <symbol fill="none" xmlns="http://www.w3.org/2000/svg" viewBox="0 0 21 20" id="telegram">
        <path fill-rule="evenodd" clip-rule="evenodd" d="M10.5 0C4.9775 0 0.5 4.4775 0.5 10C0.5 15.5225 4.9775 20 10.5 20C16.0225 20 20.5 15.5225 20.5 10C20.5 4.4775 16.0225 0 10.5 0ZM15.135 6.80083C14.985 8.38167 14.3333 12.2192 14.0025 13.99C13.8625 14.74 13.5858 14.9908 13.3192 15.015C12.7383 15.0683 12.2975 14.6308 11.735 14.2625C10.855 13.6858 10.3575 13.3267 9.50333 12.7633C8.51583 12.1125 9.15583 11.755 9.71833 11.1708C9.86583 11.0175 12.4242 8.69 12.4742 8.47917C12.48 8.4525 12.4867 8.35417 12.4275 8.3025C12.3683 8.25083 12.2825 8.26833 12.2208 8.2825C12.1325 8.3025 10.7267 9.23167 8.0025 11.07C7.60333 11.3442 7.24167 11.4775 6.9175 11.4708C6.56083 11.4633 5.87417 11.2692 5.36333 11.1025C4.7375 10.8992 4.23917 10.7908 4.2825 10.4458C4.305 10.2658 4.5525 10.0817 5.02583 9.89333C7.94083 8.62333 9.885 7.78583 10.8575 7.38083C13.635 6.22583 14.2117 6.025 14.5883 6.01833C15.06 6.01167 15.1733 6.40083 15.135 6.80083Z" fill="white"></path>
    </symbol>
    <symbol fill="none" xmlns="http://www.w3.org/2000/svg" viewBox="0 0 21 20" id="vk">
        <path d="M19.0967 1.40333C17.6933 0 15.4342 0 10.9167 0H10.0833C5.56583 0 3.30667 0 1.90333 1.40333C0.5 2.80667 0.5 5.06583 0.5 9.58333V10.4167C0.5 14.9342 0.5 17.1925 1.90333 18.5967C3.30667 20.0008 5.56583 20 10.0833 20H10.9167C15.4342 20 17.6925 20 19.0967 18.5967C20.5 17.1933 20.5 14.9342 20.5 10.4167V9.58333C20.5 5.06583 20.5 2.80667 19.0967 1.40333ZM16.7525 14.1667H15.2942C14.7383 14.1667 14.575 13.7233 13.5858 12.7342C12.72 11.9 12.3492 11.7917 12.1333 11.7917C11.8392 11.7917 11.7517 11.875 11.7517 12.2917V13.5992C11.7517 13.9575 11.6375 14.1667 10.71 14.1667C9.165 14.1667 7.46667 13.2283 6.26083 11.4983C4.4525 8.96417 3.95833 7.04833 3.95833 6.6625C3.95833 6.44583 4.04167 6.25 4.45833 6.25H5.9175C6.29 6.25 6.43 6.41333 6.57 6.81667C7.28333 8.89417 8.48667 10.71 8.98083 10.71C9.16583 10.71 9.25083 10.6242 9.25083 10.1542V8.00667C9.19667 7.01833 8.67083 6.93667 8.67083 6.585C8.67083 6.4225 8.81 6.25 9.04167 6.25H11.3342C11.6433 6.25 11.7508 6.415 11.7508 6.78583V9.675C11.7508 9.98333 11.885 10.0917 11.9775 10.0917C12.1633 10.0917 12.3175 9.98333 12.6575 9.64333C13.7083 8.46917 14.45 6.66167 14.45 6.66167C14.5433 6.445 14.7133 6.24917 15.085 6.24917H16.5433C16.9842 6.24917 17.0775 6.47583 16.9842 6.785C16.7983 7.635 15.0217 10.1375 15.0217 10.1375C14.8667 10.385 14.805 10.5083 15.0217 10.7867C15.1767 11.0033 15.6858 11.4358 16.0258 11.8375C16.6525 12.5425 17.125 13.1367 17.2567 13.5467C17.3783 13.9583 17.1692 14.1667 16.7525 14.1667Z" fill="white"></path>
    </symbol>
    <symbol fill="none" xmlns="http://www.w3.org/2000/svg" viewBox="0 0 24 25" id="whatsapp">
        <path d="M12.001 3.10742C17.2478 3.10742 21.501 7.36056 21.501 12.6074C21.501 17.6902 17.5097 21.8401 12.4902 22.0947L12.001 22.1074H12C10.3216 22.1101 8.67257 21.6657 7.22266 20.8203L7.04199 20.7148L6.83984 20.7705L2.7168 21.8945L3.83984 17.7705L3.89453 17.5684L3.78906 17.3877C2.99582 16.028 2.55551 14.4929 2.50586 12.9229L2.50098 12.6084V12.6074C2.50098 7.36057 6.75413 3.10743 12.001 3.10742ZM8.58789 7.40625C8.51654 7.40695 8.44525 7.41041 8.37402 7.41504L8.35645 7.41602C8.16173 7.42869 7.97137 7.48095 7.79688 7.56836L7.78613 7.57422L7.77441 7.58008C7.66157 7.64398 7.55625 7.72015 7.45996 7.80664L7.38379 7.87988C7.30567 7.95349 7.24277 8.02504 7.19141 8.08789L7.06934 8.24414C6.68641 8.74201 6.45884 9.33955 6.41016 9.96191L6.40039 10.2295C6.40245 10.7332 6.51743 11.2144 6.69434 11.6572L6.77344 11.8447L6.77441 11.8467C7.15747 12.6915 7.74989 13.5657 8.51074 14.3877L8.84668 14.7363H8.84766C8.95155 14.8397 9.05887 14.9492 9.1709 15.0586L9.51953 15.3838C10.6812 16.4066 12.0656 17.1443 13.5625 17.5381L13.5879 17.5449L13.6143 17.5488L14.1826 17.6357L14.2061 17.6396L14.2314 17.6406C14.3403 17.6465 14.4502 17.6453 14.5537 17.6416L14.8379 17.6279H14.8398C15.2041 17.6091 15.5599 17.5103 15.8818 17.3389L15.8809 17.3379C15.9511 17.3016 16.0213 17.265 16.0898 17.2256L16.2988 17.0996L16.3027 17.0967L16.3047 17.0947C16.3056 17.0941 16.3073 17.0936 16.3086 17.0928C16.3111 17.0911 16.3145 17.0885 16.3184 17.0859C16.3261 17.0807 16.3369 17.0734 16.3496 17.0645C16.3754 17.0464 16.4117 17.0206 16.457 16.9863L16.4561 16.9854C16.6076 16.8729 16.7125 16.7846 16.8457 16.6455L16.8447 16.6445C16.9331 16.5528 17.0143 16.4498 17.082 16.334L17.1465 16.2129C17.2292 16.0397 17.2991 15.7884 17.3438 15.5527L17.3789 15.3262V15.3242C17.4078 15.0858 17.3999 14.9458 17.3965 14.8691H17.3955C17.3879 14.6898 17.3147 14.5414 17.2383 14.4385C17.1601 14.3332 17.0526 14.2387 16.9248 14.1768L16.918 14.1729L16.9111 14.1699L16.3291 13.9092H16.3301L16.3242 13.9072L16.3145 13.9023C16.308 13.8995 16.2981 13.8959 16.2861 13.8906C16.2614 13.8798 16.2253 13.8642 16.1807 13.8447C16.0912 13.8056 15.9665 13.7507 15.8252 13.6885L14.9297 13.2891L14.9229 13.2861L14.8379 13.2539C14.7598 13.228 14.6789 13.2121 14.5967 13.2061H14.5977C14.5941 13.2057 14.5905 13.2054 14.5869 13.2051C14.5814 13.2047 14.5759 13.2044 14.5703 13.2041H14.5693C14.4743 13.1972 14.3789 13.2032 14.2861 13.2236L14.1846 13.252C14.0657 13.2919 13.9565 13.3553 13.8613 13.4365C13.8542 13.4419 13.8482 13.4454 13.8447 13.4482C13.8199 13.4688 13.7985 13.4902 13.7861 13.5029C13.7579 13.5319 13.7191 13.5746 13.6641 13.6377C13.5575 13.7598 13.3713 13.9799 13.0439 14.376L13.0088 14.3643L12.7627 14.2588C12.3022 14.0578 11.8714 13.7955 11.4824 13.4785L11.3184 13.3398L11.3164 13.3379L10.9727 13.0088L10.9707 13.0068L10.708 12.7393C10.5388 12.5548 10.3822 12.3591 10.2383 12.1543L10.0322 11.8398L10.0293 11.8369L9.97852 11.7549C9.9898 11.7422 10.0024 11.7296 10.0146 11.7158L10.2539 11.4346C10.375 11.2804 10.4779 11.1286 10.5479 11.0156L10.5488 11.0166C10.6912 10.7874 10.7969 10.4753 10.7227 10.1611L10.6797 10.0264C10.5389 9.68238 10.3955 9.33919 10.25 8.99707L9.80664 7.97363L9.7334 7.84375C9.65114 7.72456 9.5449 7.63819 9.44922 7.58008C9.35104 7.52051 9.2413 7.47637 9.12891 7.4502L9.01562 7.42969H9.01074L8.83105 7.41211L8.81836 7.41113L8.58789 7.40625Z" fill="white" stroke="white"></path>
    </symbol>
    <symbol fill="none" xmlns="http://www.w3.org/2000/svg" viewBox="0 0 46 34" id="youtube">
        <path d="M18.4 24.0714L30.337 17L18.4 9.92857V24.0714ZM44.988 5.615C45.287 6.72286 45.494 8.20786 45.632 10.0936C45.793 11.9793 45.862 13.6057 45.862 15.02L46 17C46 22.1621 45.632 25.9571 44.988 28.385C44.413 30.5064 43.079 31.8736 41.009 32.4629C39.928 32.7693 37.95 32.9814 34.914 33.1229C31.924 33.2879 29.187 33.3586 26.657 33.3586L23 33.5C13.363 33.5 7.36 33.1229 4.991 32.4629C2.921 31.8736 1.587 30.5064 1.012 28.385C0.713 27.2771 0.506 25.7921 0.368 23.9064C0.207 22.0207 0.138 20.3943 0.138 18.98L0 17C0 11.8379 0.368 8.04286 1.012 5.615C1.587 3.49357 2.921 2.12643 4.991 1.53714C6.072 1.23071 8.05 1.01857 11.086 0.877143C14.076 0.712142 16.813 0.641428 19.343 0.641428L23 0.5C32.637 0.5 38.64 0.877143 41.009 1.53714C43.079 2.12643 44.413 3.49357 44.988 5.615Z" fill="white"></path>
    </symbol>
</svg>