<svg width="0" height="0" class="hidden">
    <symbol  xmlns="http://www.w3.org/2000/svg" viewBox="0 0 24 24" id="arrow">
        <path d="M20 11L7.83 11L13.42 5.41L12 4L4 12L12 20L13.41 18.59L7.83 13L20 13L20 11Z" fill="currentColor"/>
    </symbol>
    <symbol  xmlns="http://www.w3.org/2000/svg" viewBox="0 0 24 24" id="burger">
        <path d="M3 6H21M3 12H21M3 18H21" stroke="currentColor" stroke-width="2" stroke-linecap="round" stroke-linejoin="round"/>
    </symbol>
    <symbol  xmlns="http://www.w3.org/2000/svg" viewBox="0 0 18 13" id="check">
        <path d="M6.5501 12.9996L0.850098 7.29961L2.2751 5.87461L6.5501 10.1496L15.7251 0.974609L17.1501 2.39961L6.5501 12.9996Z" fill="currentColor"/>
    </symbol>
    <symbol  xmlns="http://www.w3.org/2000/svg" viewBox="0 0 24 24" id="chevron" fill="none">
        <path d="M6 9L12 15L18 9" stroke="currentColor" stroke-width="2" stroke-linecap="round" stroke-linejoin="round"/>
    </symbol>
    <symbol xmlns="http://www.w3.org/2000/svg"  viewBox="0 0 20 20" id="close">
        <path d="M18.4001 2L2.40015 18M2.40015 2L18.4001 18" stroke="currentColor" stroke-width="2" stroke-linecap="square" stroke-linejoin="round"/>
    </symbol>
    <symbol  xmlns="http://www.w3.org/2000/svg" viewBox="0 0 24 24" id="donating">
        <path d="M15.8356 3.13542C15.8356 5.20829 13.1327 7.78429 11.786 8.86433C11.5753 9.03324 11.3133 9.12529 11.0432 9.12529C10.7731 9.12529 10.5111 9.03324 10.3004 8.86433C8.95373 7.78333 6.25084 5.20829 6.25084 3.13542C6.22061 2.46863 6.45574 1.81701 6.9048 1.32312C7.35386 0.829227 7.98028 0.533272 8.64702 0.5C9.31376 0.533272 9.94018 0.829227 10.3892 1.32312C10.8383 1.81701 11.0734 2.46863 11.0432 3.13542C11.013 2.46863 11.2481 1.81701 11.6972 1.32312C12.1462 0.829227 12.7726 0.533272 13.4394 0.5C14.1061 0.533272 14.7325 0.829227 15.1816 1.32312C15.6307 1.81701 15.8658 2.46863 15.8356 3.13542ZM22.8688 12.3354L15.4886 20.394C14.5901 21.3737 13.4975 22.1557 12.2804 22.6904C11.0633 23.2251 9.7483 23.5008 8.4189 23.5H4.33389C3.31708 23.5 2.34191 23.0961 1.62292 22.3772C0.903927 21.6583 0.5 20.6833 0.5 19.6667V14.875C0.5 13.8583 0.903927 12.8833 1.62292 12.1644C2.34191 11.4455 3.31708 11.0417 4.33389 11.0417H11.7975C12.1143 11.0423 12.427 11.1137 12.7127 11.2507C12.9984 11.3877 13.2498 11.5868 13.4486 11.8334C13.6475 12.08 13.7886 12.368 13.8618 12.6762C13.935 12.9844 13.9384 13.3051 13.8717 13.6148C13.7679 14.048 13.5342 14.4391 13.2018 14.7358C12.8695 15.0324 12.4544 15.2204 12.0122 15.2746L8.02209 15.8333C7.77061 15.8694 7.54374 16.0038 7.39133 16.2071C7.23892 16.4103 7.17345 16.6657 7.20931 16.9172C7.24515 17.1688 7.3795 17.3959 7.5828 17.5485C7.78609 17.7011 8.04168 17.7667 8.29334 17.7308L12.3688 17.1558C13.3287 17.0145 14.2061 16.5339 14.8421 15.8013C15.4781 15.0687 15.8306 14.1325 15.8356 13.1625C15.8309 12.9573 15.81 12.7529 15.7733 12.551L19.1682 8.96975C19.6159 8.48506 20.2372 8.19719 20.8964 8.169C21.5557 8.14081 22.1993 8.37459 22.6867 8.81929C23.1717 9.26368 23.4626 9.88084 23.4966 10.5377C23.5307 11.1945 23.3052 11.8385 22.8688 12.3306V12.3354Z" fill="currentColor"/>
    </symbol>
    <symbol  xmlns="http://www.w3.org/2000/svg" viewBox="0 0 25 24" id="filter-mob">
        <path fill-rule="evenodd" clip-rule="evenodd" d="M15.6873 3C15.9525 3 16.2068 3.10536 16.3944 3.29289C16.5819 3.48043 16.6873 3.73478 16.6873 4V8C16.6873 8.26522 16.5819 8.51957 16.3944 8.70711C16.2068 8.89464 15.9525 9 15.6873 9C15.422 9 15.1677 8.89464 14.9801 8.70711C14.7926 8.51957 14.6873 8.26522 14.6873 8V7H4.68726C4.42204 7 4.16769 6.89464 3.98015 6.70711C3.79261 6.51957 3.68726 6.26522 3.68726 6C3.68726 5.73478 3.79261 5.48043 3.98015 5.29289C4.16769 5.10536 4.42204 5 4.68726 5H14.6873V4C14.6873 3.73478 14.7926 3.48043 14.9801 3.29289C15.1677 3.10536 15.422 3 15.6873 3ZM17.6873 6C17.6873 5.73478 17.7926 5.48043 17.9801 5.29289C18.1677 5.10536 18.422 5 18.6873 5H20.6873C20.9525 5 21.2068 5.10536 21.3944 5.29289C21.5819 5.48043 21.6873 5.73478 21.6873 6C21.6873 6.26522 21.5819 6.51957 21.3944 6.70711C21.2068 6.89464 20.9525 7 20.6873 7H18.6873C18.422 7 18.1677 6.89464 17.9801 6.70711C17.7926 6.51957 17.6873 6.26522 17.6873 6ZM9.68726 9C9.95247 9 10.2068 9.10536 10.3944 9.29289C10.5819 9.48043 10.6873 9.73478 10.6873 10V11H20.6873C20.9525 11 21.2068 11.1054 21.3944 11.2929C21.5819 11.4804 21.6873 11.7348 21.6873 12C21.6873 12.2652 21.5819 12.5196 21.3944 12.7071C21.2068 12.8946 20.9525 13 20.6873 13H10.6873V14C10.6873 14.2652 10.5819 14.5196 10.3944 14.7071C10.2068 14.8946 9.95247 15 9.68726 15C9.42204 15 9.16769 14.8946 8.98015 14.7071C8.79261 14.5196 8.68726 14.2652 8.68726 14V10C8.68726 9.73478 8.79261 9.48043 8.98015 9.29289C9.16769 9.10536 9.42204 9 9.68726 9ZM3.68726 12C3.68726 11.7348 3.79261 11.4804 3.98015 11.2929C4.16769 11.1054 4.42204 11 4.68726 11H6.68726C6.95247 11 7.20683 11.1054 7.39436 11.2929C7.5819 11.4804 7.68726 11.7348 7.68726 12C7.68726 12.2652 7.5819 12.5196 7.39436 12.7071C7.20683 12.8946 6.95247 13 6.68726 13H4.68726C4.42204 13 4.16769 12.8946 3.98015 12.7071C3.79261 12.5196 3.68726 12.2652 3.68726 12ZM15.6873 15C15.9525 15 16.2068 15.1054 16.3944 15.2929C16.5819 15.4804 16.6873 15.7348 16.6873 16V20C16.6873 20.2652 16.5819 20.5196 16.3944 20.7071C16.2068 20.8946 15.9525 21 15.6873 21C15.422 21 15.1677 20.8946 14.9801 20.7071C14.7926 20.5196 14.6873 20.2652 14.6873 20V19H4.68726C4.42204 19 4.16769 18.8946 3.98015 18.7071C3.79261 18.5196 3.68726 18.2652 3.68726 18C3.68726 17.7348 3.79261 17.4804 3.98015 17.2929C4.16769 17.1054 4.42204 17 4.68726 17H14.6873V16C14.6873 15.7348 14.7926 15.4804 14.9801 15.2929C15.1677 15.1054 15.422 15 15.6873 15ZM17.6873 18C17.6873 17.7348 17.7926 17.4804 17.9801 17.2929C18.1677 17.1054 18.422 17 18.6873 17H20.6873C20.9525 17 21.2068 17.1054 21.3944 17.2929C21.5819 17.4804 21.6873 17.7348 21.6873 18C21.6873 18.2652 21.5819 18.5196 21.3944 18.7071C21.2068 18.8946 20.9525 19 20.6873 19H18.6873C18.422 19 18.1677 18.8946 17.9801 18.7071C17.7926 18.5196 17.6873 18.2652 17.6873 18Z" fill="currentColor"/>
    </symbol>
    <symbol  xmlns="http://www.w3.org/2000/svg" viewBox="0 0 14 2" id="minus">
        <path d="M14 1.99805H0V-0.00195312H14V1.99805Z" fill="currentColor"/>
    </symbol>
    <symbol  xmlns="http://www.w3.org/2000/svg" viewBox="0 0 14 14" id="plus">
        <path d="M14 7.99805H8V13.998H6V7.99805H0V5.99805H6V-0.00195312H8V5.99805H14V7.99805Z" fill="currentColor"/>
    </symbol>
    <symbol  xmlns="http://www.w3.org/2000/svg" viewBox="0 0 21 20" id="profile">
        <path fill-rule="evenodd" clip-rule="evenodd" d="M10.5 2C9.10077 1.99974 7.72593 2.36649 6.51273 3.06363C5.29952 3.76077 4.29038 4.76392 3.58603 5.97295C2.88168 7.18199 2.50675 8.55462 2.49868 9.95383C2.4906 11.3531 2.84966 12.7299 3.54001 13.947C4.00662 13.3406 4.60644 12.8496 5.2931 12.512C5.97975 12.1744 6.73485 11.9992 7.50001 12H13.5C14.2652 11.9992 15.0203 12.1744 15.7069 12.512C16.3936 12.8496 16.9934 13.3406 17.46 13.947C18.1504 12.7299 18.5094 11.3531 18.5013 9.95383C18.4933 8.55462 18.1183 7.18199 17.414 5.97295C16.7096 4.76392 15.7005 3.76077 14.4873 3.06363C13.2741 2.36649 11.8993 1.99974 10.5 2ZM18.443 16.076C19.78 14.333 20.5032 12.1968 20.5 10C20.5 4.477 16.023 0 10.5 0C4.97701 0 0.500011 4.477 0.500011 10C0.49671 12.1968 1.21992 14.333 2.55701 16.076L2.55201 16.094L2.90701 16.507C3.8449 17.6035 5.0094 18.4836 6.32024 19.0866C7.63109 19.6897 9.05711 20.0013 10.5 20C12.5273 20.0037 14.5074 19.3879 16.175 18.235C16.8859 17.7438 17.5306 17.163 18.093 16.507L18.448 16.094L18.443 16.076ZM10.5 4C9.70436 4 8.9413 4.31607 8.37869 4.87868C7.81608 5.44129 7.50001 6.20435 7.50001 7C7.50001 7.79565 7.81608 8.55871 8.37869 9.12132C8.9413 9.68393 9.70436 10 10.5 10C11.2957 10 12.0587 9.68393 12.6213 9.12132C13.1839 8.55871 13.5 7.79565 13.5 7C13.5 6.20435 13.1839 5.44129 12.6213 4.87868C12.0587 4.31607 11.2957 4 10.5 4Z" fill="currentColor"/>
    </symbol>
    <symbol  xmlns="http://www.w3.org/2000/svg" viewBox="0 0 20 20" id="search">
        <path fill-rule="evenodd" clip-rule="evenodd" d="M8.50001 1.91687e-08C7.1446 0.000115492 5.80887 0.324364 4.60427 0.945694C3.39966 1.56702 2.3611 2.46742 1.57525 3.57175C0.789389 4.67609 0.279019 5.95235 0.0867177 7.29404C-0.105584 8.63574 0.0257587 10.004 0.469788 11.2846C0.913817 12.5652 1.65766 13.7211 2.63925 14.6557C3.62084 15.5904 4.81171 16.2768 6.11252 16.6576C7.41333 17.0384 8.78635 17.1026 10.117 16.8449C11.4477 16.5872 12.6975 16.015 13.762 15.176L17.414 18.828C17.6026 19.0102 17.8552 19.111 18.1174 19.1087C18.3796 19.1064 18.6304 19.0012 18.8158 18.8158C19.0012 18.6304 19.1064 18.3796 19.1087 18.1174C19.111 17.8552 19.0102 17.6026 18.828 17.414L15.176 13.762C16.164 12.5086 16.7792 11.0024 16.9511 9.41573C17.123 7.82905 16.8448 6.22602 16.1482 4.79009C15.4517 3.35417 14.3649 2.14336 13.0123 1.29623C11.6597 0.449106 10.096 -0.000107143 8.50001 1.91687e-08ZM2.00001 8.5C2.00001 6.77609 2.68483 5.12279 3.90382 3.90381C5.1228 2.68482 6.7761 2 8.50001 2C10.2239 2 11.8772 2.68482 13.0962 3.90381C14.3152 5.12279 15 6.77609 15 8.5C15 10.2239 14.3152 11.8772 13.0962 13.0962C11.8772 14.3152 10.2239 15 8.50001 15C6.7761 15 5.1228 14.3152 3.90382 13.0962C2.68483 11.8772 2.00001 10.2239 2.00001 8.5Z" fill="currentColor"/>
    </symbol>
    <symbol  xmlns="http://www.w3.org/2000/svg" viewBox="0 0 21 20" id="telegram">
        <path fill-rule="evenodd" clip-rule="evenodd" d="M10.5 0C4.9775 0 0.5 4.4775 0.5 10C0.5 15.5225 4.9775 20 10.5 20C16.0225 20 20.5 15.5225 20.5 10C20.5 4.4775 16.0225 0 10.5 0ZM15.135 6.80083C14.985 8.38167 14.3333 12.2192 14.0025 13.99C13.8625 14.74 13.5858 14.9908 13.3192 15.015C12.7383 15.0683 12.2975 14.6308 11.735 14.2625C10.855 13.6858 10.3575 13.3267 9.50333 12.7633C8.51583 12.1125 9.15583 11.755 9.71833 11.1708C9.86583 11.0175 12.4242 8.69 12.4742 8.47917C12.48 8.4525 12.4867 8.35417 12.4275 8.3025C12.3683 8.25083 12.2825 8.26833 12.2208 8.2825C12.1325 8.3025 10.7267 9.23167 8.0025 11.07C7.60333 11.3442 7.24167 11.4775 6.9175 11.4708C6.56083 11.4633 5.87417 11.2692 5.36333 11.1025C4.7375 10.8992 4.23917 10.7908 4.2825 10.4458C4.305 10.2658 4.5525 10.0817 5.02583 9.89333C7.94083 8.62333 9.885 7.78583 10.8575 7.38083C13.635 6.22583 14.2117 6.025 14.5883 6.01833C15.06 6.01167 15.1733 6.40083 15.135 6.80083Z" fill="currentColor"/>
    </symbol>
    <symbol  xmlns="http://www.w3.org/2000/svg" viewBox="0 0 21 20" id="vk">
        <path d="M19.0967 1.40333C17.6933 0 15.4342 0 10.9167 0H10.0833C5.56583 0 3.30667 0 1.90333 1.40333C0.5 2.80667 0.5 5.06583 0.5 9.58333V10.4167C0.5 14.9342 0.5 17.1925 1.90333 18.5967C3.30667 20.0008 5.56583 20 10.0833 20H10.9167C15.4342 20 17.6925 20 19.0967 18.5967C20.5 17.1933 20.5 14.9342 20.5 10.4167V9.58333C20.5 5.06583 20.5 2.80667 19.0967 1.40333ZM16.7525 14.1667H15.2942C14.7383 14.1667 14.575 13.7233 13.5858 12.7342C12.72 11.9 12.3492 11.7917 12.1333 11.7917C11.8392 11.7917 11.7517 11.875 11.7517 12.2917V13.5992C11.7517 13.9575 11.6375 14.1667 10.71 14.1667C9.165 14.1667 7.46667 13.2283 6.26083 11.4983C4.4525 8.96417 3.95833 7.04833 3.95833 6.6625C3.95833 6.44583 4.04167 6.25 4.45833 6.25H5.9175C6.29 6.25 6.43 6.41333 6.57 6.81667C7.28333 8.89417 8.48667 10.71 8.98083 10.71C9.16583 10.71 9.25083 10.6242 9.25083 10.1542V8.00667C9.19667 7.01833 8.67083 6.93667 8.67083 6.585C8.67083 6.4225 8.81 6.25 9.04167 6.25H11.3342C11.6433 6.25 11.7508 6.415 11.7508 6.78583V9.675C11.7508 9.98333 11.885 10.0917 11.9775 10.0917C12.1633 10.0917 12.3175 9.98333 12.6575 9.64333C13.7083 8.46917 14.45 6.66167 14.45 6.66167C14.5433 6.445 14.7133 6.24917 15.085 6.24917H16.5433C16.9842 6.24917 17.0775 6.47583 16.9842 6.785C16.7983 7.635 15.0217 10.1375 15.0217 10.1375C14.8667 10.385 14.805 10.5083 15.0217 10.7867C15.1767 11.0033 15.6858 11.4358 16.0258 11.8375C16.6525 12.5425 17.125 13.1367 17.2567 13.5467C17.3783 13.9583 17.1692 14.1667 16.7525 14.1667Z" fill="currentColor"/>
    </symbol>
    <symbol  xmlns="http://www.w3.org/2000/svg" viewBox="0 0 26 26" id="whatsapp">
        <path d="M13 0.15625C19.9038 0.15625 25.5 5.7525 25.5 12.6562C25.5 19.56 19.9038 25.1562 13 25.1562C10.791 25.1598 8.62084 24.5752 6.71252 23.4625L0.505018 25.1562L2.19502 18.9462C1.08138 17.0373 0.496327 14.8662 0.500017 12.6562C0.500017 5.7525 6.09627 0.15625 13 0.15625ZM8.74002 6.78125L8.49002 6.79125C8.32817 6.80111 8.16999 6.84363 8.02502 6.91625C7.88942 6.99304 7.76564 7.08903 7.65752 7.20125C7.50752 7.3425 7.42252 7.465 7.33127 7.58375C6.86892 8.18488 6.61998 8.92289 6.62377 9.68125C6.62627 10.2937 6.78627 10.89 7.03627 11.4475C7.54752 12.575 8.38877 13.7687 9.49877 14.875C9.76627 15.1412 10.0288 15.4088 10.3113 15.6575C11.6905 16.8718 13.3341 17.7475 15.1113 18.215L15.8213 18.3238C16.0525 18.3363 16.2838 18.3187 16.5163 18.3075C16.8803 18.2887 17.2358 18.1901 17.5575 18.0188C17.7212 17.9344 17.881 17.8427 18.0363 17.7437C18.0363 17.7437 18.09 17.7087 18.1925 17.6312C18.3613 17.5062 18.465 17.4175 18.605 17.2713C18.7088 17.1638 18.7988 17.0375 18.8675 16.8938C18.965 16.69 19.0625 16.3012 19.1025 15.9775C19.1325 15.73 19.1238 15.595 19.12 15.5113C19.115 15.3775 19.0038 15.2388 18.8825 15.18L18.155 14.8538C18.155 14.8538 17.0675 14.38 16.4025 14.0775C16.3329 14.0471 16.2584 14.0297 16.1825 14.0262C16.097 14.0175 16.0106 14.0271 15.9291 14.0545C15.8476 14.0819 15.7729 14.1264 15.71 14.185C15.7038 14.1825 15.62 14.2538 14.7163 15.3488C14.6644 15.4185 14.5929 15.4711 14.511 15.5001C14.4291 15.529 14.3404 15.5329 14.2563 15.5113C14.1748 15.4894 14.0951 15.4618 14.0175 15.4288C13.8625 15.3638 13.8088 15.3387 13.7025 15.2937C12.9851 14.9807 12.3209 14.5577 11.7338 14.04C11.5763 13.9025 11.43 13.7525 11.28 13.6075C10.7883 13.1365 10.3597 12.6038 10.005 12.0225L9.93127 11.9037C9.8783 11.824 9.83547 11.7379 9.80377 11.6475C9.75627 11.4637 9.88002 11.3163 9.88002 11.3163C9.88002 11.3163 10.1838 10.9837 10.325 10.8037C10.4625 10.6287 10.5788 10.4588 10.6538 10.3375C10.8013 10.1 10.8475 9.85625 10.77 9.6675C10.42 8.8125 10.0575 7.96125 9.68502 7.11625C9.61127 6.94875 9.39252 6.82875 9.19377 6.805C9.12627 6.7975 9.05877 6.79 8.99127 6.785C8.8234 6.77666 8.65519 6.77833 8.48752 6.79L8.74002 6.78125Z" fill="currentColor"/>
    </symbol>
    <symbol  xmlns="http://www.w3.org/2000/svg" viewBox="0 0 46 34" id="youtube">
        <path d="M18.4 24.0714L30.337 17L18.4 9.92857V24.0714ZM44.988 5.615C45.287 6.72286 45.494 8.20786 45.632 10.0936C45.793 11.9793 45.862 13.6057 45.862 15.02L46 17C46 22.1621 45.632 25.9571 44.988 28.385C44.413 30.5064 43.079 31.8736 41.009 32.4629C39.928 32.7693 37.95 32.9814 34.914 33.1229C31.924 33.2879 29.187 33.3586 26.657 33.3586L23 33.5C13.363 33.5 7.36 33.1229 4.991 32.4629C2.921 31.8736 1.587 30.5064 1.012 28.385C0.713 27.2771 0.506 25.7921 0.368 23.9064C0.207 22.0207 0.138 20.3943 0.138 18.98L0 17C0 11.8379 0.368 8.04286 1.012 5.615C1.587 3.49357 2.921 2.12643 4.991 1.53714C6.072 1.23071 8.05 1.01857 11.086 0.877143C14.076 0.712142 16.813 0.641428 19.343 0.641428L23 0.5C32.637 0.5 38.64 0.877143 41.009 1.53714C43.079 2.12643 44.413 3.49357 44.988 5.615Z" fill="currentColor"/>
    </symbol>
    <symbol xmlns="http://www.w3.org/2000/svg" viewBox="0 0 25 45" id="zipper">
        <path fill-rule="evenodd" clip-rule="evenodd" d="M25 17.2971L24.9997 17.297H13.8575L23.8569 0.000263672L9.85705 0L0 22.9219L12.2855 22.9218L4.14277 45L25 17.2971Z" fill="#FFF500"/>
    </symbol>
    <symbol xmlns="http://www.w3.org/2000/svg" id="eye">
        <path d="M13.8959 5.045C13.3837 3.97833 11.3752 0.5 7.0001 0.5C2.62499 0.5 0.616524 3.97833 0.104344 5.045C0.0355898 5.18795 0 5.34333 0 5.50056C0 5.65778 0.0355898 5.81317 0.104344 5.95611C0.616524 7.02167 2.62499 10.5 7.0001 10.5C11.3752 10.5 13.3837 7.02167 13.8959 5.955C13.9645 5.81222 14 5.65703 14 5.5C14 5.34297 13.9645 5.18778 13.8959 5.045ZM7.0001 8.83333C6.30785 8.83333 5.63115 8.63784 5.05556 8.27156C4.47997 7.90529 4.03136 7.3847 3.76644 6.77561C3.50153 6.16652 3.43222 5.4963 3.56727 4.8497C3.70232 4.2031 4.03567 3.60915 4.52517 3.14298C5.01466 2.6768 5.63832 2.35933 6.31727 2.23072C6.99622 2.1021 7.69997 2.16811 8.33953 2.4204C8.97909 2.67269 9.52573 3.09994 9.91032 3.6481C10.2949 4.19626 10.5002 4.84073 10.5002 5.5C10.4993 6.38378 10.1302 7.23112 9.47402 7.85605C8.81782 8.48098 7.9281 8.83245 7.0001 8.83333Z" stroke="none" fill="currentColor"/>
        <path d="M7.0001 7.72222C8.2888 7.72222 9.3335 6.7273 9.3335 5.5C9.3335 4.2727 8.2888 3.27778 7.0001 3.27778C5.71141 3.27778 4.66671 4.2727 4.66671 5.5C4.66671 6.7273 5.71141 7.72222 7.0001 7.72222Z" stroke="none" fill="currentColor"/>
    </symbol>
    <symbol xmlns="http://www.w3.org/2000/svg"  viewBox="0 0 28 28" id="edit" fill="none">
        <path d="M12.832 4.66602H4.66536C4.04653 4.66602 3.45303 4.91185 3.01545 5.34943C2.57786 5.78702 2.33203 6.38051 2.33203 6.99935V23.3327C2.33203 23.9515 2.57786 24.545 3.01545 24.9826C3.45303 25.4202 4.04653 25.666 4.66536 25.666H20.9987C21.6175 25.666 22.211 25.4202 22.6486 24.9826C23.0862 24.545 23.332 23.9515 23.332 23.3327V15.166" stroke="white" stroke-width="2" stroke-linecap="square" stroke-linejoin="round"/>
        <path d="M21.582 2.91628C22.0462 2.45215 22.6757 2.19141 23.332 2.19141C23.9884 2.19141 24.6179 2.45215 25.082 2.91628C25.5462 3.38041 25.8069 4.0099 25.8069 4.66628C25.8069 5.32266 25.5462 5.95215 25.082 6.41628L13.9987 17.4996L9.33203 18.6663L10.4987 13.9996L21.582 2.91628Z" stroke="white" stroke-width="2" stroke-linecap="round" stroke-linejoin="round"/>
    </symbol>
    <symbol xmlns="http://www.w3.org/2000/svg" viewBox="0 0 33 33" id="edit-avatar" fill="none">
        <path d="M7.05257 25.9466H13.0096L31.4219 7.53437C32.2106 6.74375 32.6535 5.67259 32.6535 4.55585C32.6535 3.43911 32.2106 2.36796 31.4219 1.57734C30.6198 0.810635 29.5529 0.38276 28.4434 0.38276C27.3338 0.38276 26.2669 0.810635 25.4648 1.57734L7.05257 19.9896V25.9466ZM9.75172 21.1071L27.3731 3.48564C27.6614 3.21026 28.0447 3.0566 28.4434 3.0566C28.842 3.0566 29.2253 3.21026 29.5136 3.48564C29.7969 3.76974 29.956 4.15461 29.956 4.55585C29.956 4.95709 29.7969 5.34196 29.5136 5.62607L11.8922 23.2475H9.75172V21.1071Z" fill="white"/>
        <path d="M32.183 10.5912L29.9954 12.7788V21.8979H21.8979V29.9954H3.00384V4.35342C3.00384 3.99549 3.14603 3.65222 3.39912 3.39912C3.65222 3.14603 3.99549 3.00384 4.35342 3.00384H20.2217L22.4094 0.816177C22.6064 0.633476 22.8142 0.462677 23.0316 0.304688H4.35342C3.27963 0.304688 2.24982 0.731249 1.49053 1.49053C0.731249 2.24982 0.304688 3.27963 0.304688 4.35342V32.6945H25.1558L32.6945 25.1558V9.969C32.5362 10.1861 32.3654 10.3938 32.183 10.5912ZM24.5971 29.4366V24.5971H29.4366L24.5971 29.4366Z" fill="white"/>
    </symbol>
    <symbol xmlns="http://www.w3.org/2000/svg" viewBox="0 0 24 24" fill="none" id="check-circle">
        <path d="M22 11.0799V11.9999C21.9988 14.1563 21.3005 16.2545 20.0093 17.9817C18.7182 19.7088 16.9033 20.9723 14.8354 21.5838C12.7674 22.1952 10.5573 22.1218 8.53447 21.3744C6.51168 20.6271 4.78465 19.246 3.61096 17.4369C2.43727 15.6279 1.87979 13.4879 2.02168 11.3362C2.16356 9.18443 2.99721 7.13619 4.39828 5.49694C5.79935 3.85768 7.69279 2.71525 9.79619 2.24001C11.8996 1.76477 14.1003 1.9822 16.07 2.85986" stroke="white" stroke-width="2" stroke-linecap="square" stroke-linejoin="round"/>
        <path d="M22 4L12 14.01L9 11.01" stroke="white" stroke-width="2" stroke-linecap="square" stroke-linejoin="round"/>
    </symbol>
    <symbol xmlns="http://www.w3.org/2000/svg" viewBox="0 0 24 24" fill="none" id="logout">
        <path d="M9 21H5C4.46957 21 3.96086 20.7893 3.58579 20.4142C3.21071 20.0391 3 19.5304 3 19V5C3 4.46957 3.21071 3.96086 3.58579 3.58579C3.96086 3.21071 4.46957 3 5 3H9" stroke="white" stroke-width="2" stroke-linecap="round" stroke-linejoin="round"/>
        <path d="M16 17L21 12L16 7" stroke="white" stroke-width="2" stroke-linecap="round" stroke-linejoin="round"/>
        <path d="M21 12H9" stroke="white" stroke-width="2" stroke-linecap="round" stroke-linejoin="round"/>
    </symbol>
    <symbol xmlns="http://www.w3.org/2000/svg" viewBox="0 0 16 16" fill="none" id="reload">
        <path d="M1.2 0C1.0976 0 0.995588 0.0395875 0.917188 0.117188C0.761187 0.273187 0.761187 0.526812 0.917188 0.682813L2.475 2.24063C0.956018 3.69594 0 5.73481 0 8C0 12.4091 3.59093 16 8 16C12.4091 16 16 12.4091 16 8C16 3.89129 12.8852 0.494072 8.8875 0.0515625C8.86103 0.0486751 8.83444 0.0471106 8.80781 0.046875C8.60256 0.0448969 8.40439 0.121884 8.2543 0.261913C8.10422 0.401942 8.01369 0.594301 8.00145 0.799202C7.9892 1.0041 8.05618 1.20587 8.18853 1.36277C8.32088 1.51968 8.50847 1.61971 8.7125 1.64219C11.9132 1.99648 14.4 4.69751 14.4 8C14.4 11.5445 11.5445 14.4 8 14.4C4.45547 14.4 1.6 11.5445 1.6 8C1.6 6.16843 2.37401 4.53152 3.60313 3.36875L4.91719 4.68281C5.07319 4.83881 5.32681 4.83881 5.48281 4.68281C5.56121 4.60521 5.6 4.5024 5.6 4.4V0.8C5.6 0.587827 5.51571 0.384344 5.36569 0.234315C5.21566 0.0842854 5.01217 0 4.8 0H1.2Z" fill="white" />
    </symbol>
    <symbol xmlns="http://www.w3.org/2000/svg" viewBox="0 0 24 24" id="place">
        <path d="M12 12C10.9 12 10 11.1 10 10C10 8.9 10.9 8 12 8C13.1 8 14 8.9 14 10C14 11.1 13.1 12 12 12ZM18 10.2C18 6.57 15.35 4 12 4C8.65 4 6 6.57 6 10.2C6 12.54 7.95 15.64 12 19.34C16.05 15.64 18 12.54 18 10.2ZM12 2C16.2 2 20 5.22 20 10.2C20 13.52 17.33 17.45 12 22C6.67 17.45 4 13.52 4 10.2C4 5.22 7.8 2 12 2Z" fill="currentColor" stroke="none"/>
    </symbol>
    <symbol xmlns="http://www.w3.org/2000/svg" viewBox="0 0 24 24" fill="none" id="clock">
        <path d="M12 22C17.5228 22 22 17.5228 22 12C22 6.47715 17.5228 2 12 2C6.47715 2 2 6.47715 2 12C2 17.5228 6.47715 22 12 22Z" stroke="white" stroke-width="2" stroke-linecap="round" stroke-linejoin="round"/>
        <path d="M12 6V12L16 14" stroke="white" stroke-width="2" stroke-linecap="square" stroke-linejoin="round"/>
    </symbol>
    <symbol xmlns="http://www.w3.org/2000/svg" viewBox="0 0 13 12" fill="none" id="step-check">
        <path d="M6.25 0C9.56371 0 12.25 2.68629 12.25 6C12.25 9.31371 9.56371 12 6.25 12C2.93629 12 0.25 9.31371 0.25 6C0.25 2.68629 2.93629 0 6.25 0ZM8.37028 4.16398L5.49953 7.04242L4.10355 5.64645C3.90829 5.45118 3.59171 5.45118 3.39645 5.64645C3.20118 5.84171 3.20118 6.15829 3.39645 6.35355L5.14645 8.10355C5.34189 8.299 5.65884 8.29879 5.85403 8.10308L9.07833 4.87014C9.27333 4.67462 9.27291 4.35804 9.07738 4.16304C8.88186 3.96803 8.56528 3.96846 8.37028 4.16398Z" fill="#D55852"/>
    </symbol>
</svg>