<svg xmlns="http://www.w3.org/2000/svg" width="13" height="12" viewBox="0 0 13 12" fill="none">
    <path d="M6.25 0C9.56371 0 12.25 2.68629 12.25 6C12.25 9.31371 9.56371 12 6.25 12C2.93629 12 0.25 9.31371 0.25 6C0.25 2.68629 2.93629 0 6.25 0ZM8.37028 4.16398L5.49953 7.04242L4.10355 5.64645C3.90829 5.45118 3.59171 5.45118 3.39645 5.64645C3.20118 5.84171 3.20118 6.15829 3.39645 6.35355L5.14645 8.10355C5.34189 8.299 5.65884 8.29879 5.85403 8.10308L9.07833 4.87014C9.27333 4.67462 9.27291 4.35804 9.07738 4.16304C8.88186 3.96803 8.56528 3.96846 8.37028 4.16398Z" fill="#D55852"/>
</svg>