<svg width="21" height="20" viewBox="0 0 21 20" fill="none" xmlns="http://www.w3.org/2000/svg">
<path fill-rule="evenodd" clip-rule="evenodd" d="M10.5 0C4.9775 0 0.5 4.4775 0.5 10C0.5 15.5225 4.9775 20 10.5 20C16.0225 20 20.5 15.5225 20.5 10C20.5 4.4775 16.0225 0 10.5 0ZM15.135 6.80083C14.985 8.38167 14.3333 12.2192 14.0025 13.99C13.8625 14.74 13.5858 14.9908 13.3192 15.015C12.7383 15.0683 12.2975 14.6308 11.735 14.2625C10.855 13.6858 10.3575 13.3267 9.50333 12.7633C8.51583 12.1125 9.15583 11.755 9.71833 11.1708C9.86583 11.0175 12.4242 8.69 12.4742 8.47917C12.48 8.4525 12.4867 8.35417 12.4275 8.3025C12.3683 8.25083 12.2825 8.26833 12.2208 8.2825C12.1325 8.3025 10.7267 9.23167 8.0025 11.07C7.60333 11.3442 7.24167 11.4775 6.9175 11.4708C6.56083 11.4633 5.87417 11.2692 5.36333 11.1025C4.7375 10.8992 4.23917 10.7908 4.2825 10.4458C4.305 10.2658 4.5525 10.0817 5.02583 9.89333C7.94083 8.62333 9.885 7.78583 10.8575 7.38083C13.635 6.22583 14.2117 6.025 14.5883 6.01833C15.06 6.01167 15.1733 6.40083 15.135 6.80083Z" fill="white"/>
</svg>
