<svg width="21" height="20" viewBox="0 0 21 20" fill="none" xmlns="http://www.w3.org/2000/svg">
<path d="M19.0967 1.40333C17.6933 0 15.4342 0 10.9167 0H10.0833C5.56583 0 3.30667 0 1.90333 1.40333C0.5 2.80667 0.5 5.06583 0.5 9.58333V10.4167C0.5 14.9342 0.5 17.1925 1.90333 18.5967C3.30667 20.0008 5.56583 20 10.0833 20H10.9167C15.4342 20 17.6925 20 19.0967 18.5967C20.5 17.1933 20.5 14.9342 20.5 10.4167V9.58333C20.5 5.06583 20.5 2.80667 19.0967 1.40333ZM16.7525 14.1667H15.2942C14.7383 14.1667 14.575 13.7233 13.5858 12.7342C12.72 11.9 12.3492 11.7917 12.1333 11.7917C11.8392 11.7917 11.7517 11.875 11.7517 12.2917V13.5992C11.7517 13.9575 11.6375 14.1667 10.71 14.1667C9.165 14.1667 7.46667 13.2283 6.26083 11.4983C4.4525 8.96417 3.95833 7.04833 3.95833 6.6625C3.95833 6.44583 4.04167 6.25 4.45833 6.25H5.9175C6.29 6.25 6.43 6.41333 6.57 6.81667C7.28333 8.89417 8.48667 10.71 8.98083 10.71C9.16583 10.71 9.25083 10.6242 9.25083 10.1542V8.00667C9.19667 7.01833 8.67083 6.93667 8.67083 6.585C8.67083 6.4225 8.81 6.25 9.04167 6.25H11.3342C11.6433 6.25 11.7508 6.415 11.7508 6.78583V9.675C11.7508 9.98333 11.885 10.0917 11.9775 10.0917C12.1633 10.0917 12.3175 9.98333 12.6575 9.64333C13.7083 8.46917 14.45 6.66167 14.45 6.66167C14.5433 6.445 14.7133 6.24917 15.085 6.24917H16.5433C16.9842 6.24917 17.0775 6.47583 16.9842 6.785C16.7983 7.635 15.0217 10.1375 15.0217 10.1375C14.8667 10.385 14.805 10.5083 15.0217 10.7867C15.1767 11.0033 15.6858 11.4358 16.0258 11.8375C16.6525 12.5425 17.125 13.1367 17.2567 13.5467C17.3783 13.9583 17.1692 14.1667 16.7525 14.1667Z" fill="white"/>
</svg>
