<svg width="26" height="26" viewBox="0 0 26 26" fill="none" xmlns="http://www.w3.org/2000/svg">
    <path d="M13 0.15625C19.9038 0.15625 25.5 5.7525 25.5 12.6562C25.5 19.56 19.9038 25.1562 13 25.1562C10.791 25.1598 8.62084 24.5752 6.71252 23.4625L0.505018 25.1562L2.19502 18.9462C1.08138 17.0373 0.496327 14.8662 0.500017 12.6562C0.500017 5.7525 6.09627 0.15625 13 0.15625ZM8.74002 6.78125L8.49002 6.79125C8.32817 6.80111 8.16999 6.84363 8.02502 6.91625C7.88942 6.99304 7.76564 7.08903 7.65752 7.20125C7.50752 7.3425 7.42252 7.465 7.33127 7.58375C6.86892 8.18488 6.61998 8.92289 6.62377 9.68125C6.62627 10.2937 6.78627 10.89 7.03627 11.4475C7.54752 12.575 8.38877 13.7687 9.49877 14.875C9.76627 15.1412 10.0288 15.4088 10.3113 15.6575C11.6905 16.8718 13.3341 17.7475 15.1113 18.215L15.8213 18.3238C16.0525 18.3363 16.2838 18.3187 16.5163 18.3075C16.8803 18.2887 17.2358 18.1901 17.5575 18.0188C17.7212 17.9344 17.881 17.8427 18.0363 17.7437C18.0363 17.7437 18.09 17.7087 18.1925 17.6312C18.3613 17.5062 18.465 17.4175 18.605 17.2713C18.7088 17.1638 18.7988 17.0375 18.8675 16.8938C18.965 16.69 19.0625 16.3012 19.1025 15.9775C19.1325 15.73 19.1238 15.595 19.12 15.5113C19.115 15.3775 19.0038 15.2388 18.8825 15.18L18.155 14.8538C18.155 14.8538 17.0675 14.38 16.4025 14.0775C16.3329 14.0471 16.2584 14.0297 16.1825 14.0262C16.097 14.0175 16.0106 14.0271 15.9291 14.0545C15.8476 14.0819 15.7729 14.1264 15.71 14.185C15.7038 14.1825 15.62 14.2538 14.7163 15.3488C14.6644 15.4185 14.5929 15.4711 14.511 15.5001C14.4291 15.529 14.3404 15.5329 14.2563 15.5113C14.1748 15.4894 14.0951 15.4618 14.0175 15.4288C13.8625 15.3638 13.8088 15.3387 13.7025 15.2937C12.9851 14.9807 12.3209 14.5577 11.7338 14.04C11.5763 13.9025 11.43 13.7525 11.28 13.6075C10.7883 13.1365 10.3597 12.6038 10.005 12.0225L9.93127 11.9037C9.8783 11.824 9.83547 11.7379 9.80377 11.6475C9.75627 11.4637 9.88002 11.3163 9.88002 11.3163C9.88002 11.3163 10.1838 10.9837 10.325 10.8037C10.4625 10.6287 10.5788 10.4588 10.6538 10.3375C10.8013 10.1 10.8475 9.85625 10.77 9.6675C10.42 8.8125 10.0575 7.96125 9.68502 7.11625C9.61127 6.94875 9.39252 6.82875 9.19377 6.805C9.12627 6.7975 9.05877 6.79 8.99127 6.785C8.8234 6.77666 8.65519 6.77833 8.48752 6.79L8.74002 6.78125Z" fill="white"/>
</svg>
