<svg width="24" height="25" viewBox="0 0 24 25" fill="none" xmlns="http://www.w3.org/2000/svg">
<path d="M12.001 3.10742C17.2478 3.10742 21.501 7.36056 21.501 12.6074C21.501 17.6902 17.5097 21.8401 12.4902 22.0947L12.001 22.1074H12C10.3216 22.1101 8.67257 21.6657 7.22266 20.8203L7.04199 20.7148L6.83984 20.7705L2.7168 21.8945L3.83984 17.7705L3.89453 17.5684L3.78906 17.3877C2.99582 16.028 2.55551 14.4929 2.50586 12.9229L2.50098 12.6084V12.6074C2.50098 7.36057 6.75413 3.10743 12.001 3.10742ZM8.58789 7.40625C8.51654 7.40695 8.44525 7.41041 8.37402 7.41504L8.35645 7.41602C8.16173 7.42869 7.97137 7.48095 7.79688 7.56836L7.78613 7.57422L7.77441 7.58008C7.66157 7.64398 7.55625 7.72015 7.45996 7.80664L7.38379 7.87988C7.30567 7.95349 7.24277 8.02504 7.19141 8.08789L7.06934 8.24414C6.68641 8.74201 6.45884 9.33955 6.41016 9.96191L6.40039 10.2295C6.40245 10.7332 6.51743 11.2144 6.69434 11.6572L6.77344 11.8447L6.77441 11.8467C7.15747 12.6915 7.74989 13.5657 8.51074 14.3877L8.84668 14.7363H8.84766C8.95155 14.8397 9.05887 14.9492 9.1709 15.0586L9.51953 15.3838C10.6812 16.4066 12.0656 17.1443 13.5625 17.5381L13.5879 17.5449L13.6143 17.5488L14.1826 17.6357L14.2061 17.6396L14.2314 17.6406C14.3403 17.6465 14.4502 17.6453 14.5537 17.6416L14.8379 17.6279H14.8398C15.2041 17.6091 15.5599 17.5103 15.8818 17.3389L15.8809 17.3379C15.9511 17.3016 16.0213 17.265 16.0898 17.2256L16.2988 17.0996L16.3027 17.0967L16.3047 17.0947C16.3056 17.0941 16.3073 17.0936 16.3086 17.0928C16.3111 17.0911 16.3145 17.0885 16.3184 17.0859C16.3261 17.0807 16.3369 17.0734 16.3496 17.0645C16.3754 17.0464 16.4117 17.0206 16.457 16.9863L16.4561 16.9854C16.6076 16.8729 16.7125 16.7846 16.8457 16.6455L16.8447 16.6445C16.9331 16.5528 17.0143 16.4498 17.082 16.334L17.1465 16.2129C17.2292 16.0397 17.2991 15.7884 17.3438 15.5527L17.3789 15.3262V15.3242C17.4078 15.0858 17.3999 14.9458 17.3965 14.8691H17.3955C17.3879 14.6898 17.3147 14.5414 17.2383 14.4385C17.1601 14.3332 17.0526 14.2387 16.9248 14.1768L16.918 14.1729L16.9111 14.1699L16.3291 13.9092H16.3301L16.3242 13.9072L16.3145 13.9023C16.308 13.8995 16.2981 13.8959 16.2861 13.8906C16.2614 13.8798 16.2253 13.8642 16.1807 13.8447C16.0912 13.8056 15.9665 13.7507 15.8252 13.6885L14.9297 13.2891L14.9229 13.2861L14.8379 13.2539C14.7598 13.228 14.6789 13.2121 14.5967 13.2061H14.5977C14.5941 13.2057 14.5905 13.2054 14.5869 13.2051C14.5814 13.2047 14.5759 13.2044 14.5703 13.2041H14.5693C14.4743 13.1972 14.3789 13.2032 14.2861 13.2236L14.1846 13.252C14.0657 13.2919 13.9565 13.3553 13.8613 13.4365C13.8542 13.4419 13.8482 13.4454 13.8447 13.4482C13.8199 13.4688 13.7985 13.4902 13.7861 13.5029C13.7579 13.5319 13.7191 13.5746 13.6641 13.6377C13.5575 13.7598 13.3713 13.9799 13.0439 14.376L13.0088 14.3643L12.7627 14.2588C12.3022 14.0578 11.8714 13.7955 11.4824 13.4785L11.3184 13.3398L11.3164 13.3379L10.9727 13.0088L10.9707 13.0068L10.708 12.7393C10.5388 12.5548 10.3822 12.3591 10.2383 12.1543L10.0322 11.8398L10.0293 11.8369L9.97852 11.7549C9.9898 11.7422 10.0024 11.7296 10.0146 11.7158L10.2539 11.4346C10.375 11.2804 10.4779 11.1286 10.5479 11.0156L10.5488 11.0166C10.6912 10.7874 10.7969 10.4753 10.7227 10.1611L10.6797 10.0264C10.5389 9.68238 10.3955 9.33919 10.25 8.99707L9.80664 7.97363L9.7334 7.84375C9.65114 7.72456 9.5449 7.63819 9.44922 7.58008C9.35104 7.52051 9.2413 7.47637 9.12891 7.4502L9.01562 7.42969H9.01074L8.83105 7.41211L8.81836 7.41113L8.58789 7.40625Z" fill="white" stroke="white"/>
</svg>
