<svg width="51" height="35" viewBox="0 0 51 35" fill="none" xmlns="http://www.w3.org/2000/svg">
<g id="fontisto:paypal" clip-path="url(#clip0_1239_224)">
<path id="Vector" d="M47.1667 34.1483H3.83333C2.94928 34.1483 2.10143 33.7971 1.47631 33.172C0.851189 32.5468 0.5 31.699 0.5 30.8149L0.5 4.14827C0.5 3.26422 0.851189 2.41637 1.47631 1.79125C2.10143 1.16613 2.94928 0.814941 3.83333 0.814941L47.1667 0.814941C48.0507 0.814941 48.8986 1.16613 49.5237 1.79125C50.1488 2.41637 50.5 3.26422 50.5 4.14827V30.8149C50.5 31.699 50.1488 32.5468 49.5237 33.172C48.8986 33.7971 48.0507 34.1483 47.1667 34.1483ZM19.9889 15.1552C19.9508 15.1557 19.9134 15.1647 19.8793 15.1815C19.8452 15.1984 19.8152 15.2226 19.7917 15.2524C19.7369 15.3082 19.7056 15.3827 19.7042 15.4608C19.7042 15.4899 19.8403 15.9052 20.1319 16.7566L20.7625 18.5983L21.0556 19.4566C21.3843 20.4196 21.556 20.9316 21.5708 20.9927C20.9242 21.7933 20.3396 22.6421 19.8222 23.5316L19.7694 23.6288L19.7667 23.6636C19.7667 23.8024 19.8792 23.9163 20.0194 23.9163L20.0569 23.9136H20.0556H21.7472C21.8261 23.9131 21.9035 23.8925 21.9723 23.8539C22.041 23.8153 22.0988 23.7598 22.1403 23.6927L22.1417 23.6913L27.7417 15.6094C27.7711 15.5706 27.7872 15.5233 27.7875 15.4747L27.7861 15.4538V15.4552C27.7842 15.3772 27.753 15.3028 27.6986 15.2469C27.6753 15.2171 27.6456 15.193 27.6117 15.1761C27.5778 15.1593 27.5406 15.1503 27.5028 15.1497H25.8097C25.7307 15.1502 25.653 15.1707 25.5841 15.2093C25.5151 15.2479 25.457 15.3034 25.4153 15.3705L25.4139 15.3719L23.0806 18.7969L22.1153 15.5024C22.0905 15.4021 22.0329 15.3128 21.9516 15.2489C21.8704 15.185 21.7701 15.1501 21.6667 15.1497L21.6306 15.1511H21.6319L19.9889 15.1552ZM39.4028 15.0011H39.3667C38.3139 15.0011 37.3681 15.458 36.7153 16.183L36.7125 16.1858C35.9986 16.9242 35.6 17.9115 35.6014 18.9386V18.9761V18.9747C35.5986 19.0149 35.5986 19.0636 35.5986 19.1108C35.5986 19.8566 35.8889 20.5358 36.3611 21.0399L36.3597 21.0386C36.6283 21.3002 36.9481 21.5036 37.2989 21.636C37.6497 21.7684 38.0241 21.8269 38.3986 21.808H38.3917C38.8597 21.8024 39.3042 21.7066 39.7097 21.5344L39.6875 21.5427C40.0972 21.3886 40.4444 21.1483 40.7181 20.8427L40.7208 20.8399C40.7069 20.9191 40.6917 20.9858 40.6736 21.0497L40.6764 21.0358C40.6516 21.1208 40.6367 21.2084 40.6319 21.2969V21.2997C40.6319 21.533 40.7278 21.6511 40.9181 21.6511H42.4333C42.4925 21.6564 42.5521 21.6498 42.6087 21.6316C42.6653 21.6135 42.7176 21.5842 42.7627 21.5455C42.8078 21.5068 42.8446 21.4594 42.871 21.4062C42.8975 21.353 42.913 21.2951 42.9167 21.2358V21.2344L43.8167 15.5024C43.8252 15.4592 43.8237 15.4146 43.8124 15.372C43.8011 15.3294 43.7802 15.2899 43.7514 15.2566C43.7264 15.2222 43.6936 15.1942 43.6557 15.1749C43.6178 15.1556 43.5759 15.1455 43.5333 15.1455H41.8625C41.6583 15.1455 41.5292 15.3886 41.4875 15.8705C41.243 15.5568 40.9215 15.3117 40.5542 15.1591C40.187 15.0065 39.7865 14.9516 39.3917 14.9997L39.4028 14.9983V15.0011ZM14.4542 15.0011H14.4153C13.3639 15.0011 12.4181 15.458 11.7681 16.183L11.7653 16.1858C11.0513 16.9242 10.6528 17.9115 10.6542 18.9386V18.9761V18.9747C10.6358 19.3522 10.6937 19.7295 10.8245 20.0841C10.9552 20.4388 11.1562 20.7634 11.4153 21.0386L11.4139 21.0372C11.9056 21.5149 12.5778 21.8094 13.3194 21.8094L13.4528 21.8066H13.4458C13.9069 21.7997 14.3444 21.7038 14.7431 21.533L14.7208 21.5413C15.1361 21.383 15.4889 21.1441 15.7736 20.8399L15.775 20.8386C15.7236 20.9747 15.6917 21.133 15.6875 21.2969V21.2997C15.6875 21.533 15.7847 21.6511 15.9736 21.6511H17.4875C17.5467 21.6564 17.6063 21.6498 17.6629 21.6316C17.7194 21.6135 17.7718 21.5842 17.8169 21.5455C17.8619 21.5068 17.8988 21.4594 17.9252 21.4062C17.9517 21.353 17.9672 21.2951 17.9708 21.2358V21.2344L18.8722 15.5024C18.8798 15.4595 18.8777 15.4155 18.8662 15.3734C18.8547 15.3314 18.834 15.2924 18.8056 15.2594C18.7806 15.225 18.7478 15.197 18.7099 15.1776C18.672 15.1583 18.63 15.1483 18.5875 15.1483H16.9167C16.7125 15.1483 16.5833 15.3913 16.5431 15.8733C16.296 15.5621 15.974 15.3188 15.6071 15.1662C15.2403 15.0137 14.8407 14.9568 14.4458 15.0011L14.4569 14.9997L14.4542 15.0011ZM45.7944 11.9261L45.7722 11.9247C45.7059 11.9244 45.642 11.9492 45.5931 11.9939C45.5442 12.0387 45.5139 12.1003 45.5083 12.1663L44.0806 21.3038C44.0688 21.3478 44.0687 21.3941 44.0801 21.4381C44.0916 21.4822 44.1142 21.5225 44.1458 21.5552C44.1721 21.5863 44.2048 21.6113 44.2418 21.6283C44.2788 21.6454 44.319 21.6541 44.3597 21.6538H45.8181L45.8625 21.6566C45.973 21.6566 46.079 21.6127 46.1571 21.5346C46.2353 21.4564 46.2792 21.3504 46.2792 21.2399V21.2372L47.7042 12.258L47.7056 12.2274C47.7055 12.1482 47.6796 12.0712 47.6319 12.008V12.0094C47.607 11.9828 47.5769 11.9615 47.5435 11.947C47.51 11.9324 47.474 11.9248 47.4375 11.9247L47.4167 11.9261H45.7944ZM29.5861 11.9261C29.5265 11.9182 29.4659 11.9231 29.4083 11.9402C29.3506 11.9574 29.2973 11.9865 29.2517 12.0257C29.2061 12.0649 29.1692 12.1133 29.1436 12.1677C29.1179 12.222 29.104 12.2812 29.1028 12.3413L27.6764 21.3024C27.669 21.345 27.6711 21.3887 27.6823 21.4305C27.6936 21.4722 27.7139 21.511 27.7417 21.5441C27.7662 21.5787 27.7987 21.6068 27.8364 21.6261C27.8741 21.6455 27.9159 21.6555 27.9583 21.6552H29.7708C29.8522 21.6552 29.931 21.6269 29.9938 21.5752C30.0566 21.5235 30.0995 21.4517 30.1153 21.3719V21.3691L30.5111 18.8219C30.5229 18.7104 30.5783 18.608 30.6653 18.5372C30.76 18.4606 30.8752 18.4111 30.9958 18.3941H31C31.1125 18.3733 31.2417 18.3622 31.3736 18.3608C31.4903 18.3608 31.6306 18.3677 31.7917 18.383C31.9678 18.4032 32.145 18.4125 32.3222 18.4108C33.3398 18.4124 34.3203 18.0289 35.0667 17.3372L35.0639 17.3399C35.4361 16.9453 35.7234 16.4786 35.9083 15.9686C36.0932 15.4586 36.1717 14.9161 36.1389 14.3747V14.3858C36.1688 14.0277 36.1074 13.6679 35.9604 13.34C35.8135 13.0121 35.5858 12.7268 35.2986 12.5108L35.2931 12.5066C34.6303 12.0875 33.8539 11.8842 33.0708 11.9247H33.0792L29.5861 11.9261ZM4.61111 11.9261C4.55301 11.9198 4.49425 11.9259 4.43864 11.9438C4.38304 11.9618 4.33183 11.9912 4.28834 12.0303C4.24486 12.0693 4.21007 12.117 4.18624 12.1704C4.1624 12.2237 4.15006 12.2815 4.15 12.3399V12.3427L2.72222 21.3038C2.71478 21.3464 2.71676 21.3902 2.72804 21.4319C2.73932 21.4737 2.75961 21.5124 2.7875 21.5455C2.81204 21.5801 2.84454 21.6082 2.88225 21.6275C2.91997 21.6469 2.96178 21.6568 3.00417 21.6566H4.67639C4.73601 21.6644 4.7966 21.6596 4.85423 21.6424C4.91185 21.6252 4.96521 21.5961 5.01081 21.5569C5.05642 21.5177 5.09325 21.4694 5.11891 21.415C5.14457 21.3606 5.15848 21.3014 5.15972 21.2413L5.55556 18.8261C5.56759 18.7149 5.62238 18.6128 5.70833 18.5413C5.8031 18.4648 5.91825 18.4153 6.03889 18.3983H6.04306C6.16596 18.3766 6.29048 18.3654 6.41528 18.3649H6.41667C6.53333 18.3649 6.67222 18.3719 6.83333 18.3872C7.00898 18.4074 7.18571 18.4166 7.3625 18.4149C8.42222 18.4149 9.38611 18.008 10.1083 17.3413L10.1056 17.3441C10.4776 16.9493 10.7649 16.4826 10.9498 15.9727C11.1346 15.4627 11.2132 14.9203 11.1806 14.3788V14.3899C11.2104 14.0319 11.149 13.672 11.0021 13.3441C10.8551 13.0162 10.6274 12.7309 10.3403 12.5149L10.3347 12.5108C9.67485 12.0932 8.90219 11.8895 8.12222 11.9274H8.13056L4.61111 11.9261ZM39.3111 20.0302L39.2444 20.0316C38.8896 20.0319 38.5461 19.9065 38.275 19.6774L38.2778 19.6788C38.1524 19.5634 38.0524 19.4231 37.984 19.267C37.9157 19.1109 37.8804 18.9423 37.8806 18.7719L37.8819 18.7094V18.6719C37.8819 18.1524 38.0917 17.6816 38.4319 17.3399C38.7667 16.9969 39.2333 16.7844 39.75 16.7844H39.7958H39.7931L39.8403 16.783C40.2139 16.783 40.5542 16.9205 40.8153 17.1469L40.8139 17.1455C40.9429 17.2649 41.0457 17.4097 41.116 17.5708C41.1863 17.7319 41.2224 17.9058 41.2222 18.0816L41.2208 18.1483V18.1455V18.1788C41.2208 18.6913 41.0083 19.1552 40.6653 19.4844C40.492 19.657 40.2864 19.7938 40.0603 19.887C39.8341 19.9802 39.5918 20.0279 39.3472 20.0274H39.3125L39.3111 20.0302ZM14.3403 20.0302L14.2708 20.0316C13.9069 20.0316 13.5722 19.8983 13.3167 19.6774L13.3181 19.6788C13.1959 19.562 13.0987 19.4217 13.0324 19.2663C12.966 19.1109 12.9318 18.9436 12.9319 18.7747L12.9333 18.7094V18.6719C12.9333 18.1524 13.1431 17.6816 13.4833 17.3399C13.8181 16.9969 14.2833 16.7844 14.8 16.7844H14.8486H14.8458L14.8931 16.783C15.2667 16.783 15.6069 16.9205 15.8681 17.1469L15.8667 17.1455C15.9953 17.2648 16.0978 17.4095 16.1679 17.5703C16.2379 17.7312 16.2739 17.9048 16.2736 18.0802L16.2722 18.1483V18.1455V18.1941C16.2722 18.7066 16.0597 19.1677 15.7167 19.4969C15.3607 19.8395 14.8857 20.0307 14.3917 20.0302H14.3403ZM30.8778 16.4747L31.2514 14.1261C31.2544 14.0915 31.2641 14.0578 31.2801 14.027C31.2961 13.9962 31.318 13.9689 31.3446 13.9466C31.3712 13.9242 31.4019 13.9074 31.435 13.897C31.4681 13.8865 31.5029 13.8827 31.5375 13.8858H31.9319L32.0167 13.8844C32.2569 13.8844 32.4944 13.9011 32.7264 13.933L32.7 13.9302C32.9153 13.9691 33.1028 14.0663 33.25 14.2052C33.3339 14.2845 33.4007 14.3801 33.4463 14.4862C33.4919 14.5922 33.5154 14.7064 33.5153 14.8219L33.5139 14.8747V14.8719C33.5431 15.1039 33.5145 15.3396 33.4306 15.5579C33.3468 15.7762 33.2103 15.9704 33.0333 16.1233L33.0319 16.1247C32.5894 16.3772 32.082 16.4932 31.5736 16.458H31.5819L30.8806 16.4802L30.8778 16.4747ZM5.90694 16.4747L6.28056 14.1261C6.28335 14.0914 6.29299 14.0577 6.30893 14.0268C6.32486 13.9959 6.34678 13.9685 6.37339 13.9461C6.40001 13.9238 6.4308 13.9069 6.46398 13.8966C6.49716 13.8862 6.53206 13.8825 6.56667 13.8858H6.98194C7.42662 13.8532 7.87176 13.9425 8.26944 14.1441L8.25556 14.1372C8.51805 14.3052 8.60694 14.6622 8.51944 15.2011C8.51274 15.4022 8.45776 15.5989 8.35914 15.7744C8.26052 15.9498 8.12115 16.099 7.95278 16.2094L7.94861 16.2122C7.29031 16.4546 6.58545 16.5439 5.8875 16.4733L5.90694 16.4747Z" fill="white"/>
</g>
<defs>
<clipPath id="clip0_1239_224">
<rect width="50" height="33.3333" fill="white" transform="translate(0.5 0.814941)"/>
</clipPath>
</defs>
</svg>
