<svg width="50" height="51" viewBox="0 0 50 51" fill="none" xmlns="http://www.w3.org/2000/svg">
<g id="telegram">
<path id="Vector" d="M25.0001 4.64795C13.5001 4.64795 4.16675 13.9813 4.16675 25.4813C4.16675 36.9813 13.5001 46.3146 25.0001 46.3146C36.5001 46.3146 45.8334 36.9813 45.8334 25.4813C45.8334 13.9813 36.5001 4.64795 25.0001 4.64795ZM34.6667 18.8146C34.3542 22.1063 33.0001 30.1063 32.3126 33.7938C32.0209 35.3563 31.4376 35.8771 30.8959 35.9396C29.6876 36.0438 28.7709 35.1479 27.6042 34.3771C25.7709 33.1688 24.7292 32.4188 22.9584 31.2521C20.8959 29.8979 22.2292 29.1479 23.4167 27.9396C23.7292 27.6271 29.0626 22.7729 29.1667 22.3354C29.1812 22.2692 29.1793 22.2004 29.1611 22.135C29.143 22.0697 29.1092 22.0098 29.0626 21.9604C28.9376 21.8563 28.7709 21.8979 28.6251 21.9188C28.4376 21.9604 25.5209 23.8979 19.8334 27.7313C19.0001 28.2938 18.2501 28.5854 17.5834 28.5646C16.8334 28.5438 15.4167 28.1479 14.3542 27.7938C13.0417 27.3771 12.0209 27.1479 12.1042 26.4188C12.1459 26.0438 12.6667 25.6688 13.6459 25.2729C19.7292 22.6271 23.7709 20.8771 25.7917 20.0438C31.5834 17.6271 32.7709 17.2104 33.5626 17.2104C33.7292 17.2104 34.1251 17.2521 34.3751 17.4604C34.5834 17.6271 34.6459 17.8563 34.6667 18.0229C34.6459 18.1479 34.6876 18.5229 34.6667 18.8146Z" fill="white"/>
</g>
</svg>
