<svg width="50" height="51" viewBox="0 0 50 51" fill="none" xmlns="http://www.w3.org/2000/svg">
<g id="whatsapp">
<path id="Vector" d="M25.0021 4.64795C36.5083 4.64795 45.8354 13.975 45.8354 25.4813C45.8354 36.9875 36.5083 46.3146 25.0021 46.3146C21.3204 46.3206 17.7034 45.3462 14.5229 43.4917L4.17706 46.3146L6.99373 35.9646C5.13767 32.7831 4.16258 29.1646 4.16873 25.4813C4.16873 13.975 13.4958 4.64795 25.0021 4.64795ZM17.9021 15.6896L17.4854 15.7063C17.2156 15.7227 16.952 15.7936 16.7104 15.9146C16.4844 16.0426 16.2781 16.2026 16.0979 16.3896C15.8479 16.625 15.7062 16.8292 15.5541 17.0271C14.7836 18.029 14.3687 19.259 14.375 20.5229C14.3791 21.5438 14.6458 22.5375 15.0625 23.4667C15.9146 25.3459 17.3166 27.3354 19.1666 29.1792C19.6125 29.6229 20.05 30.0688 20.5208 30.4834C22.8195 32.5072 25.5588 33.9668 28.5208 34.7459L29.7041 34.9271C30.0896 34.9479 30.475 34.9188 30.8625 34.9C31.4692 34.8687 32.0617 34.7044 32.5979 34.4188C32.8707 34.2783 33.137 34.1253 33.3958 33.9604C33.3958 33.9604 33.4854 33.9021 33.6562 33.7729C33.9375 33.5646 34.1104 33.4167 34.3437 33.1729C34.5166 32.9938 34.6666 32.7834 34.7812 32.5438C34.9437 32.2042 35.1062 31.5563 35.1729 31.0167C35.2229 30.6042 35.2083 30.3792 35.2021 30.2396C35.1937 30.0167 35.0083 29.7854 34.8062 29.6875L33.5937 29.1438C33.5937 29.1438 31.7812 28.3542 30.6729 27.85C30.5569 27.7994 30.4326 27.7704 30.3062 27.7646C30.1637 27.75 30.0197 27.766 29.8838 27.8117C29.748 27.8573 29.6235 27.9315 29.5187 28.0292C29.5083 28.025 29.3687 28.1438 27.8625 29.9688C27.776 30.085 27.6569 30.1727 27.5204 30.221C27.3839 30.2692 27.2361 30.2757 27.0958 30.2396C26.9601 30.2032 26.8271 30.1573 26.6979 30.1021C26.4396 29.9938 26.35 29.9521 26.1729 29.8771C24.9772 29.3553 23.8702 28.6503 22.8916 27.7875C22.6291 27.5584 22.3854 27.3084 22.1354 27.0667C21.3158 26.2818 20.6015 25.3938 20.0104 24.425L19.8875 24.2271C19.7992 24.0941 19.7278 23.9507 19.675 23.8C19.5958 23.4938 19.8021 23.2479 19.8021 23.2479C19.8021 23.2479 20.3083 22.6938 20.5437 22.3938C20.7729 22.1021 20.9666 21.8188 21.0916 21.6167C21.3375 21.2209 21.4146 20.8146 21.2854 20.5C20.7021 19.075 20.0979 17.6563 19.4771 16.2479C19.3541 15.9688 18.9896 15.7688 18.6583 15.7292C18.5458 15.7167 18.4333 15.7042 18.3208 15.6959C18.041 15.682 17.7607 15.6847 17.4812 15.7042L17.9021 15.6896Z" fill="white"/>
</g>
</svg>
