<svg width="50" height="51" viewBox="0 0 50 51" fill="none" xmlns="http://www.w3.org/2000/svg">
<g id="Text input">
<path id="Vector" d="M20.1667 31.3148L30.9792 25.0648L20.1667 18.8148V31.3148ZM44.25 15.0023C44.5208 15.9814 44.7083 17.2939 44.8333 18.9606C44.9792 20.6273 45.0417 22.0648 45.0417 23.3148L45.1667 25.0648C45.1667 29.6273 44.8333 32.9814 44.25 35.1273C43.7292 37.0023 42.5208 38.2106 40.6458 38.7314C39.6667 39.0023 37.875 39.1898 35.125 39.3148C32.4167 39.4606 29.9375 39.5231 27.6458 39.5231L24.3333 39.6481C15.6042 39.6481 10.1667 39.3148 8.02083 38.7314C6.14583 38.2106 4.9375 37.0023 4.41667 35.1273C4.14583 34.1481 3.95833 32.8356 3.83333 31.1689C3.6875 29.5023 3.625 28.0648 3.625 26.8148L3.5 25.0648C3.5 20.5023 3.83333 17.1481 4.41667 15.0023C4.9375 13.1273 6.14583 11.9189 8.02083 11.3981C9 11.1273 10.7917 10.9398 13.5417 10.8148C16.25 10.6689 18.7292 10.6064 21.0208 10.6064L24.3333 10.4814C33.0625 10.4814 38.5 10.8148 40.6458 11.3981C42.5208 11.9189 43.7292 13.1273 44.25 15.0023Z" fill="white"/>
</g>
</svg>
