<svg width="490" height="373" viewBox="0 0 490 373" fill="none" xmlns="http://www.w3.org/2000/svg">
<rect x="1.74467" y="1.21549" width="201.399" height="72.9926" transform="matrix(0.984808 -0.173648 0.178305 0.983975 24.0282 40.5387)" fill="#1E5B9C"/>
<rect x="1.74467" y="1.21549" width="201.399" height="72.9926" transform="matrix(0.984808 -0.173648 0.178305 0.983975 24.0282 40.5387)" stroke="white" stroke-width="3" stroke-dasharray="10 10"/>
<path d="M62.2237 61.213L66.2398 60.5048L70.2907 82.8595L66.2745 83.5677L62.2237 61.213ZM64.1317 60.8765L72.995 59.3137L73.6943 63.1727L64.831 64.7356L64.1317 60.8765ZM79.0838 68.3784L84.6387 67.3989C85.0491 67.3265 85.3863 67.1719 85.6503 66.9349C85.9228 66.6859 86.1095 66.3727 86.2105 65.9953C86.3217 65.616 86.3356 65.1958 86.252 64.7345L86.0152 63.4277C85.9279 62.946 85.7706 62.5453 85.5433 62.2258C85.3142 61.896 85.029 61.666 84.6878 61.5357C84.355 61.3934 83.9783 61.3594 83.5577 61.4335L78.0028 62.413L77.3035 58.554L82.8585 57.5745C84.11 57.3538 85.241 57.403 86.2516 57.7219C87.2705 58.0288 88.1079 58.5898 88.7638 59.405C89.428 60.208 89.8697 61.2143 90.0889 62.4238L90.4288 64.2995C90.6461 65.4987 90.5833 66.5834 90.2404 67.5535C89.8974 68.5236 89.308 69.3309 88.472 69.9755C87.6342 70.6097 86.5895 71.0372 85.338 71.2579L79.7831 72.2374L79.0838 68.3784ZM75.457 58.8796L79.4732 58.1714L83.5241 80.5261L79.5079 81.2343L75.457 58.8796ZM96.2611 55.2113L98.9385 54.7392L109.945 75.8675L105.775 76.6027L98.9399 62.3704L97.5268 78.057L93.3721 78.7896L96.2611 55.2113ZM95.9027 70.7595L104.843 69.1831L105.534 72.996L96.5936 74.5724L95.9027 70.7595ZM119.899 71.6529C117.837 72.0165 116.015 72.0099 114.433 71.6331C112.851 71.2563 111.565 70.5258 110.575 69.4418C109.593 68.3456 108.944 66.9264 108.628 65.1839L108.269 63.2006C107.955 61.4684 108.067 59.9255 108.605 58.5719C109.151 57.2063 110.1 56.0764 111.452 55.1822C112.804 54.2881 114.511 53.6592 116.573 53.2957C118.645 52.9303 120.467 52.9369 122.039 53.3155C123.621 53.6923 124.908 54.4279 125.901 55.5222C126.891 56.6063 127.543 58.0144 127.857 59.7466L128.216 61.7299C128.532 63.4724 128.417 65.0264 127.87 66.3921C127.322 67.7474 126.372 68.8722 125.02 69.7664C123.678 70.6587 121.972 71.2876 119.899 71.6529ZM114.095 51.2734L118.188 50.5517L122.378 73.6751L118.285 74.3969L114.095 51.2734ZM119.22 67.9015C121.117 67.5669 122.511 66.9299 123.399 65.9905C124.296 65.0391 124.614 63.8459 124.354 62.411L123.995 60.4276C123.737 59.0029 123.021 58.0027 121.847 57.4269C120.682 56.839 119.15 56.7124 117.253 57.0471C115.355 57.3817 113.963 58.0238 113.076 58.9734C112.188 59.9128 111.873 61.0948 112.131 62.5195L112.49 64.5029C112.75 65.9378 113.463 66.9492 114.628 67.5371C115.791 68.1147 117.322 68.2362 119.22 67.9015ZM140.703 67.9846C138.642 68.3482 136.82 68.3416 135.237 67.9648C133.655 67.5879 132.369 66.8575 131.379 65.7734C130.397 64.6773 129.748 63.258 129.432 61.5156L129.073 59.5323C128.759 57.8001 128.871 56.2572 129.409 54.9036C129.955 53.538 130.905 52.4081 132.256 51.5139C133.608 50.6198 135.315 49.9909 137.377 49.6273C139.449 49.2619 141.271 49.2686 142.843 49.6472C144.425 50.024 145.712 50.7596 146.705 51.8539C147.695 52.9379 148.347 54.3461 148.661 56.0783L149.02 58.0616C149.336 59.8041 149.221 61.3581 148.674 62.7237C148.126 64.0791 147.176 65.2039 145.824 66.098C144.483 66.9904 142.776 67.6192 140.703 67.9846ZM134.899 47.6051L138.992 46.8834L143.182 70.0068L139.089 70.7285L134.899 47.6051ZM140.024 64.2332C141.921 63.8986 143.315 63.2616 144.203 62.3222C145.1 61.3708 145.418 60.1776 145.158 58.7426L144.799 56.7593C144.541 55.3346 143.825 54.3343 142.651 53.7586C141.486 53.1707 139.955 53.0441 138.057 53.3787C136.159 53.7134 134.767 54.3555 133.88 55.3051C132.992 56.2445 132.677 57.4265 132.935 58.8512L133.294 60.8346C133.554 62.2695 134.267 63.2809 135.432 63.8688C136.595 64.4464 138.126 64.5679 140.024 64.2332ZM163.937 66.3313L160.936 49.7728L161.368 50.1409L157.505 67.4654L153.458 68.179L149.41 45.8397L153.164 45.1777L156.198 61.9206L155.751 61.5552L159.612 44.0408L163.643 43.3299L167.692 65.6692L163.937 66.3313ZM171.625 43.8264L175.642 43.1182L179.358 63.628L175.342 64.3361L171.625 43.8264ZM166.398 42.8443L180.201 40.4105L180.9 44.2695L167.097 46.7033L166.398 42.8443ZM196.866 60.5249L193.866 43.9665L194.298 44.3345L190.434 61.6591L186.388 62.3726L182.339 40.0333L186.094 39.3713L189.128 56.1142L188.681 55.7489L192.541 38.2344L196.573 37.5236L200.621 59.8629L196.866 60.5249Z" fill="white"/>
<rect x="1.44542" y="1.55139" width="253.224" height="72.9998" transform="matrix(0.999391 0.0348995 -0.0357759 0.99936 180.457 114.294)" fill="#1E5B9C"/>
<rect x="1.44542" y="1.55139" width="253.224" height="72.9998" transform="matrix(0.999391 0.0348995 -0.0357759 0.99936 180.457 114.294)" stroke="white" stroke-width="3" stroke-dasharray="10 10"/>
<path d="M218.644 153.264L222.978 143.128L227.429 143.284L221.591 156.119L218.644 153.264ZM218.511 155.667L222.172 153.857L227.569 166.021L222.853 165.856L218.511 155.667ZM212.969 142.779L217.045 142.921L216.232 165.625L212.156 165.483L212.969 142.779ZM214.41 152.304L221.437 152.549L221.297 156.468L214.27 156.223L214.41 152.304ZM235.58 143.568L238.297 143.663L244.543 166.614L240.311 166.466L236.67 151.127L231.941 166.174L227.725 166.027L235.58 143.568ZM231.911 158.699L240.984 159.016L240.845 162.889L231.773 162.572L231.911 158.699ZM246.775 162.783C247.306 162.802 247.758 162.692 248.131 162.455C248.515 162.219 248.809 161.859 249.014 161.376C249.219 160.893 249.334 160.298 249.36 159.59L249.915 144.069L253.991 144.211L253.424 160.045C253.371 161.533 253.086 162.78 252.571 163.783C252.066 164.787 251.335 165.538 250.38 166.036C249.434 166.524 248.285 166.745 246.932 166.697L246.635 166.687L246.775 162.783ZM258.613 144.373L262.689 144.515L261.876 167.219L257.8 167.077L258.613 144.373ZM252.367 144.155L260.518 144.439L260.378 148.359L252.226 148.074L252.367 144.155ZM265.139 163.424C265.67 163.443 266.122 163.334 266.495 163.097C266.879 162.86 267.173 162.5 267.378 162.017C267.583 161.535 267.698 160.939 267.723 160.231L268.279 144.71L272.355 144.853L271.788 160.686C271.734 162.175 271.45 163.421 270.935 164.424C270.43 165.428 269.699 166.179 268.743 166.677C267.798 167.165 266.649 167.386 265.296 167.339L264.999 167.328L265.139 163.424ZM276.977 145.014L281.052 145.156L280.24 167.86L276.164 167.718L276.977 145.014ZM270.731 144.796L278.882 145.08L278.742 149L270.59 148.715L270.731 144.796ZM294.778 168.353L295.38 151.535L295.724 151.985L288.251 168.125L284.144 167.981L284.956 145.293L288.766 145.426L288.158 162.43L287.799 161.98L295.309 145.654L299.401 145.797L298.588 168.486L294.778 168.353ZM303.289 145.933L307.365 146.075L306.552 168.779L302.476 168.637L303.289 145.933ZM305.225 146L314.22 146.314L314.079 150.234L305.085 149.92L305.225 146ZM318.235 156.445L323.872 156.642C324.288 156.657 324.651 156.575 324.96 156.399C325.279 156.212 325.528 155.944 325.708 155.596C325.897 155.248 326 154.84 326.017 154.372L326.065 153.044C326.082 152.555 326.014 152.131 325.86 151.771C325.707 151.401 325.477 151.117 325.171 150.918C324.877 150.71 324.516 150.598 324.089 150.583L318.452 150.387L318.592 146.467L324.229 146.664C325.499 146.708 326.594 146.992 327.513 147.514C328.444 148.025 329.142 148.748 329.609 149.682C330.087 150.605 330.304 151.681 330.26 152.91L330.191 154.815C330.148 156.033 329.855 157.08 329.313 157.958C328.771 158.835 328.022 159.502 327.068 159.959C326.114 160.405 325.002 160.606 323.732 160.561L318.095 160.365L318.235 156.445ZM316.718 146.402L320.794 146.544L319.981 169.248L315.905 169.106L316.718 146.402ZM337.83 147.139L340.547 147.234L346.793 170.185L342.561 170.037L338.92 154.697L334.191 169.744L329.975 169.597L337.83 147.139ZM334.162 162.27L343.234 162.587L343.096 166.459L334.023 166.143L334.162 162.27ZM357.42 168.132C355.327 168.059 353.548 167.674 352.083 166.977C350.617 166.279 349.516 165.297 348.78 164.031C348.054 162.755 347.723 161.232 347.786 159.463L347.859 157.448C347.922 155.689 348.36 154.203 349.175 152.992C350.001 151.77 351.169 150.862 352.681 150.269C354.193 149.675 355.995 149.415 358.087 149.488C360.19 149.561 361.969 149.947 363.424 150.644C364.89 151.341 365.991 152.328 366.727 153.605C367.463 154.871 367.8 156.383 367.737 158.143L367.665 160.157C367.602 161.927 367.157 163.422 366.332 164.644C365.507 165.856 364.338 166.758 362.826 167.352C361.325 167.946 359.523 168.206 357.42 168.132ZM356.097 146.995L360.251 147.14L359.41 170.625L355.256 170.48L356.097 146.995ZM357.556 164.322C359.482 164.389 360.979 164.056 362.048 163.322C363.127 162.578 363.693 161.477 363.745 160.02L363.818 158.006C363.869 156.559 363.383 155.432 362.359 154.625C361.346 153.807 359.877 153.365 357.951 153.298C356.025 153.231 354.528 153.569 353.459 154.314C352.39 155.048 351.83 156.138 351.778 157.585L351.706 159.6C351.654 161.057 352.134 162.194 353.147 163.011C354.161 163.818 355.63 164.255 357.556 164.322ZM380.476 171.345L381.078 154.528L381.422 154.978L373.949 171.117L369.842 170.974L370.654 148.285L374.464 148.418L373.855 165.423L373.496 164.973L381.007 148.647L385.098 148.79L384.286 171.478L380.476 171.345ZM393.89 163.074C392.63 163.03 391.546 162.742 390.637 162.21C389.729 161.667 389.037 160.919 388.56 159.964C388.094 158.999 387.884 157.882 387.93 156.612L387.988 154.972C388.033 153.734 388.321 152.665 388.854 151.766C389.387 150.857 390.125 150.174 391.069 149.717C392.023 149.261 393.13 149.054 394.39 149.098L399.762 149.286L399.622 153.205L394.781 153.036C394.26 153.018 393.803 153.112 393.41 153.317C393.028 153.522 392.725 153.83 392.502 154.239C392.289 154.648 392.173 155.134 392.153 155.696L392.13 156.336C392.11 156.899 392.196 157.392 392.39 157.815C392.583 158.239 392.863 158.567 393.23 158.798C393.597 159.03 394.041 159.155 394.561 159.173L399.402 159.342L399.262 163.261L393.89 163.074ZM392.355 161.832L396.296 162.689L391.89 171.759L387.315 171.6L392.355 161.832ZM397.794 149.217L401.886 149.36L401.072 172.08L396.981 171.937L397.794 149.217Z" fill="white"/>
<rect x="1.44542" y="1.55139" width="181.441" height="72.9998" transform="matrix(0.999391 0.0348995 -0.0357759 0.99936 290.941 0.40172)" fill="#1E5B9C"/>
<rect x="1.44542" y="1.55139" width="181.441" height="72.9998" transform="matrix(0.999391 0.0348995 -0.0357759 0.99936 290.941 0.40172)" stroke="white" stroke-width="3" stroke-dasharray="10 10"/>
<path d="M333.244 29.2281L337.32 29.3705L336.507 52.0747L332.431 51.9323L333.244 29.2281ZM323.562 28.89L327.638 29.0324L326.825 51.7366L322.75 51.5942L323.562 28.89ZM325.561 28.9598L335.805 29.3176L335.665 33.2213L325.421 32.8636L325.561 28.9598ZM347.195 52.6824C345.769 52.6326 344.535 52.3133 343.493 51.7245C342.451 51.1253 341.662 50.3004 341.126 49.2498C340.591 48.1992 340.348 46.9764 340.398 45.5815L340.737 36.1188C340.786 34.7239 341.116 33.5211 341.726 32.5105C342.335 31.4895 343.181 30.7217 344.263 30.207C345.344 29.6924 346.598 29.46 348.025 29.5098C349.461 29.5599 350.701 29.8794 351.743 30.4682C352.785 31.057 353.573 31.8819 354.109 32.9429C354.644 33.9935 354.887 35.2163 354.837 36.6112L354.499 46.0739C354.449 47.4689 354.119 48.6716 353.509 49.6822C352.9 50.6928 352.054 51.4606 350.972 51.9857C349.891 52.5003 348.632 52.7326 347.195 52.6824ZM347.341 48.6069C347.924 48.6273 348.438 48.5254 348.884 48.3012C349.33 48.0666 349.676 47.7295 349.921 47.2899C350.166 46.8503 350.299 46.3286 350.321 45.7248L350.646 36.6368C350.667 36.0435 350.572 35.519 350.359 35.0634C350.146 34.6077 349.825 34.2526 349.396 33.9979C348.968 33.7328 348.462 33.59 347.879 33.5697C347.296 33.5493 346.782 33.6564 346.335 33.891C345.9 34.1155 345.56 34.4476 345.315 34.8872C345.07 35.3269 344.937 35.8434 344.915 36.4367L344.59 45.5247C344.568 46.1284 344.664 46.6581 344.877 47.1138C345.09 47.5694 345.406 47.9296 345.823 48.1943C346.252 48.449 346.758 48.5865 347.341 48.6069ZM363.872 53.2648C362.436 53.2146 361.217 52.8959 360.217 52.3085C359.217 51.7108 358.465 50.8715 357.962 49.7908C357.458 48.7101 357.234 47.415 357.288 45.9055L357.607 36.9894C357.661 35.4799 357.978 34.2037 358.557 33.1608C359.137 32.1075 359.946 31.3228 360.986 30.8067C362.027 30.2802 363.265 30.042 364.702 30.0922C366.118 30.1416 367.3 30.4643 368.248 31.0602C369.196 31.6562 369.915 32.536 370.405 33.6996C370.905 34.8532 371.176 36.3063 371.218 38.0588L367.033 37.9126C367 37.0881 366.884 36.4065 366.684 35.868C366.495 35.3298 366.223 34.9242 365.868 34.6512C365.513 34.3679 365.075 34.2171 364.555 34.1989C364.003 34.1796 363.525 34.2828 363.121 34.5084C362.717 34.7236 362.403 35.0566 362.178 35.5074C361.954 35.9477 361.831 36.4906 361.807 37.136L361.488 46.0522C361.465 46.6976 361.55 47.2478 361.742 47.7027C361.934 48.1576 362.224 48.5117 362.611 48.7649C362.998 49.0077 363.468 49.1388 364.019 49.1581C364.54 49.1762 364.987 49.0616 365.361 48.814C365.745 48.5669 366.05 48.1815 366.278 47.6578C366.516 47.1241 366.675 46.447 366.757 45.6264L370.942 45.7726C370.765 47.5175 370.39 48.9532 369.818 50.0798C369.247 51.1959 368.467 52.0181 367.478 52.5465C366.49 53.0748 365.288 53.3142 363.872 53.2648ZM377.244 32.6408L381.319 32.7831L380.574 53.6135L376.498 53.4712L377.244 32.6408ZM372.345 30.5936L386.352 31.0827L386.212 35.0021L372.205 34.5129L372.345 30.5936ZM388.523 31.1585L392.598 31.3008L391.786 54.005L387.71 53.8627L388.523 31.1585ZM389.475 49.9688L400.5 50.3538L400.358 54.3044L389.334 53.9194L389.475 49.9688ZM389.809 40.6623L399.584 41.0037L399.442 44.9543L389.667 44.6129L389.809 40.6623ZM390.147 31.2152L401.171 31.6002L401.03 35.5508L390.005 35.1658L390.147 31.2152ZM405.655 41.7472L411.292 41.9441C411.708 41.9586 412.071 41.8775 412.38 41.7006C412.699 41.5138 412.948 41.2463 413.128 40.8981C413.317 40.5504 413.42 40.1423 413.437 39.6738L413.485 38.3465C413.502 37.8573 413.434 37.4328 413.28 37.073C413.127 36.7028 412.897 36.4186 412.591 36.2203C412.297 36.012 411.936 35.9004 411.509 35.8855L405.872 35.6886L406.012 31.7693L411.649 31.9661C412.919 32.0105 414.014 32.2936 414.933 32.8156C415.864 33.3276 416.562 34.0503 417.029 34.9838C417.507 35.9073 417.724 36.9832 417.68 38.2116L417.611 40.1166C417.568 41.3346 417.275 42.3823 416.733 43.2598C416.191 44.1372 415.442 44.8042 414.488 45.2608C413.534 45.7069 412.422 45.9078 411.152 45.8635L405.515 45.6666L405.655 41.7472ZM404.138 31.7038L408.214 31.8461L407.401 54.5503L403.325 54.408L404.138 31.7038ZM422.548 51.155L427.139 51.3153C427.597 51.3313 427.996 51.241 428.337 51.0445C428.688 50.8379 428.964 50.5452 429.166 50.1666C429.367 49.7776 429.477 49.3228 429.496 48.8023L429.528 47.8966C429.548 47.3553 429.471 46.8836 429.297 46.4815C429.135 46.0693 428.886 45.7531 428.55 45.5329C428.214 45.3023 427.817 45.179 427.359 45.163L422.768 45.0027L422.908 41.0833L427.796 41.254C429.045 41.2977 430.119 41.5853 431.017 42.117C431.915 42.6486 432.598 43.3864 433.064 44.3304C433.531 45.2639 433.742 46.3553 433.698 47.6045L433.633 49.4002C433.589 50.6286 433.301 51.6921 432.769 52.5907C432.236 53.4893 431.498 54.1671 430.554 54.624C429.62 55.0813 428.534 55.2883 427.295 55.2451L422.408 55.0744L422.548 51.155ZM421.253 32.3015L425.328 32.4438L424.516 55.148L420.44 55.0057L421.253 32.3015ZM439.241 55.6622L435.087 55.5172L435.9 32.813L440.054 32.958L439.241 55.6622Z" fill="white"/>
<rect x="1.70004" y="1.2758" width="166.497" height="72.9948" transform="matrix(0.990268 -0.139173 0.143092 0.989709 -0.133603 229.725)" fill="#1E5B9C"/>
<rect x="1.70004" y="1.2758" width="166.497" height="72.9948" transform="matrix(0.990268 -0.139173 0.143092 0.989709 -0.133603 229.725)" stroke="white" stroke-width="3" stroke-dasharray="10 10"/>
<path d="M40.1772 253.273L44.2156 252.706L47.1982 273.335L43.1598 273.902L40.1772 253.273ZM34.9885 252.109L48.8677 250.158L49.4289 254.04L35.5497 255.99L34.9885 252.109ZM59.7184 271.812C58.3155 272.009 57.0942 271.897 56.0544 271.475C55.0145 271.053 54.1452 270.318 53.4463 269.269C52.7563 268.209 52.2293 266.821 51.8655 265.105L56.0122 264.522C56.1919 265.328 56.4236 265.985 56.7074 266.492C57 266.987 57.3455 267.338 57.7438 267.545C58.1524 267.751 58.6146 267.817 59.1304 267.745C59.6771 267.668 60.13 267.489 60.4892 267.207C60.8469 266.914 61.0969 266.532 61.2391 266.06C61.3813 265.588 61.4062 265.032 61.3138 264.393L60.0371 255.563C59.9447 254.923 59.7633 254.397 59.4929 253.982C59.221 253.558 58.8727 253.26 58.4479 253.088C58.0217 252.906 57.5352 252.853 56.9885 252.93C56.4727 253.003 56.0485 253.199 55.7159 253.519C55.3921 253.828 55.16 254.26 55.0194 254.816C54.8891 255.371 54.8519 256.06 54.9077 256.883L50.761 257.466C50.6137 255.719 50.7219 254.247 51.0855 253.05C51.4579 251.84 52.0836 250.89 52.9624 250.198C53.8515 249.505 54.9976 249.06 56.4004 248.863C57.8136 248.664 59.0659 248.772 60.1573 249.187C61.2575 249.59 62.1474 250.285 62.827 251.273C63.5155 252.249 63.9678 253.485 64.1839 254.98L65.4605 263.81C65.6767 265.305 65.5925 266.616 65.2082 267.743C64.8341 268.868 64.1819 269.78 63.2515 270.479C62.3196 271.168 61.1419 271.612 59.7184 271.812ZM54.7629 258.939L62.5458 257.845L63.0958 261.649L55.3129 262.743L54.7629 258.939ZM66.5223 247.677L70.5608 247.11L73.8116 269.595L69.7732 270.162L66.5223 247.677ZM68.441 247.407L77.3534 246.155L77.9146 250.036L69.0022 251.289L68.441 247.407ZM79.8291 245.807L83.8675 245.239L87.1184 267.724L83.0799 268.292L79.8291 245.807ZM81.7477 245.537L90.6601 244.285L91.2213 248.166L82.3089 249.419L81.7477 245.537ZM106.921 264.925L104.514 248.271L104.932 248.653L100.454 265.834L96.3844 266.406L93.1358 243.937L96.9112 243.406L99.346 260.247L98.912 259.866L103.394 242.495L107.448 241.925L110.697 264.395L106.921 264.925ZM120.894 240.036L124.933 239.468L128.184 261.953L124.145 262.521L120.894 240.036ZM111.301 241.384L115.339 240.816L118.59 263.301L114.552 263.869L111.301 241.384ZM114.555 250.567L124.875 249.117L125.43 252.952L115.109 254.402L114.555 250.567ZM128.785 238.927L132.824 238.359L136.075 260.844L132.036 261.412L128.785 238.927ZM130.704 238.657L139.616 237.404L140.178 241.286L131.265 242.538L130.704 238.657Z" fill="white"/>
<rect x="1.44542" y="1.55139" width="266.185" height="72.9998" transform="matrix(0.999391 0.0348995 -0.0357759 0.99936 221.003 287.275)" fill="#1E5B9C"/>
<rect x="1.44542" y="1.55139" width="266.185" height="72.9998" transform="matrix(0.999391 0.0348995 -0.0357759 0.99936 221.003 287.275)" stroke="white" stroke-width="3" stroke-dasharray="10 10"/>
<path d="M263.177 316.097L267.253 316.239L266.44 338.943L262.365 338.801L263.177 316.097ZM253.496 315.759L257.571 315.901L256.759 338.605L252.683 338.463L253.496 315.759ZM255.495 315.828L265.738 316.186L265.599 320.09L255.355 319.732L255.495 315.828ZM276.232 316.553L278.949 316.647L285.194 339.598L280.963 339.45L277.322 324.111L272.593 339.158L268.377 339.011L276.232 316.553ZM272.563 331.684L281.636 332.001L281.497 335.873L272.425 335.556L272.563 331.684ZM289.628 335.86L294.953 336.046C295.682 336.071 296.25 335.909 296.659 335.558C297.078 335.208 297.299 334.705 297.323 334.049L297.378 332.503C297.395 332.035 297.315 331.631 297.14 331.291C296.975 330.941 296.719 330.672 296.372 330.483C296.034 330.294 295.621 330.191 295.132 330.174L289.838 329.989L289.976 326.132L295.223 326.315C295.889 326.338 296.411 326.174 296.788 325.822C297.177 325.461 297.383 324.942 297.407 324.265L297.451 323.047C297.472 322.454 297.301 321.989 296.938 321.653C296.585 321.307 296.076 321.123 295.41 321.1L290.163 320.916L290.302 317.044L295.814 317.236C297.063 317.28 298.122 317.531 298.992 317.988C299.862 318.436 300.512 319.073 300.94 319.901C301.369 320.729 301.563 321.716 301.522 322.861L301.479 324.079C301.451 324.86 301.275 325.547 300.952 326.14C300.628 326.733 300.168 327.217 299.571 327.593C298.974 327.957 298.267 328.193 297.45 328.3C298.321 328.445 299.061 328.737 299.67 329.175C300.28 329.603 300.735 330.15 301.034 330.817C301.344 331.485 301.483 332.256 301.452 333.13L301.396 334.692C301.355 335.847 301.09 336.828 300.603 337.635C300.116 338.431 299.422 339.027 298.522 339.422C297.622 339.818 296.552 339.995 295.313 339.951L289.489 339.748L289.628 335.86ZM288.256 316.972L292.332 317.115L291.519 339.819L287.443 339.677L288.256 316.972ZM305.308 317.568L309.384 317.71L308.571 340.414L304.495 340.272L305.308 317.568ZM306.261 336.378L317.285 336.763L317.144 340.714L306.119 340.329L306.261 336.378ZM306.594 327.072L316.369 327.413L316.228 331.364L306.452 331.022L306.594 327.072ZM306.932 317.625L317.957 318.01L317.815 321.96L306.791 321.575L306.932 317.625ZM322.44 328.157L328.077 328.353C328.494 328.368 328.856 328.287 329.165 328.11C329.484 327.923 329.734 327.656 329.913 327.308C330.102 326.96 330.206 326.552 330.222 326.083L330.27 324.756C330.287 324.267 330.219 323.842 330.065 323.482C329.912 323.112 329.682 322.828 329.377 322.63C329.082 322.421 328.721 322.31 328.294 322.295L322.657 322.098L322.797 318.179L328.435 318.375C329.705 318.42 330.799 318.703 331.719 319.225C332.649 319.737 333.347 320.46 333.814 321.393C334.292 322.317 334.509 323.393 334.465 324.621L334.397 326.526C334.353 327.744 334.06 328.792 333.518 329.669C332.976 330.547 332.228 331.214 331.273 331.67C330.319 332.116 329.207 332.317 327.937 332.273L322.3 332.076L322.44 328.157ZM320.923 318.113L324.999 318.256L324.186 340.96L320.111 340.817L320.923 318.113ZM339.333 337.564L344.705 337.752C345.163 337.768 345.562 337.678 345.903 337.481C346.254 337.275 346.53 336.982 346.732 336.603C346.933 336.214 347.043 335.759 347.062 335.239L347.094 334.333C347.114 333.792 347.037 333.32 346.864 332.918C346.701 332.506 346.452 332.19 346.116 331.97C345.78 331.739 345.383 331.616 344.925 331.6L339.553 331.412L339.694 327.493L345.362 327.691C346.611 327.734 347.685 328.022 348.583 328.554C349.482 329.085 350.164 329.823 350.63 330.767C351.097 331.701 351.308 332.792 351.264 334.041L351.199 335.837C351.155 337.065 350.867 338.129 350.335 339.027C349.802 339.926 349.064 340.604 348.12 341.061C347.186 341.518 346.1 341.725 344.861 341.682L339.193 341.484L339.333 337.564ZM338.038 318.711L342.114 318.853L341.301 341.557L337.225 341.415L338.038 318.711ZM339.974 318.778L350.452 319.144L350.312 323.064L339.834 322.698L339.974 318.778ZM360.578 342.465C359.151 342.415 357.917 342.096 356.875 341.507C355.833 340.908 355.045 340.083 354.509 339.032C353.973 337.982 353.731 336.759 353.78 335.364L354.119 325.901C354.169 324.507 354.499 323.304 355.108 322.293C355.718 321.272 356.564 320.504 357.645 319.99C358.727 319.475 359.981 319.243 361.407 319.292C362.844 319.343 364.083 319.662 365.125 320.251C366.167 320.84 366.956 321.665 367.491 322.726C368.027 323.776 368.27 324.999 368.22 326.394L367.881 335.857C367.831 337.251 367.502 338.454 366.892 339.465C366.283 340.475 365.437 341.243 364.355 341.768C363.273 342.283 362.014 342.515 360.578 342.465ZM360.724 338.39C361.307 338.41 361.821 338.308 362.267 338.084C362.713 337.849 363.059 337.512 363.304 337.073C363.549 336.633 363.682 336.111 363.704 335.507L364.029 326.419C364.05 325.826 363.954 325.302 363.741 324.846C363.528 324.39 363.207 324.035 362.779 323.781C362.35 323.515 361.845 323.373 361.262 323.352C360.679 323.332 360.164 323.439 359.718 323.674C359.283 323.898 358.943 324.23 358.697 324.67C358.452 325.109 358.319 325.626 358.298 326.219L357.973 335.307C357.951 335.911 358.047 336.441 358.26 336.896C358.473 337.352 358.788 337.712 359.206 337.977C359.635 338.232 360.141 338.369 360.724 338.39ZM384.603 320.337L389.241 320.499L388.428 343.203L384.759 343.075L385.358 326.336L385.51 327.342L381.253 339.669L378.396 339.57L375.005 327.287L375.286 325.984L374.687 342.723L370.986 342.594L371.799 319.89L376.468 320.053L380.017 334.013L384.603 320.337ZM394.425 339.488L399.796 339.676C400.254 339.692 400.654 339.602 400.994 339.405C401.346 339.198 401.622 338.906 401.823 338.527C402.025 338.138 402.135 337.683 402.153 337.163L402.186 336.257C402.205 335.716 402.128 335.244 401.955 334.842C401.793 334.43 401.543 334.114 401.207 333.893C400.871 333.663 400.475 333.54 400.017 333.524L394.645 333.336L394.785 329.417L400.454 329.615C401.703 329.658 402.776 329.946 403.675 330.477C404.573 331.009 405.255 331.747 405.722 332.691C406.189 333.624 406.4 334.716 406.355 335.965L406.291 337.761C406.247 338.989 405.959 340.053 405.426 340.951C404.894 341.85 404.155 342.528 403.211 342.985C402.278 343.442 401.191 343.649 399.953 343.606L394.284 343.408L394.425 339.488ZM393.129 320.635L397.205 320.777L396.392 343.481L392.317 343.339L393.129 320.635ZM395.066 320.702L405.544 321.068L405.403 324.988L394.925 324.622L395.066 320.702ZM419.972 344.289L420.574 327.472L420.918 327.921L413.445 344.061L409.338 343.918L410.15 321.229L413.961 321.362L413.352 338.367L412.993 337.917L420.503 321.591L424.595 321.733L423.782 344.422L419.972 344.289ZM438.165 322.207L442.24 322.35L441.427 345.054L437.352 344.912L438.165 322.207ZM428.483 321.869L432.559 322.012L431.746 344.716L427.67 344.573L428.483 321.869ZM430.046 331.477L440.462 331.84L440.323 335.713L429.908 335.349L430.046 331.477ZM446.128 322.485L450.204 322.628L449.391 345.332L445.316 345.19L446.128 322.485ZM448.065 322.553L457.059 322.867L456.919 326.787L447.924 326.472L448.065 322.553Z" fill="white"/>
</svg>
