<svg width="592" height="371" viewBox="0 0 592 371" fill="none" xmlns="http://www.w3.org/2000/svg">
<rect x="1.8148" y="1.25462" width="179.76" height="73" transform="matrix(0.990268 -0.139173 0.219601 0.97559 29.6938 31.4321)" fill="#1E5B9C"/>
<rect x="1.8148" y="1.25462" width="179.76" height="73" transform="matrix(0.990268 -0.139173 0.219601 0.97559 29.6938 31.4321)" stroke="white" stroke-width="3" stroke-dasharray="10 10"/>
<path d="M79.2177 65.3323L78.3775 64.2238L69.6014 53.0338L73.9184 52.4271L79.5467 60.128L80.5981 61.5371L89.7694 73.0647L85.437 73.6736L79.2177 65.3323ZM78.1882 61.0423L80.1076 51.5573L84.44 50.9484L80.9527 64.3179L78.7218 74.6174L74.4048 75.2241L78.1882 61.0423ZM102.454 71.2663L98.7584 54.849L99.2103 55.2258L95.9861 72.1753L91.9168 72.7472L86.9311 50.5983L90.7065 50.0677L94.4432 66.6679L93.9757 66.2933L97.1897 49.1565L101.244 48.5868L106.229 70.7357L102.454 71.2663ZM114.69 46.6971L118.728 46.1295L123.717 68.2937L119.679 68.8613L114.69 46.6971ZM105.096 48.0453L109.135 47.4777L114.124 69.6419L110.085 70.2095L105.096 48.0453ZM107.077 47.767L117.227 46.3404L118.085 50.1513L107.935 51.5779L107.077 47.767ZM134.253 53.619L135.115 57.4451L125.475 58.7999L124.614 54.9737L134.253 53.619ZM143.647 56.2774L142.807 55.1689L134.031 43.9789L138.348 43.3721L143.976 51.0731L145.027 52.4822L154.199 64.0098L149.866 64.6186L143.647 56.2774ZM142.617 51.9874L144.537 42.5023L148.869 41.8934L145.382 55.263L143.151 65.5624L138.834 66.1691L142.617 51.9874ZM161.909 63.162C160.496 63.3606 159.203 63.2646 158.029 62.8738C156.854 62.4729 155.869 61.8093 155.075 60.883C154.281 59.9566 153.731 58.8126 153.425 57.4508L151.345 48.2132C151.039 46.8514 151.056 45.6276 151.397 44.5418C151.735 43.4459 152.37 42.5546 153.301 41.8682C154.232 41.1817 155.404 40.7391 156.817 40.5405C158.241 40.3405 159.539 40.4358 160.713 40.8265C161.886 41.2173 162.871 41.8809 163.667 42.8174C164.461 43.7437 165.011 44.8878 165.317 46.2495L167.397 55.4872C167.703 56.8489 167.686 58.0727 167.345 59.1585C167.004 60.2443 166.37 61.1356 165.441 61.8322C164.51 62.5187 163.333 62.9619 161.909 63.162ZM161.014 59.1834C161.591 59.1022 162.071 58.9143 162.451 58.6197C162.83 58.3149 163.083 57.9281 163.212 57.4592C163.34 56.9903 163.338 56.4612 163.205 55.8718L161.208 47C161.078 46.4208 160.85 45.9286 160.525 45.5235C160.2 45.1184 159.794 44.8294 159.308 44.6566C158.82 44.4736 158.287 44.4227 157.709 44.5039C157.132 44.585 156.654 44.778 156.275 45.0828C155.905 45.376 155.656 45.757 155.527 46.2259C155.399 46.6948 155.399 47.2188 155.53 47.7981L157.527 56.6698C157.66 57.2593 157.889 57.7565 158.214 58.1616C158.539 58.5667 158.941 58.8615 159.419 59.0459C159.904 59.2188 160.436 59.2646 161.014 59.1834ZM176.767 37.9727L180.805 37.4051L185.795 59.5693L181.756 60.1368L176.767 37.9727ZM167.174 39.3209L171.212 38.7533L176.201 60.9175L172.163 61.4851L167.174 39.3209ZM169.154 39.0426L179.305 37.616L180.162 41.4269L170.012 42.8535L169.154 39.0426Z" fill="white"/>
<rect x="1.4147" y="1.54998" width="164.508" height="73" transform="matrix(0.999391 0.034903 -0.0562586 0.998416 241.302 114.617)" fill="#1E5B9C"/>
<rect x="1.4147" y="1.54998" width="164.508" height="73" transform="matrix(0.999391 0.034903 -0.0562586 0.998416 241.302 114.617)" stroke="white" stroke-width="3" stroke-dasharray="10 10"/>
<path d="M277.883 145.112L281.958 145.254L280.786 166.065L276.71 165.923L277.883 145.112ZM273.022 143.067L287.029 143.556L286.809 147.471L272.802 146.982L273.022 143.067ZM294.092 166.764C292.666 166.715 291.438 166.395 290.407 165.807C289.377 165.208 288.604 164.384 288.09 163.335C287.575 162.285 287.357 161.063 287.436 159.67L287.968 150.216C288.047 148.822 288.401 147.621 289.032 146.611C289.663 145.591 290.525 144.824 291.618 144.31C292.711 143.796 293.971 143.564 295.397 143.614C296.833 143.664 298.067 143.983 299.098 144.571C300.129 145.16 300.901 145.984 301.415 147.044C301.93 148.093 302.148 149.315 302.069 150.709L301.536 160.162C301.458 161.556 301.103 162.758 300.473 163.767C299.842 164.777 298.98 165.544 297.887 166.068C296.794 166.583 295.529 166.814 294.092 166.764ZM294.322 162.693C294.905 162.713 295.422 162.611 295.872 162.387C296.324 162.153 296.676 161.816 296.931 161.377C297.185 160.938 297.329 160.417 297.363 159.813L297.875 150.734C297.908 150.141 297.823 149.617 297.619 149.162C297.415 148.707 297.101 148.352 296.678 148.097C296.254 147.833 295.751 147.69 295.168 147.67C294.585 147.649 294.068 147.756 293.617 147.991C293.177 148.215 292.829 148.547 292.575 148.986C292.321 149.425 292.177 149.941 292.144 150.534L291.632 159.613C291.598 160.216 291.683 160.746 291.887 161.201C292.091 161.656 292.399 162.016 292.812 162.28C293.235 162.535 293.739 162.672 294.322 162.693ZM315.465 144.549L319.541 144.691L318.263 167.374L314.187 167.232L315.465 144.549ZM305.784 144.211L309.859 144.353L308.581 167.036L304.505 166.894L305.784 144.211ZM307.782 144.281L318.026 144.638L317.806 148.538L307.563 148.181L307.782 144.281ZM324.741 154.861L330.378 155.058C330.795 155.072 331.159 154.991 331.472 154.815C331.795 154.628 332.05 154.361 332.237 154.013C332.434 153.666 332.545 153.258 332.572 152.79L332.646 151.464C332.674 150.975 332.614 150.551 332.468 150.191C332.322 149.822 332.098 149.538 331.796 149.34C331.505 149.131 331.146 149.02 330.719 149.005L325.082 148.808L325.303 144.892L330.94 145.089C332.21 145.134 333.3 145.417 334.209 145.938C335.13 146.45 335.814 147.172 336.262 148.104C336.721 149.027 336.916 150.102 336.847 151.329L336.74 153.232C336.671 154.449 336.357 155.496 335.796 156.373C335.236 157.249 334.473 157.915 333.509 158.372C332.545 158.817 331.428 159.018 330.158 158.974L324.521 158.777L324.741 154.861ZM323.429 144.827L327.505 144.969L326.227 167.652L322.151 167.51L323.429 144.827ZM345.592 168.563C344.166 168.513 342.937 168.194 341.907 167.606C340.876 167.007 340.104 166.183 339.59 165.133C339.075 164.084 338.857 162.862 338.936 161.468L339.468 152.015C339.547 150.621 339.901 149.419 340.532 148.41C341.163 147.39 342.025 146.623 343.118 146.109C344.211 145.594 345.47 145.362 346.897 145.412C348.333 145.462 349.567 145.782 350.598 146.37C351.629 146.958 352.401 147.782 352.915 148.842C353.43 149.892 353.648 151.114 353.569 152.507L353.036 161.961C352.958 163.355 352.603 164.556 351.973 165.566C351.342 166.575 350.48 167.342 349.387 167.867C348.294 168.381 347.029 168.613 345.592 168.563ZM345.822 164.491C346.405 164.512 346.921 164.41 347.372 164.186C347.823 163.952 348.176 163.615 348.43 163.176C348.685 162.736 348.829 162.215 348.863 161.612L349.374 152.533C349.408 151.94 349.323 151.416 349.119 150.961C348.915 150.505 348.601 150.151 348.177 149.896C347.754 149.631 347.251 149.489 346.668 149.468C346.085 149.448 345.568 149.555 345.117 149.789C344.676 150.013 344.329 150.345 344.075 150.784C343.821 151.224 343.677 151.74 343.644 152.332L343.132 161.412C343.098 162.015 343.183 162.544 343.387 162.999C343.59 163.455 343.899 163.814 344.312 164.079C344.735 164.333 345.239 164.471 345.822 164.491ZM362.748 156.485L367.293 146.359L371.743 146.514L365.639 159.337L362.748 156.485ZM362.566 158.886L366.267 157.077L371.418 169.23L366.702 169.066L362.566 158.886ZM357.283 146.009L361.359 146.152L360.081 168.834L356.005 168.692L357.283 146.009ZM358.531 155.525L365.558 155.771L365.337 159.686L358.31 159.441L358.531 155.525Z" fill="white"/>
<rect x="1.4147" y="1.54998" width="200.257" height="73" transform="matrix(0.999391 0.0349045 -0.0562601 0.998416 388.955 0.404248)" fill="#1E5B9C"/>
<rect x="1.4147" y="1.54998" width="200.257" height="73" transform="matrix(0.999391 0.0349045 -0.0562601 0.998416 388.955 0.404248)" stroke="white" stroke-width="3" stroke-dasharray="10 10"/>
<path d="M424.302 47.7844L429.673 47.9721C430.132 47.9881 430.533 47.8979 430.878 47.7015C431.234 47.4951 431.516 47.2028 431.725 46.8245C431.935 46.4358 432.054 45.9815 432.084 45.4615L432.135 44.5567C432.165 44.0159 432.098 43.5446 431.933 43.1428C431.779 42.7311 431.536 42.4152 431.204 42.1952C430.873 41.9648 430.478 41.8416 430.02 41.8256L424.648 41.6379L424.869 37.7223L430.537 37.9203C431.786 37.9639 432.855 38.2513 433.743 38.7825C434.631 39.3137 435.299 40.0508 435.746 40.9939C436.194 41.9266 436.383 43.0169 436.313 44.2649L436.212 46.059C436.143 47.2862 435.833 48.3487 435.281 49.2464C434.73 50.1442 433.977 50.8213 433.023 51.2778C432.08 51.7346 430.988 51.9413 429.75 51.8981L424.081 51.7001L424.302 47.7844ZM423.392 28.9486L427.467 29.091L426.189 51.7737L422.114 51.6314L423.392 28.9486ZM425.328 29.0162L435.806 29.3822L435.585 33.2979L425.107 32.9319L425.328 29.0162ZM441.725 39.5771L447.362 39.774C447.778 39.7885 448.143 39.7075 448.455 39.5308C448.779 39.3441 449.034 39.0769 449.22 38.7291C449.417 38.3817 449.529 37.9739 449.555 37.5059L449.63 36.1799C449.657 35.6911 449.598 35.267 449.451 34.9076C449.305 34.5377 449.081 34.2538 448.779 34.0557C448.489 33.8475 448.13 33.736 447.703 33.7211L442.066 33.5242L442.286 29.6085L447.924 29.8054C449.194 29.8498 450.283 30.1327 451.193 30.6542C452.113 31.1657 452.797 31.8878 453.246 32.8205C453.705 33.7431 453.9 34.818 453.831 36.0453L453.723 37.9485C453.655 39.1653 453.34 40.212 452.78 41.0886C452.219 41.9652 451.457 42.6316 450.492 43.0877C449.528 43.5333 448.411 43.734 447.141 43.6896L441.504 43.4928L441.725 39.5771ZM440.413 29.5431L444.488 29.6854L443.21 52.3682L439.134 52.2259L440.413 29.5431ZM457.527 30.1408L461.603 30.2832L460.325 52.9659L456.249 52.8236L457.527 30.1408ZM458.095 48.9334L469.12 49.3185L468.898 53.2654L457.873 52.8803L458.095 48.9334ZM458.619 39.6357L468.395 39.9771L468.172 43.924L458.397 43.5826L458.619 39.6357ZM459.151 30.1975L470.176 30.5826L469.953 34.5295L458.929 34.1444L459.151 30.1975ZM482.499 53.7248L483.446 36.9233L483.781 37.3727L475.972 53.4968L471.865 53.3534L473.143 30.6862L476.953 30.8193L475.996 47.808L475.645 47.3581L483.496 31.0478L487.587 31.1907L486.31 53.8579L482.499 53.7248ZM485.336 24.4846C485.247 26.0654 484.772 27.2784 483.911 28.1237C483.05 28.9689 481.88 29.3657 480.402 29.3141L480.277 29.3098C478.798 29.2581 477.678 28.7813 476.915 27.8793C476.152 26.9774 475.815 25.736 475.905 24.1551L479.182 24.3009C479.146 24.9457 479.237 25.4543 479.456 25.8266C479.686 26.189 480.014 26.3776 480.441 26.3925L480.566 26.3969C481.003 26.4121 481.351 26.2472 481.611 25.9019C481.871 25.5463 482.019 25.046 482.055 24.4012L485.336 24.4846ZM496.94 41.8025L501.485 31.6761L505.935 31.8315L499.83 44.6545L496.94 41.8025ZM496.758 44.2033L500.458 42.3943L505.61 54.5475L500.894 54.3828L496.758 44.2033ZM491.475 31.3265L495.551 31.4688L494.273 54.1516L490.197 54.0093L491.475 31.3265ZM492.723 40.8424L499.75 41.0878L499.529 45.0035L492.502 44.7581L492.723 40.8424ZM518.353 54.977L519.299 38.1755L519.634 38.6249L511.825 54.749L507.718 54.6056L508.996 31.9384L512.806 32.0715L511.849 49.0602L511.498 48.6103L519.349 32.3L523.44 32.4429L522.163 55.1101L518.353 54.977ZM537.01 32.9168L541.086 33.0592L539.807 55.7419L535.732 55.5996L537.01 32.9168ZM527.328 32.5787L531.404 32.721L530.126 55.4038L526.05 55.2615L527.328 32.5787ZM528.696 42.177L539.112 42.5407L538.894 46.4096L528.478 46.0458L528.696 42.177ZM544.974 33.195L549.049 33.3373L547.771 56.0201L543.696 55.8777L544.974 33.195ZM546.91 33.2626L555.905 33.5767L555.684 37.4924L546.69 37.1783L546.91 33.2626Z" fill="white"/>
<rect x="1.74833" y="1.32109" width="188.983" height="73" transform="matrix(0.994521 -0.104539 0.171029 0.985266 -0.216366 227.81)" fill="#1E5B9C"/>
<rect x="1.74833" y="1.32109" width="188.983" height="73" transform="matrix(0.994521 -0.104539 0.171029 0.985266 -0.216366 227.81)" stroke="white" stroke-width="3" stroke-dasharray="10 10"/>
<path d="M42.8515 269.331L43.2089 269.293C43.9859 269.211 44.5112 268.743 44.7848 267.889C45.0585 267.035 45.0617 265.838 44.7944 264.298L42.4027 250.52L46.2875 250.112L48.5376 263.074C48.8459 264.85 48.9014 266.385 48.7044 267.681C48.5177 268.975 48.0377 270.008 47.2644 270.779C46.5014 271.549 45.4206 272.008 44.0221 272.155L43.3539 272.225L42.8515 269.331ZM42.5718 269.36L46.3945 268.958L47.8162 277.148L43.9935 277.55L42.5718 269.36ZM42.5718 269.36L58.8571 267.648L59.5278 271.512L43.2425 273.224L42.5718 269.36ZM56.262 267.921L60.0847 267.519L61.5064 275.709L57.6837 276.111L56.262 267.921ZM50.6697 249.651L54.7254 249.225L58.611 271.609L54.5552 272.035L50.6697 249.651ZM45.0133 250.246L52.5033 249.458L53.1741 253.322L45.6841 254.11L45.0133 250.246ZM66.0536 248.034L68.7575 247.75L79.6669 269.395L75.4557 269.838L68.691 255.297L67.1266 270.714L62.931 271.155L66.0536 248.034ZM65.554 263.386L74.5823 262.437L75.2451 266.255L66.2167 267.204L65.554 263.386ZM83.2748 265.113L88.5737 264.556C89.2989 264.48 89.8271 264.241 90.1584 263.841C90.5001 263.439 90.6148 262.915 90.5026 262.268L90.238 260.744C90.1579 260.282 89.996 259.897 89.7526 259.588C89.5177 259.268 89.2089 259.039 88.8264 258.902C88.4543 258.763 88.0248 258.72 87.5379 258.771L82.27 259.325L81.6099 255.522L86.8312 254.973C87.4942 254.903 87.9758 254.67 88.276 254.273C88.5848 253.864 88.6813 253.326 88.5655 252.659L88.3571 251.458C88.2556 250.873 87.9907 250.441 87.5625 250.162C87.1429 249.872 86.6016 249.762 85.9386 249.831L80.7174 250.38L80.0546 246.562L85.54 245.986C86.7832 245.855 87.8816 245.954 88.8352 246.282C89.787 246.6 90.5603 247.135 91.1551 247.888C91.7499 248.64 92.1453 249.581 92.3412 250.71L92.5497 251.911C92.6833 252.681 92.6515 253.379 92.4544 254.006C92.2573 254.633 91.9026 255.172 91.3901 255.623C90.8759 256.063 90.2264 256.393 89.4415 256.611C90.3313 256.633 91.1226 256.816 91.8154 257.161C92.5065 257.496 93.0687 257.97 93.5021 258.583C93.9458 259.194 94.2425 259.931 94.3922 260.794L94.6594 262.333C94.8572 263.472 94.7985 264.471 94.4834 265.33C94.1666 266.178 93.6044 266.859 92.7969 267.373C91.9893 267.886 90.9692 268.207 89.7364 268.337L83.9402 268.946L83.2748 265.113ZM78.019 246.776L82.0748 246.35L85.9603 268.734L81.9045 269.16L78.019 246.776ZM104.622 243.98L108.678 243.553L112.564 265.937L108.508 266.364L104.622 243.98ZM94.988 244.993L99.0438 244.566L102.929 266.95L98.8736 267.377L94.988 244.993ZM98.5166 254.199L108.881 253.11L109.544 256.928L99.1793 258.017L98.5166 254.199ZM116.12 252.788L121.73 252.198C122.144 252.155 122.485 252.025 122.754 251.809C123.031 251.581 123.222 251.284 123.327 250.917C123.442 250.55 123.46 250.135 123.38 249.674L123.153 248.365C123.069 247.883 122.914 247.476 122.688 247.144C122.46 246.802 122.174 246.555 121.831 246.403C121.497 246.24 121.117 246.181 120.693 246.225L115.083 246.815L114.412 242.951L120.022 242.361C121.286 242.228 122.426 242.354 123.442 242.738C124.467 243.111 125.306 243.723 125.96 244.574C126.623 245.414 127.059 246.439 127.269 247.65L127.595 249.528C127.804 250.729 127.731 251.797 127.376 252.733C127.022 253.669 126.42 254.428 125.572 255.008C124.721 255.578 123.664 255.93 122.4 256.062L116.791 256.652L116.12 252.788ZM112.547 243.147L116.603 242.72L120.489 265.104L116.433 265.531L112.547 243.147ZM139.813 263.308C138.394 263.457 137.109 263.316 135.958 262.883C134.805 262.44 133.855 261.74 133.109 260.784C132.363 259.828 131.871 258.662 131.632 257.287L130.012 247.957C129.774 246.582 129.851 245.357 130.244 244.281C130.636 243.194 131.313 242.324 132.275 241.669C133.238 241.014 134.428 240.612 135.848 240.462C137.277 240.312 138.568 240.453 139.719 240.886C140.87 241.319 141.819 242.019 142.567 242.985C143.313 243.941 143.806 245.107 144.045 246.482L145.664 255.812C145.903 257.187 145.825 258.413 145.432 259.488C145.039 260.564 144.362 261.435 143.401 262.1C142.439 262.755 141.243 263.158 139.813 263.308ZM139.116 259.29C139.696 259.229 140.183 259.058 140.577 258.776C140.97 258.484 141.241 258.105 141.393 257.64C141.544 257.175 141.568 256.645 141.465 256.049L139.909 247.09C139.808 246.505 139.605 246.003 139.3 245.586C138.996 245.169 138.605 244.865 138.129 244.674C137.652 244.474 137.123 244.404 136.542 244.465C135.962 244.526 135.476 244.703 135.084 244.995C134.7 245.275 134.432 245.648 134.281 246.114C134.13 246.579 134.105 247.104 134.206 247.689L135.762 256.649C135.865 257.244 136.069 257.75 136.373 258.168C136.678 258.585 137.064 258.895 137.532 259.096C138.008 259.287 138.536 259.351 139.116 259.29ZM154.009 249.103L156.198 238.558L160.626 238.093L157.51 251.494L154.009 249.103ZM154.374 251.479L157.617 249.194L165.46 260.377L160.767 260.871L154.374 251.479ZM146.237 239.605L150.293 239.179L154.178 261.563L150.122 261.99L146.237 239.605ZM149.628 248.749L156.621 248.013L157.291 251.878L150.299 252.613L149.628 248.749Z" fill="white"/>
<rect x="1.4147" y="1.54998" width="213.535" height="73" transform="matrix(0.999391 0.0349045 -0.0562601 0.998416 295.494 287.326)" fill="#1E5B9C"/>
<rect x="1.4147" y="1.54998" width="213.535" height="73" transform="matrix(0.999391 0.0349045 -0.0562601 0.998416 295.494 287.326)" stroke="white" stroke-width="3" stroke-dasharray="10 10"/>
<path d="M339.751 316.214L343.827 316.356L342.549 339.039L338.473 338.896L339.751 316.214ZM330.069 315.875L334.145 316.018L332.867 338.7L328.791 338.558L330.069 315.875ZM332.068 315.945L342.312 316.303L342.092 320.203L331.848 319.845L332.068 315.945ZM352.806 316.669L355.523 316.764L361.303 339.694L357.071 339.546L353.741 324.221L348.701 339.254L344.485 339.106L352.806 316.669ZM348.825 331.786L357.897 332.103L357.679 335.972L348.607 335.655L348.825 331.786ZM365.816 335.959L371.141 336.145C371.869 336.171 372.442 336.008 372.858 335.658C373.285 335.308 373.516 334.806 373.553 334.15L373.64 332.606C373.667 332.138 373.595 331.734 373.427 331.395C373.269 331.046 373.018 330.776 372.674 330.587C372.341 330.398 371.929 330.295 371.44 330.278L366.146 330.093L366.364 326.24L371.61 326.423C372.277 326.447 372.802 326.283 373.187 325.931C373.583 325.57 373.8 325.051 373.838 324.375L373.907 323.159C373.94 322.566 373.778 322.102 373.422 321.766C373.076 321.421 372.57 321.236 371.904 321.213L366.657 321.03L366.875 317.161L372.387 317.353C373.637 317.397 374.692 317.647 375.553 318.105C376.414 318.552 377.051 319.189 377.463 320.016C377.876 320.843 378.05 321.829 377.985 322.973L377.916 324.19C377.873 324.97 377.683 325.656 377.347 326.249C377.011 326.841 376.54 327.325 375.935 327.7C375.33 328.064 374.618 328.3 373.799 328.407C374.667 328.552 375.401 328.843 376.002 329.281C376.604 329.708 377.048 330.255 377.334 330.922C377.63 331.589 377.753 332.359 377.704 333.233L377.616 334.793C377.551 335.947 377.267 336.927 376.762 337.733C376.258 338.528 375.552 339.123 374.643 339.519C373.734 339.914 372.66 340.09 371.422 340.047L365.597 339.844L365.816 335.959ZM364.83 317.089L368.905 317.232L367.627 339.915L363.551 339.772L364.83 317.089ZM381.882 317.685L385.957 317.827L384.679 340.51L380.603 340.368L381.882 317.685ZM382.45 336.478L393.474 336.863L393.252 340.809L382.227 340.424L382.45 336.478ZM382.974 327.18L392.749 327.521L392.527 331.468L382.751 331.127L382.974 327.18ZM383.506 317.742L394.53 318.127L394.308 322.074L383.283 321.689L383.506 317.742ZM398.809 328.264L404.446 328.461C404.863 328.476 405.227 328.395 405.54 328.218C405.863 328.031 406.118 327.764 406.305 327.416C406.502 327.069 406.613 326.661 406.64 326.193L406.714 324.867C406.742 324.378 406.682 323.954 406.536 323.595C406.39 323.225 406.166 322.941 405.864 322.743C405.573 322.535 405.214 322.423 404.788 322.408L399.15 322.211L399.371 318.296L405.008 318.493C406.278 318.537 407.368 318.82 408.277 319.342C409.198 319.853 409.882 320.575 410.33 321.508C410.789 322.43 410.984 323.505 410.915 324.733L410.808 326.636C410.739 327.853 410.425 328.899 409.864 329.776C409.304 330.652 408.541 331.319 407.577 331.775C406.613 332.221 405.496 332.421 404.226 332.377L398.589 332.18L398.809 328.264ZM397.497 318.23L401.573 318.373L400.295 341.055L396.219 340.913L397.497 318.23ZM434.787 319.533L439.425 319.695L438.147 342.377L434.477 342.249L435.419 325.526L435.55 326.531L431.039 338.847L428.181 338.747L425.039 326.476L425.347 325.174L424.405 341.898L420.704 341.768L421.982 319.085L426.651 319.249L429.918 333.196L434.787 319.533ZM442.407 319.799L446.733 319.95L450.641 336.671L447.886 339.748L442.407 319.799ZM451.69 338.599C451.344 339.556 450.908 340.359 450.381 341.007C449.854 341.656 449.227 342.139 448.5 342.458C447.773 342.776 446.94 342.919 446.004 342.886L443.895 342.813L444.12 338.835L445.759 338.892C446.207 338.908 446.613 338.823 446.978 338.637C447.344 338.442 447.663 338.156 447.934 337.78C448.217 337.394 448.452 336.923 448.64 336.367L453.807 320.197L457.96 320.342L451.69 338.599ZM460.977 339.283L466.301 339.469C467.03 339.494 467.603 339.332 468.019 338.982C468.445 338.632 468.677 338.129 468.714 337.474L468.801 335.93C468.827 335.462 468.756 335.058 468.588 334.719C468.43 334.369 468.179 334.1 467.835 333.911C467.502 333.722 467.09 333.619 466.601 333.602L461.307 333.417L461.524 329.564L466.771 329.747C467.437 329.77 467.963 329.606 468.348 329.255C468.744 328.894 468.961 328.375 468.999 327.699L469.067 326.482C469.101 325.889 468.939 325.425 468.582 325.09C468.237 324.744 467.731 324.56 467.065 324.537L461.818 324.353L462.036 320.484L467.548 320.677C468.797 320.721 469.852 320.971 470.713 321.428C471.575 321.875 472.212 322.512 472.624 323.34C473.036 324.167 473.21 325.152 473.146 326.296L473.077 327.513C473.033 328.293 472.843 328.98 472.507 329.572C472.172 330.165 471.701 330.649 471.096 331.023C470.491 331.388 469.779 331.624 468.959 331.73C469.827 331.875 470.562 332.167 471.163 332.605C471.765 333.032 472.209 333.579 472.494 334.245C472.791 334.912 472.914 335.682 472.865 336.556L472.777 338.116C472.712 339.271 472.427 340.251 471.923 341.056C471.419 341.851 470.713 342.447 469.804 342.842C468.895 343.238 467.821 343.414 466.582 343.371L460.758 343.167L460.977 339.283ZM459.99 320.413L464.066 320.555L462.788 343.238L458.712 343.096L459.99 320.413Z" fill="white"/>
</svg>
