<svg width="1204" height="62" viewBox="0 0 1204 62" fill="none" xmlns="http://www.w3.org/2000/svg">
<rect width="200.667" height="62" fill="#D9D9D9"/>
<path d="M47.5986 21.2812H52.2393V44H48.5674V27.25L48.7549 28.25L44.9424 40.7187H42.083L38.2549 28.5625L38.4893 27.25V44H34.7861V21.2812H39.458L43.5049 35.1094L47.5986 21.2812ZM66.7705 43.9844V27.1562L67.1299 27.5937L60.2393 43.9844H56.1299V21.2812H59.9424V38.2969L59.5674 37.8594L66.4893 21.2812H70.583V43.9844H66.7705ZM76.3486 31.2656H81.9893C82.4059 31.2656 82.7653 31.1719 83.0674 30.9844C83.3799 30.7865 83.6195 30.5104 83.7861 30.1562C83.9632 29.8021 84.0518 29.3906 84.0518 28.9219V27.5937C84.0518 27.1042 83.9684 26.6823 83.8018 26.3281C83.6351 25.9635 83.3955 25.6875 83.083 25.5C82.7809 25.3021 82.4163 25.2031 81.9893 25.2031H76.3486V21.2812H81.9893C83.2601 21.2812 84.3643 21.526 85.3018 22.0156C86.2497 22.4948 86.9736 23.1927 87.4736 24.1094C87.984 25.0156 88.2393 26.0833 88.2393 27.3125V29.2187C88.2393 30.4375 87.984 31.4948 87.4736 32.3906C86.9632 33.2865 86.2393 33.9792 85.3018 34.4687C84.3643 34.9479 83.2601 35.1875 81.9893 35.1875H76.3486V31.2656ZM74.4736 21.2812H78.5518V44H74.4736V21.2812ZM97.4424 21.2812H101.771L106.614 37.8594L104.036 41.0312L97.4424 21.2812ZM107.771 39.75C107.479 40.7187 107.088 41.5365 106.599 42.2031C106.109 42.8698 105.51 43.375 104.802 43.7187C104.093 44.0625 103.271 44.2344 102.333 44.2344H100.224V40.25H101.864C102.312 40.25 102.713 40.151 103.067 39.9531C103.422 39.7448 103.724 39.4479 103.974 39.0625C104.234 38.6667 104.442 38.1875 104.599 37.625L108.849 21.2812H113.005L107.771 39.75ZM112.692 40.0937C113.224 40.0937 113.672 39.9687 114.036 39.7187C114.411 39.4687 114.692 39.099 114.88 38.6094C115.067 38.1198 115.161 37.5208 115.161 36.8125V21.2812H119.239V37.125C119.239 38.6146 119 39.8698 118.521 40.8906C118.052 41.9115 117.349 42.6875 116.411 43.2187C115.484 43.7396 114.343 44 112.989 44H112.692V40.0937ZM123.864 21.2812H127.942V44H123.864V21.2812ZM117.614 21.2812H125.771V25.2031H117.614V21.2812ZM142.489 43.9844V27.1562L142.849 27.5937L135.958 43.9844H131.849V21.2812H135.661V38.2969L135.286 37.8594L142.208 21.2812H146.302V43.9844H142.489ZM159.786 21.3125H163.864V44H159.786V21.3125ZM152.614 40.0781H164.067V44H152.614V40.0781ZM162.38 40.0781H166.302V49.1719H162.38V40.0781ZM150.192 21.2812H154.271V44H150.192V21.2812Z" fill="black"/>
<rect width="200.667" height="62" transform="translate(200.667)" fill="#D9D9D9"/>
<path d="M248.266 21.2812H252.906V44H249.234V27.25L249.422 28.25L245.609 40.7187H242.75L238.922 28.5625L239.156 27.25V44H235.453V21.2812H240.125L244.172 35.1094L248.266 21.2812ZM267.437 43.9844V27.1562L267.797 27.5937L260.906 43.9844H256.797V21.2812H260.609V38.2969L260.234 37.8594L267.156 21.2812H271.25V43.9844H267.437ZM277.016 31.2656H282.656C283.073 31.2656 283.432 31.1719 283.734 30.9844C284.047 30.7865 284.286 30.5104 284.453 30.1562C284.63 29.8021 284.719 29.3906 284.719 28.9219V27.5937C284.719 27.1042 284.635 26.6823 284.469 26.3281C284.302 25.9635 284.062 25.6875 283.75 25.5C283.448 25.3021 283.083 25.2031 282.656 25.2031H277.016V21.2812H282.656C283.927 21.2812 285.031 21.526 285.969 22.0156C286.917 22.4948 287.641 23.1927 288.141 24.1094C288.651 25.0156 288.906 26.0833 288.906 27.3125V29.2187C288.906 30.4375 288.651 31.4948 288.141 32.3906C287.63 33.2865 286.906 33.9792 285.969 34.4687C285.031 34.9479 283.927 35.1875 282.656 35.1875H277.016V31.2656ZM275.141 21.2812H279.219V44H275.141V21.2812ZM298.109 21.2812H302.437L307.281 37.8594L304.703 41.0312L298.109 21.2812ZM308.437 39.75C308.146 40.7187 307.755 41.5365 307.266 42.2031C306.776 42.8698 306.177 43.375 305.469 43.7187C304.76 44.0625 303.937 44.2344 303 44.2344H300.891V40.25H302.531C302.979 40.25 303.38 40.151 303.734 39.9531C304.089 39.7448 304.391 39.4479 304.641 39.0625C304.901 38.6667 305.109 38.1875 305.266 37.625L309.516 21.2812H313.672L308.437 39.75ZM313.359 40.0937C313.891 40.0937 314.339 39.9687 314.703 39.7187C315.078 39.4687 315.359 39.099 315.547 38.6094C315.734 38.1198 315.828 37.5208 315.828 36.8125V21.2812H319.906V37.125C319.906 38.6146 319.667 39.8698 319.187 40.8906C318.719 41.9115 318.016 42.6875 317.078 43.2187C316.151 43.7396 315.01 44 313.656 44H313.359V40.0937ZM324.531 21.2812H328.609V44H324.531V21.2812ZM318.281 21.2812H326.437V25.2031H318.281V21.2812ZM343.156 43.9844V27.1562L343.516 27.5937L336.625 43.9844H332.516V21.2812H336.328V38.2969L335.953 37.8594L342.875 21.2812H346.969V43.9844H343.156ZM360.453 21.3125H364.531V44H360.453V21.3125ZM353.281 40.0781H364.734V44H353.281V40.0781ZM363.047 40.0781H366.969V49.1719H363.047V40.0781ZM350.859 21.2812H354.937V44H350.859V21.2812Z" fill="black"/>
<rect width="200.667" height="62" transform="translate(401.333)" fill="#D9D9D9"/>
<path d="M448.932 21.2812H453.572V44H449.9V27.25L450.088 28.25L446.275 40.7187H443.416L439.588 28.5625L439.822 27.25V44H436.119V21.2812H440.791L444.838 35.1094L448.932 21.2812ZM468.104 43.9844V27.1562L468.463 27.5937L461.572 43.9844H457.463V21.2812H461.275V38.2969L460.9 37.8594L467.822 21.2812H471.916V43.9844H468.104ZM477.682 31.2656H483.322C483.739 31.2656 484.098 31.1719 484.4 30.9844C484.713 30.7865 484.952 30.5104 485.119 30.1562C485.296 29.8021 485.385 29.3906 485.385 28.9219V27.5937C485.385 27.1042 485.301 26.6823 485.135 26.3281C484.968 25.9635 484.729 25.6875 484.416 25.5C484.114 25.3021 483.749 25.2031 483.322 25.2031H477.682V21.2812H483.322C484.593 21.2812 485.697 21.526 486.635 22.0156C487.583 22.4948 488.307 23.1927 488.807 24.1094C489.317 25.0156 489.572 26.0833 489.572 27.3125V29.2187C489.572 30.4375 489.317 31.4948 488.807 32.3906C488.296 33.2865 487.572 33.9792 486.635 34.4687C485.697 34.9479 484.593 35.1875 483.322 35.1875H477.682V31.2656ZM475.807 21.2812H479.885V44H475.807V21.2812ZM498.775 21.2812H503.104L507.947 37.8594L505.369 41.0312L498.775 21.2812ZM509.104 39.75C508.812 40.7187 508.421 41.5365 507.932 42.2031C507.442 42.8698 506.843 43.375 506.135 43.7187C505.426 44.0625 504.604 44.2344 503.666 44.2344H501.557V40.25H503.197C503.645 40.25 504.046 40.151 504.4 39.9531C504.755 39.7448 505.057 39.4479 505.307 39.0625C505.567 38.6667 505.775 38.1875 505.932 37.625L510.182 21.2812H514.338L509.104 39.75ZM514.025 40.0937C514.557 40.0937 515.005 39.9687 515.369 39.7187C515.744 39.4687 516.025 39.099 516.213 38.6094C516.4 38.1198 516.494 37.5208 516.494 36.8125V21.2812H520.572V37.125C520.572 38.6146 520.333 39.8698 519.854 40.8906C519.385 41.9115 518.682 42.6875 517.744 43.2187C516.817 43.7396 515.676 44 514.322 44H514.025V40.0937ZM525.197 21.2812H529.275V44H525.197V21.2812ZM518.947 21.2812H527.104V25.2031H518.947V21.2812ZM543.822 43.9844V27.1562L544.182 27.5937L537.291 43.9844H533.182V21.2812H536.994V38.2969L536.619 37.8594L543.541 21.2812H547.635V43.9844H543.822ZM561.119 21.3125H565.197V44H561.119V21.3125ZM553.947 40.0781H565.4V44H553.947V40.0781ZM563.713 40.0781H567.635V49.1719H563.713V40.0781ZM551.525 21.2812H555.604V44H551.525V21.2812Z" fill="black"/>
<rect width="200.667" height="62" transform="translate(602)" fill="#D9D9D9"/>
<path d="M649.599 21.2812H654.239V44H650.567V27.25L650.755 28.25L646.942 40.7187H644.083L640.255 28.5625L640.489 27.25V44H636.786V21.2812H641.458L645.505 35.1094L649.599 21.2812ZM668.771 43.9844V27.1562L669.13 27.5937L662.239 43.9844H658.13V21.2812H661.942V38.2969L661.567 37.8594L668.489 21.2812H672.583V43.9844H668.771ZM678.349 31.2656H683.989C684.406 31.2656 684.765 31.1719 685.067 30.9844C685.38 30.7865 685.619 30.5104 685.786 30.1562C685.963 29.8021 686.052 29.3906 686.052 28.9219V27.5937C686.052 27.1042 685.968 26.6823 685.802 26.3281C685.635 25.9635 685.396 25.6875 685.083 25.5C684.781 25.3021 684.416 25.2031 683.989 25.2031H678.349V21.2812H683.989C685.26 21.2812 686.364 21.526 687.302 22.0156C688.25 22.4948 688.974 23.1927 689.474 24.1094C689.984 25.0156 690.239 26.0833 690.239 27.3125V29.2187C690.239 30.4375 689.984 31.4948 689.474 32.3906C688.963 33.2865 688.239 33.9792 687.302 34.4687C686.364 34.9479 685.26 35.1875 683.989 35.1875H678.349V31.2656ZM676.474 21.2812H680.552V44H676.474V21.2812ZM699.442 21.2812H703.771L708.614 37.8594L706.036 41.0312L699.442 21.2812ZM709.771 39.75C709.479 40.7187 709.088 41.5365 708.599 42.2031C708.109 42.8698 707.51 43.375 706.802 43.7187C706.093 44.0625 705.271 44.2344 704.333 44.2344H702.224V40.25H703.864C704.312 40.25 704.713 40.151 705.067 39.9531C705.422 39.7448 705.724 39.4479 705.974 39.0625C706.234 38.6667 706.442 38.1875 706.599 37.625L710.849 21.2812H715.005L709.771 39.75ZM714.692 40.0937C715.224 40.0937 715.672 39.9687 716.036 39.7187C716.411 39.4687 716.692 39.099 716.88 38.6094C717.067 38.1198 717.161 37.5208 717.161 36.8125V21.2812H721.239V37.125C721.239 38.6146 721 39.8698 720.521 40.8906C720.052 41.9115 719.349 42.6875 718.411 43.2187C717.484 43.7396 716.343 44 714.989 44H714.692V40.0937ZM725.864 21.2812H729.942V44H725.864V21.2812ZM719.614 21.2812H727.771V25.2031H719.614V21.2812ZM744.489 43.9844V27.1562L744.849 27.5937L737.958 43.9844H733.849V21.2812H737.661V38.2969L737.286 37.8594L744.208 21.2812H748.302V43.9844H744.489ZM761.786 21.3125H765.864V44H761.786V21.3125ZM754.614 40.0781H766.067V44H754.614V40.0781ZM764.38 40.0781H768.302V49.1719H764.38V40.0781ZM752.192 21.2812H756.271V44H752.192V21.2812Z" fill="black"/>
<rect width="200.667" height="62" transform="translate(802.667)" fill="#D9D9D9"/>
<path d="M850.266 21.2812H854.906V44H851.234V27.25L851.422 28.25L847.609 40.7187H844.75L840.922 28.5625L841.156 27.25V44H837.453V21.2812H842.125L846.172 35.1094L850.266 21.2812ZM869.437 43.9844V27.1562L869.797 27.5937L862.906 43.9844H858.797V21.2812H862.609V38.2969L862.234 37.8594L869.156 21.2812H873.25V43.9844H869.437ZM879.016 31.2656H884.656C885.073 31.2656 885.432 31.1719 885.734 30.9844C886.047 30.7865 886.286 30.5104 886.453 30.1562C886.63 29.8021 886.719 29.3906 886.719 28.9219V27.5937C886.719 27.1042 886.635 26.6823 886.469 26.3281C886.302 25.9635 886.062 25.6875 885.75 25.5C885.448 25.3021 885.083 25.2031 884.656 25.2031H879.016V21.2812H884.656C885.927 21.2812 887.031 21.526 887.969 22.0156C888.917 22.4948 889.641 23.1927 890.141 24.1094C890.651 25.0156 890.906 26.0833 890.906 27.3125V29.2187C890.906 30.4375 890.651 31.4948 890.141 32.3906C889.63 33.2865 888.906 33.9792 887.969 34.4687C887.031 34.9479 885.927 35.1875 884.656 35.1875H879.016V31.2656ZM877.141 21.2812H881.219V44H877.141V21.2812ZM900.109 21.2812H904.437L909.281 37.8594L906.703 41.0312L900.109 21.2812ZM910.437 39.75C910.146 40.7187 909.755 41.5365 909.266 42.2031C908.776 42.8698 908.177 43.375 907.469 43.7187C906.76 44.0625 905.937 44.2344 905 44.2344H902.891V40.25H904.531C904.979 40.25 905.38 40.151 905.734 39.9531C906.089 39.7448 906.391 39.4479 906.641 39.0625C906.901 38.6667 907.109 38.1875 907.266 37.625L911.516 21.2812H915.672L910.437 39.75ZM915.359 40.0937C915.891 40.0937 916.339 39.9687 916.703 39.7187C917.078 39.4687 917.359 39.099 917.547 38.6094C917.734 38.1198 917.828 37.5208 917.828 36.8125V21.2812H921.906V37.125C921.906 38.6146 921.667 39.8698 921.187 40.8906C920.719 41.9115 920.016 42.6875 919.078 43.2187C918.151 43.7396 917.01 44 915.656 44H915.359V40.0937ZM926.531 21.2812H930.609V44H926.531V21.2812ZM920.281 21.2812H928.437V25.2031H920.281V21.2812ZM945.156 43.9844V27.1562L945.516 27.5937L938.625 43.9844H934.516V21.2812H938.328V38.2969L937.953 37.8594L944.875 21.2812H948.969V43.9844H945.156ZM962.453 21.3125H966.531V44H962.453V21.3125ZM955.281 40.0781H966.734V44H955.281V40.0781ZM965.047 40.0781H968.969V49.1719H965.047V40.0781ZM952.859 21.2812H956.937V44H952.859V21.2812Z" fill="black"/>
<rect width="200.667" height="62" transform="translate(1003.33)" fill="#D9D9D9"/>
<path d="M1050.93 21.2812H1055.57V44H1051.9V27.25L1052.09 28.25L1048.28 40.7187H1045.42L1041.59 28.5625L1041.82 27.25V44H1038.12V21.2812H1042.79L1046.84 35.1094L1050.93 21.2812ZM1070.1 43.9844V27.1562L1070.46 27.5937L1063.57 43.9844H1059.46V21.2812H1063.28V38.2969L1062.9 37.8594L1069.82 21.2812H1073.92V43.9844H1070.1ZM1079.68 31.2656H1085.32C1085.74 31.2656 1086.1 31.1719 1086.4 30.9844C1086.71 30.7865 1086.95 30.5104 1087.12 30.1562C1087.3 29.8021 1087.38 29.3906 1087.38 28.9219V27.5937C1087.38 27.1042 1087.3 26.6823 1087.13 26.3281C1086.97 25.9635 1086.73 25.6875 1086.42 25.5C1086.11 25.3021 1085.75 25.2031 1085.32 25.2031H1079.68V21.2812H1085.32C1086.59 21.2812 1087.7 21.526 1088.63 22.0156C1089.58 22.4948 1090.31 23.1927 1090.81 24.1094C1091.32 25.0156 1091.57 26.0833 1091.57 27.3125V29.2187C1091.57 30.4375 1091.32 31.4948 1090.81 32.3906C1090.3 33.2865 1089.57 33.9792 1088.63 34.4687C1087.7 34.9479 1086.59 35.1875 1085.32 35.1875H1079.68V31.2656ZM1077.81 21.2812H1081.88V44H1077.81V21.2812ZM1100.78 21.2812H1105.1L1109.95 37.8594L1107.37 41.0312L1100.78 21.2812ZM1111.1 39.75C1110.81 40.7187 1110.42 41.5365 1109.93 42.2031C1109.44 42.8698 1108.84 43.375 1108.13 43.7187C1107.43 44.0625 1106.6 44.2344 1105.67 44.2344H1103.56V40.25H1105.2C1105.65 40.25 1106.05 40.151 1106.4 39.9531C1106.75 39.7448 1107.06 39.4479 1107.31 39.0625C1107.57 38.6667 1107.78 38.1875 1107.93 37.625L1112.18 21.2812H1116.34L1111.1 39.75ZM1116.03 40.0937C1116.56 40.0937 1117 39.9687 1117.37 39.7187C1117.74 39.4687 1118.03 39.099 1118.21 38.6094C1118.4 38.1198 1118.49 37.5208 1118.49 36.8125V21.2812H1122.57V37.125C1122.57 38.6146 1122.33 39.8698 1121.85 40.8906C1121.38 41.9115 1120.68 42.6875 1119.74 43.2187C1118.82 43.7396 1117.68 44 1116.32 44H1116.03V40.0937ZM1127.2 21.2812H1131.28V44H1127.2V21.2812ZM1120.95 21.2812H1129.1V25.2031H1120.95V21.2812ZM1145.82 43.9844V27.1562L1146.18 27.5937L1139.29 43.9844H1135.18V21.2812H1138.99V38.2969L1138.62 37.8594L1145.54 21.2812H1149.63V43.9844H1145.82ZM1163.12 21.3125H1167.2V44H1163.12V21.3125ZM1155.95 40.0781H1167.4V44H1155.95V40.0781ZM1165.71 40.0781H1169.63V49.1719H1165.71V40.0781ZM1153.53 21.2812H1157.6V44H1153.53V21.2812Z" fill="black"/>
</svg>
