<svg width="1204" height="466" viewBox="0 0 1204 466" fill="none" xmlns="http://www.w3.org/2000/svg">
<rect width="1204" height="466" fill="#D9D9D9"/>
<path d="M2.04 80.86C2.04 76.42 3.26 72.42 5.7 68.86C8.18 65.3 11.54 62.52 15.78 60.52C20.06 58.48 24.8 57.46 30 57.46C36.52 57.46 42.14 59.04 46.86 62.2C51.62 65.32 54.9 69.7 56.7 75.34L46.14 75.4C45.38 73.36 44.08 71.62 42.24 70.18C40.44 68.7 38.44 67.6 36.24 66.88C34.04 66.12 31.98 65.74 30.06 65.74C27.18 65.74 24.38 66.34 21.66 67.54C18.94 68.7 16.7 70.44 14.94 72.76C13.22 75.04 12.36 77.74 12.36 80.86C12.36 84.02 13.18 86.74 14.82 89.02C16.46 91.26 18.62 92.98 21.3 94.18C24.02 95.34 26.94 95.92 30.06 95.92C33.14 95.92 36.16 95.1 39.12 93.46C42.12 91.82 44.38 89.48 45.9 86.44H56.7C54.78 92.12 51.46 96.5 46.74 99.58C42.06 102.66 36.48 104.2 30 104.2C24.84 104.2 20.12 103.18 15.84 101.14C11.56 99.1 8.18 96.3 5.7 92.74C3.26 89.18 2.04 85.22 2.04 80.86ZM112.471 58.6V103H102.151V66.7H72.2709V103H61.9509V58.6H112.471ZM145.183 57.64C150.383 57.64 155.063 58.64 159.223 60.64C163.423 62.64 166.703 65.42 169.063 68.98C171.423 72.54 172.603 76.54 172.603 80.98C172.603 85.38 171.423 89.34 169.063 92.86C166.703 96.38 163.443 99.16 159.283 101.2C155.123 103.2 150.443 104.2 145.243 104.2C140.203 104.2 135.563 103.2 131.323 101.2C127.083 99.16 123.723 96.38 121.243 92.86C118.763 89.3 117.523 85.34 117.523 80.98C117.523 76.58 118.763 72.6 121.243 69.04C123.723 65.48 127.063 62.7 131.263 60.7C135.503 58.66 140.143 57.64 145.183 57.64ZM145.183 95.92C148.103 95.92 150.863 95.34 153.463 94.18C156.063 93.02 158.163 91.32 159.763 89.08C161.363 86.8 162.163 84.1 162.163 80.98C162.163 77.9 161.343 75.22 159.703 72.94C158.103 70.66 155.983 68.92 153.343 67.72C150.743 66.52 147.983 65.92 145.063 65.92C141.943 65.92 139.083 66.52 136.483 67.72C133.923 68.92 131.883 70.64 130.363 72.88C128.843 75.12 128.083 77.78 128.083 80.86C128.083 84.02 128.863 86.74 130.423 89.02C132.023 91.26 134.123 92.98 136.723 94.18C139.323 95.34 142.143 95.92 145.183 95.92ZM208.995 58.6C212.715 58.6 215.995 59.22 218.835 60.46C221.715 61.7 223.935 63.44 225.495 65.68C227.095 67.88 227.895 70.44 227.895 73.36V73.6C227.895 78.48 226.435 82.2 223.515 84.76C220.595 87.32 216.315 88.6 210.675 88.6H187.755V103H177.615V58.6H208.995ZM207.855 80.68C210.135 80.68 211.955 80.58 213.315 80.38C214.715 80.14 215.895 79.52 216.855 78.52C217.815 77.48 218.295 75.88 218.295 73.72C218.295 71.44 217.815 69.78 216.855 68.74C215.895 67.66 214.715 67 213.315 66.76C211.955 66.52 210.135 66.4 207.855 66.4H205.515C204.475 66.4 202.675 66.42 200.115 66.46C197.555 66.46 193.435 66.46 187.755 66.46V80.68H207.795H207.855ZM232.262 67.06V58.6H282.542L232.262 67.06ZM282.542 58.6V67.24H262.622V103H252.482V67.24H232.262V58.6H282.542Z" fill="black"/>
<rect x="305" y="47" width="898" height="78" fill="#222222"/>
<rect y="145" width="290" height="78" fill="#222222"/>
<path d="M323.38 156.6V189.24L355.18 156.6H365.26V201H355.18V168.3L323.38 201H313.24V156.6H323.38ZM370.517 178.86C370.517 174.42 371.737 170.42 374.177 166.86C376.657 163.3 380.017 160.52 384.257 158.52C388.537 156.48 393.277 155.46 398.477 155.46C404.997 155.46 410.617 157.04 415.337 160.2C420.097 163.32 423.377 167.7 425.177 173.34L414.617 173.4C413.857 171.36 412.557 169.62 410.717 168.18C408.917 166.7 406.917 165.6 404.717 164.88C402.517 164.12 400.457 163.74 398.537 163.74C395.657 163.74 392.857 164.34 390.137 165.54C387.417 166.7 385.177 168.44 383.417 170.76C381.697 173.04 380.837 175.74 380.837 178.86C380.837 182.02 381.657 184.74 383.297 187.02C384.937 189.26 387.097 190.98 389.777 192.18C392.497 193.34 395.417 193.92 398.537 193.92C401.617 193.92 404.637 193.1 407.597 191.46C410.597 189.82 412.857 187.48 414.377 184.44H425.177C423.257 190.12 419.937 194.5 415.217 197.58C410.537 200.66 404.957 202.2 398.477 202.2C393.317 202.2 388.597 201.18 384.317 199.14C380.037 197.1 376.657 194.3 374.177 190.74C371.737 187.18 370.517 183.22 370.517 178.86ZM449.088 176.94L476.868 201H462.888L440.568 181.02V201H430.428V156.6H440.568V173.22L461.748 156.6H475.968L449.088 176.94ZM531.108 156.6L508.788 194.28C507.588 196.52 505.268 198.24 501.828 199.44C498.388 200.6 494.628 201.18 490.548 201.18L488.748 201.12V192.96C493.268 192.96 495.528 192.22 495.528 190.74C495.528 190.5 495.488 190.24 495.408 189.96C495.328 189.68 495.268 189.48 495.228 189.36L477.108 156.6H487.968L503.448 185.34L520.248 156.6H531.108ZM528.603 178.86C528.603 174.42 529.823 170.42 532.263 166.86C534.743 163.3 538.103 160.52 542.343 158.52C546.623 156.48 551.363 155.46 556.562 155.46C563.083 155.46 568.703 157.04 573.423 160.2C578.183 163.32 581.463 167.7 583.263 173.34L572.703 173.4C571.943 171.36 570.643 169.62 568.803 168.18C567.003 166.7 565.003 165.6 562.803 164.88C560.603 164.12 558.543 163.74 556.623 163.74C553.743 163.74 550.943 164.34 548.223 165.54C545.503 166.7 543.263 168.44 541.503 170.76C539.783 173.04 538.923 175.74 538.923 178.86C538.923 182.02 539.743 184.74 541.383 187.02C543.023 189.26 545.183 190.98 547.863 192.18C550.583 193.34 553.503 193.92 556.623 193.92C559.703 193.92 562.723 193.1 565.683 191.46C568.683 189.82 570.943 187.48 572.463 184.44H583.263C581.343 190.12 578.023 194.5 573.303 197.58C568.623 200.66 563.043 202.2 556.562 202.2C551.403 202.2 546.683 201.18 542.402 199.14C538.123 197.1 534.743 194.3 532.263 190.74C529.823 187.18 528.603 183.22 528.603 178.86ZM587.313 178.86C587.313 174.42 588.533 170.42 590.973 166.86C593.453 163.3 596.813 160.52 601.053 158.52C605.333 156.48 610.073 155.46 615.273 155.46C621.793 155.46 627.413 157.04 632.133 160.2C636.893 163.32 640.173 167.7 641.973 173.34L631.413 173.4C630.653 171.36 629.353 169.62 627.513 168.18C625.713 166.7 623.713 165.6 621.513 164.88C619.313 164.12 617.253 163.74 615.333 163.74C612.453 163.74 609.653 164.34 606.933 165.54C604.213 166.7 601.973 168.44 600.213 170.76C598.493 173.04 597.633 175.74 597.633 178.86C597.633 182.02 598.453 184.74 600.093 187.02C601.733 189.26 603.893 190.98 606.573 192.18C609.293 193.34 612.213 193.92 615.333 193.92C618.413 193.92 621.433 193.1 624.393 191.46C627.393 189.82 629.653 187.48 631.173 184.44H641.973C640.053 190.12 636.733 194.5 632.013 197.58C627.333 200.66 621.753 202.2 615.273 202.2C610.113 202.2 605.393 201.18 601.113 199.14C596.833 197.1 593.453 194.3 590.973 190.74C588.533 187.18 587.313 183.22 587.313 178.86ZM644.039 165.06V156.6H694.319L644.039 165.06ZM694.319 156.6V165.24H674.399V201H664.259V165.24H644.039V156.6H694.319ZM743.04 177.72C746.4 178.4 748.94 179.58 750.66 181.26C752.38 182.9 753.24 185.26 753.24 188.34V188.58C753.24 192.06 752.36 194.7 750.6 196.5C748.88 198.3 746.5 199.5 743.46 200.1C740.46 200.66 736.48 200.98 731.52 201.06H731.4H728.58L699.9 201V156.6H734.28C738.92 156.64 742.62 157.6 745.38 159.48C748.14 161.36 749.52 164.02 749.52 167.46V167.7C749.52 170.3 748.98 172.42 747.9 174.06C746.82 175.7 745.2 176.92 743.04 177.72ZM739.56 169.08C739.56 167.4 739.2 166.2 738.48 165.48C737.76 164.72 736.82 164.26 735.66 164.1C734.5 163.9 732.82 163.8 730.62 163.8H730.5H709.68V174.36L725.22 174.54H724.62H730.62C732.86 174.54 734.52 174.48 735.6 174.36C736.72 174.2 737.66 173.74 738.42 172.98C739.18 172.18 739.56 170.88 739.56 169.08ZM732.54 193.38C735.14 193.38 737.08 193.28 738.36 193.08C739.68 192.88 740.72 192.36 741.48 191.52C742.24 190.64 742.62 189.22 742.62 187.26C742.62 185.38 742.24 184.02 741.48 183.18C740.72 182.34 739.68 181.84 738.36 181.68C737.08 181.48 735.14 181.38 732.54 181.38H732.48H709.68V193.26C719.04 193.26 725.76 193.3 729.84 193.38H732.54ZM784.714 155.64C789.914 155.64 794.594 156.64 798.754 158.64C802.954 160.64 806.234 163.42 808.594 166.98C810.954 170.54 812.134 174.54 812.134 178.98C812.134 183.38 810.954 187.34 808.594 190.86C806.234 194.38 802.974 197.16 798.814 199.2C794.654 201.2 789.974 202.2 784.774 202.2C779.734 202.2 775.094 201.2 770.854 199.2C766.614 197.16 763.254 194.38 760.774 190.86C758.294 187.3 757.054 183.34 757.054 178.98C757.054 174.58 758.294 170.6 760.774 167.04C763.254 163.48 766.594 160.7 770.794 158.7C775.034 156.66 779.674 155.64 784.714 155.64ZM784.714 193.92C787.634 193.92 790.394 193.34 792.994 192.18C795.594 191.02 797.694 189.32 799.294 187.08C800.894 184.8 801.694 182.1 801.694 178.98C801.694 175.9 800.874 173.22 799.234 170.94C797.634 168.66 795.514 166.92 792.874 165.72C790.274 164.52 787.514 163.92 784.594 163.92C781.474 163.92 778.614 164.52 776.014 165.72C773.454 166.92 771.414 168.64 769.894 170.88C768.374 173.12 767.614 175.78 767.614 178.86C767.614 182.02 768.394 184.74 769.954 187.02C771.554 189.26 773.654 190.98 776.254 192.18C778.854 193.34 781.674 193.92 784.714 193.92Z" fill="black"/>
<rect x="834" y="145" width="370" height="78" fill="#222222"/>
<rect y="243" width="184" height="78" fill="#222222"/>
<path d="M265.74 254.6V299H255.6V271.22L242.04 299H231.9L217.38 270.8V299H207.24V254.6H219.48L236.88 288.8L253.56 254.6H265.74ZM322.92 254.6L300.6 292.28C299.4 294.52 297.08 296.24 293.64 297.44C290.2 298.6 286.44 299.18 282.36 299.18L280.56 299.12V290.96C285.08 290.96 287.34 290.22 287.34 288.74C287.34 288.5 287.3 288.24 287.22 287.96C287.14 287.68 287.08 287.48 287.04 287.36L268.92 254.6H279.78L295.26 283.34L312.06 254.6H322.92ZM379.485 284.3C379.445 289.86 376.925 293.92 371.925 296.48C366.925 299.04 360.405 300.32 352.365 300.32C346.445 300.32 341.385 299.58 337.185 298.1C332.985 296.62 329.785 294.48 327.585 291.68C325.425 288.88 324.345 285.54 324.345 281.66H334.185C334.185 285.42 335.945 288.18 339.465 289.94C342.985 291.7 347.285 292.58 352.365 292.58C357.005 292.62 360.945 291.98 364.185 290.66C367.465 289.3 369.125 287.16 369.165 284.24C369.125 283 368.805 282.08 368.205 281.48C367.645 280.84 366.405 280.38 364.485 280.1C362.605 279.78 359.645 279.62 355.605 279.62H344.505V272.18H355.605C358.405 272.18 360.685 272.08 362.445 271.88C364.245 271.64 365.685 271.16 366.765 270.44C367.885 269.72 368.445 268.62 368.445 267.14C368.445 265.1 366.885 263.58 363.765 262.58C360.645 261.58 356.845 261.04 352.365 260.96C347.285 260.92 342.985 261.48 339.465 262.64C335.945 263.76 334.185 265.58 334.185 268.1H324.345C324.345 262.34 327.245 258.44 333.045 256.4C338.885 254.32 345.325 253.28 352.365 253.28C356.645 253.28 360.625 253.56 364.305 254.12C368.025 254.64 371.285 255.88 374.085 257.84C376.885 259.8 378.285 262.7 378.285 266.54C378.285 270.78 376.465 273.68 372.825 275.24C377.105 276.8 379.325 279.78 379.485 284.18V284.3ZM412.319 268.28C416.119 268.28 419.439 268.88 422.279 270.08C425.119 271.28 427.319 273.04 428.879 275.36C430.479 277.68 431.279 280.46 431.279 283.7V283.94C431.279 286.9 430.479 289.52 428.879 291.8C427.319 294.08 425.099 295.86 422.219 297.14C419.379 298.38 416.099 299 412.379 299H384.779V254.6H394.919V268.28H412.199H412.319ZM434.219 299V254.6H444.359V299H434.219ZM413.519 291.62C415.879 291.62 417.819 290.94 419.339 289.58C420.859 288.22 421.619 286.2 421.619 283.52C421.619 280.76 420.879 278.78 419.399 277.58C417.919 276.34 415.959 275.72 413.519 275.72H413.459H394.919V291.5C403.439 291.5 409.059 291.54 411.779 291.62H413.519ZM469.474 274.94L497.254 299H483.274L460.954 279.02V299H450.814V254.6H460.954V271.22L482.134 254.6H496.354L469.474 274.94ZM556.535 299H545.975L540.875 289.58H512.855L507.755 299H497.195L521.255 254.6H532.475L556.535 299ZM526.895 263.72L517.295 281.36H536.435L526.895 263.72Z" fill="black"/>
<rect x="577" y="243" width="627" height="78" fill="#222222"/>
<rect y="341" width="694" height="78" fill="#222222"/>
<path d="M716.34 361.06V352.6H766.62L716.34 361.06ZM766.62 352.6V361.24H746.7V397H736.56V361.24H716.34V352.6H766.62ZM813.468 397H802.908L797.808 387.58H769.788L764.688 397H754.128L778.188 352.6H789.408L813.468 397ZM783.828 361.72L774.228 379.36H793.368L783.828 361.72ZM826.462 369.1H855.562V352.6H865.642V397H855.562V377.8H826.462V397H816.322V352.6H826.462V369.1ZM911.403 352.6H921.543V388.42H927.123V404.8H916.803V397H872.103V352.6H882.243V388.42H911.403V352.6ZM957.065 366.28C960.865 366.28 964.185 366.88 967.025 368.08C969.865 369.28 972.065 371.04 973.625 373.36C975.225 375.68 976.025 378.46 976.025 381.7V381.94C976.025 384.9 975.225 387.52 973.625 389.8C972.065 392.08 969.845 393.86 966.965 395.14C964.125 396.38 960.845 397 957.125 397H929.525V352.6H939.665V366.28H956.945H957.065ZM978.965 397V352.6H989.105V397H978.965ZM958.265 389.62C960.625 389.62 962.565 388.94 964.085 387.58C965.605 386.22 966.365 384.2 966.365 381.52C966.365 378.76 965.625 376.78 964.145 375.58C962.665 374.34 960.705 373.72 958.265 373.72H958.205H939.665V389.5C948.185 389.5 953.805 389.54 956.525 389.62H958.265Z" fill="black"/>
<rect x="1013" y="341" width="191" height="78" fill="#222222"/>
</svg>
