<svg width="490" height="369" viewBox="0 0 490 369" fill="none" xmlns="http://www.w3.org/2000/svg">
<rect x="1.73835" y="1.21662" width="164" height="73.0031" transform="matrix(0.984808 -0.173648 0.174093 0.984729 23.7183 34.1405)" fill="#1E5B9C"/>
<rect x="1.73835" y="1.21662" width="164" height="73.0031" transform="matrix(0.984808 -0.173648 0.174093 0.984729 23.7183 34.1405)" stroke="white" stroke-width="3" stroke-dasharray="10 10"/>
<path d="M71.6311 53.1081L75.6472 52.4L79.6024 74.7718L75.5863 75.4799L71.6311 53.1081ZM62.0907 54.7903L66.1069 54.0822L70.0621 76.454L66.0459 77.1621L62.0907 54.7903ZM64.0604 54.443L74.1546 52.6631L74.8347 56.5097L64.7404 58.2896L64.0604 54.443ZM84.4951 50.8398L87.1726 50.3677L98.083 71.5132L93.9129 72.2484L87.1423 58.0046L85.6651 73.7027L81.5105 74.4353L84.4951 50.8398ZM84.0725 66.3996L93.0127 64.8232L93.6873 68.639L84.7471 70.2154L84.0725 66.3996ZM99.9283 58.2569L105.483 57.2775C105.894 57.2051 106.231 57.0504 106.496 56.8133C106.769 56.5641 106.957 56.2507 107.06 55.873C107.172 55.4935 107.188 55.0729 107.106 54.6113L106.875 53.3035C106.79 52.8214 106.634 52.4204 106.409 52.1006C106.181 51.7705 105.897 51.5403 105.557 51.41C105.225 51.2675 104.848 51.2334 104.428 51.3075L98.8729 52.287L98.1901 48.425L103.745 47.4456C104.997 47.2249 106.127 47.2742 107.135 47.5935C108.152 47.9007 108.986 48.4623 109.638 49.2781C110.299 50.0819 110.736 51.089 110.95 52.2994L111.282 54.1765C111.494 55.3767 111.427 56.4621 111.08 57.4329C110.733 58.4037 110.141 59.2116 109.303 59.8565C108.463 60.4911 107.418 60.9188 106.166 61.1394L100.611 62.1189L99.9283 58.2569ZM96.3436 48.7506L100.36 48.0425L104.315 70.4143L100.299 71.1224L96.3436 48.7506ZM120.953 54.8511L123.072 44.0377L127.457 43.2644L124.433 57.03L120.953 54.8511ZM121.326 57.2288L124.528 54.6968L132.351 65.4707L127.704 66.2901L121.326 57.2288ZM113.208 45.7769L117.225 45.0687L121.18 67.4406L117.164 68.1487L113.208 45.7769ZM116.611 54.7917L123.535 53.5708L124.218 57.4328L117.294 58.6537L116.611 54.7917ZM129.273 42.9443L133.535 42.1927L141.192 57.6766L139.205 61.2477L129.273 42.9443ZM142.66 59.3375C142.541 60.3421 142.299 61.2152 141.933 61.9567C141.567 62.6982 141.065 63.2997 140.427 63.7612C139.789 64.2227 139.009 64.5348 138.085 64.6976L136.008 65.0639L135.314 61.1404L136.93 60.8555C137.371 60.7777 137.749 60.6106 138.063 60.3542C138.376 60.0876 138.622 59.7428 138.801 59.3198C138.988 58.8848 139.11 58.3768 139.166 57.7958L140.506 40.9636L144.599 40.2419L142.66 59.3375ZM150.184 49.3955L155.739 48.416C156.15 48.3436 156.487 48.1889 156.752 47.9518C157.025 47.7026 157.213 47.3892 157.316 47.0115C157.428 46.632 157.444 46.2115 157.362 45.7499L157.131 44.442C157.046 43.9599 156.89 43.559 156.665 43.2391C156.437 42.9091 156.153 42.6788 155.813 42.5485C155.481 42.406 155.104 42.3719 154.684 42.4461L149.129 43.4255L148.446 39.5636L154.001 38.5841C155.253 38.3634 156.383 38.4127 157.391 38.732C158.408 39.0393 159.242 39.6008 159.894 40.4167C160.555 41.2204 160.992 42.2275 161.206 43.4379L161.538 45.3151C161.75 46.5152 161.683 47.6007 161.336 48.5714C160.989 49.5422 160.397 50.3501 159.559 50.995C158.719 51.6296 157.674 52.0573 156.422 52.278L150.867 53.2574L150.184 49.3955ZM146.6 39.8891L150.616 39.181L154.571 61.5528L150.555 62.261L146.6 39.8891Z" fill="white"/>
<rect x="1.44661" y="1.55143" width="169" height="73.0001" transform="matrix(0.999391 0.0348995 -0.0349832 0.999388 223.625 122.955)" fill="#1E5B9C"/>
<rect x="1.44661" y="1.55143" width="169" height="73.0001" transform="matrix(0.999391 0.0348995 -0.0349832 0.999388 223.625 122.955)" stroke="white" stroke-width="3" stroke-dasharray="10 10"/>
<path d="M264.754 172.049C262.662 171.976 260.882 171.591 259.416 170.894C257.95 170.196 256.848 169.214 256.111 167.948C255.384 166.672 255.052 165.149 255.114 163.38L255.184 161.365C255.246 159.606 255.684 158.12 256.497 156.908C257.322 155.686 258.49 154.779 260.001 154.185C261.512 153.592 263.314 153.332 265.407 153.405C267.51 153.478 269.289 153.863 270.745 154.56C272.211 155.258 273.312 156.245 274.049 157.521C274.787 158.787 275.125 160.3 275.063 162.059L274.992 164.074C274.931 165.843 274.487 167.339 273.663 168.561C272.839 169.773 271.671 170.675 270.16 171.269C268.659 171.863 266.857 172.123 264.754 172.049ZM263.415 150.912L267.568 151.057L266.746 174.542L262.593 174.397L263.415 150.912ZM264.887 168.239C266.813 168.306 268.31 167.973 269.378 167.239C270.457 166.495 271.022 165.394 271.073 163.937L271.144 161.922C271.194 160.475 270.707 159.348 269.683 158.541C268.669 157.724 267.199 157.282 265.273 157.215C263.347 157.147 261.85 157.486 260.782 158.23C259.714 158.965 259.155 160.055 259.104 161.502L259.033 163.516C258.982 164.974 259.464 166.111 260.477 166.928C261.492 167.735 262.962 168.172 264.887 168.239ZM279.497 162.245L285.134 162.442C285.55 162.457 285.913 162.376 286.221 162.199C286.54 162.012 286.79 161.744 286.968 161.396C287.158 161.049 287.261 160.64 287.277 160.172L287.324 158.845C287.341 158.355 287.272 157.931 287.118 157.571C286.964 157.201 286.734 156.917 286.429 156.718C286.134 156.51 285.773 156.398 285.346 156.384L279.709 156.187L279.846 152.267L285.483 152.464C286.753 152.508 287.848 152.792 288.768 153.314C289.699 153.826 290.398 154.548 290.865 155.482C291.344 156.405 291.561 157.481 291.518 158.71L291.452 160.615C291.409 161.833 291.117 162.881 290.576 163.758C290.034 164.635 289.286 165.303 288.332 165.759C287.379 166.205 286.267 166.406 284.997 166.362L279.36 166.165L279.497 162.245ZM277.972 152.202L282.048 152.344L281.253 175.049L277.177 174.907L277.972 152.202ZM304.927 175.86L305.515 159.042L305.859 159.492L298.399 175.632L294.292 175.489L295.087 152.799L298.897 152.932L298.302 169.938L297.942 169.487L305.44 153.161L309.531 153.304L308.737 175.993L304.927 175.86ZM314.944 163.483L320.581 163.68C320.997 163.695 321.36 163.614 321.668 163.437C321.988 163.25 322.237 162.982 322.416 162.634C322.605 162.286 322.708 161.878 322.724 161.41L322.771 160.082C322.788 159.593 322.719 159.169 322.565 158.809C322.411 158.439 322.182 158.155 321.876 157.956C321.581 157.748 321.22 157.636 320.793 157.621L315.156 157.425L315.293 153.505L320.93 153.702C322.2 153.746 323.295 154.029 324.215 154.551C325.146 155.063 325.845 155.786 326.312 156.72C326.791 157.643 327.009 158.719 326.966 159.948L326.899 161.853C326.856 163.071 326.564 164.118 326.023 164.996C325.481 165.873 324.734 166.54 323.779 166.997C322.826 167.443 321.714 167.644 320.444 167.6L314.807 167.403L314.944 163.483ZM313.419 153.44L317.495 153.582L316.7 176.287L312.625 176.144L313.419 153.44ZM334.531 154.177L337.249 154.272L343.512 177.223L339.28 177.075L335.627 161.735L330.91 176.783L326.694 176.636L334.531 154.177ZM330.875 169.308L339.947 169.625L339.812 173.498L330.739 173.181L330.875 169.308ZM356.237 154.935L360.313 155.077L359.518 177.782L355.442 177.64L356.237 154.935ZM346.555 154.597L350.631 154.739L349.836 177.444L345.761 177.302L346.555 154.597ZM348.126 164.204L358.542 164.568L358.406 168.441L347.991 168.077L348.126 164.204Z" fill="white"/>
<rect x="1.44661" y="1.55143" width="177" height="73.0001" transform="matrix(0.999391 0.0348995 -0.0349832 0.999388 286.787 0.401636)" fill="#1E5B9C"/>
<rect x="1.44661" y="1.55143" width="177" height="73.0001" transform="matrix(0.999391 0.0348995 -0.0349832 0.999388 286.787 0.401636)" stroke="white" stroke-width="3" stroke-dasharray="10 10"/>
<path d="M321.097 47.7886L326.422 47.9746C327.151 48 327.719 47.8375 328.128 47.4869C328.546 47.1368 328.767 46.6338 328.79 45.9779L328.844 44.432C328.861 43.9635 328.781 43.5594 328.605 43.2198C328.44 42.8701 328.184 42.6005 327.836 42.4112C327.499 42.2222 327.086 42.1192 326.596 42.1021L321.303 41.9172L321.438 38.0602L326.684 38.2435C327.351 38.2667 327.872 38.1025 328.25 37.7509C328.637 37.3892 328.843 36.87 328.867 36.1934L328.91 34.9754C328.93 34.382 328.759 33.9174 328.395 33.5816C328.043 33.2357 327.533 33.0512 326.867 33.0279L321.62 32.8447L321.756 28.972L327.268 29.1645C328.517 29.2082 329.577 29.4588 330.447 29.9166C331.317 30.3639 331.967 31.0015 332.397 31.8295C332.826 32.6575 333.021 33.6441 332.981 34.7892L332.938 36.0072C332.911 36.788 332.736 37.475 332.413 38.0683C332.09 38.6615 331.63 39.1458 331.033 39.521C330.437 39.8858 329.73 40.1217 328.913 40.2287C329.784 40.3737 330.524 40.6654 331.134 41.1036C331.744 41.5314 332.199 42.0789 332.499 42.746C332.809 43.4135 332.949 44.1845 332.919 45.0589L332.864 46.6205C332.823 47.776 332.56 48.757 332.073 49.5634C331.587 50.3594 330.893 50.9554 329.994 51.3513C329.094 51.7472 328.024 51.9236 326.786 51.8803L320.961 51.6769L321.097 47.7886ZM319.71 28.9006L323.786 29.0429L322.991 51.7478L318.915 51.6055L319.71 28.9006ZM342.299 52.6566C340.873 52.6067 339.639 52.2874 338.596 51.6986C337.554 51.0994 336.765 50.2744 336.228 49.2238C335.692 48.1732 335.448 46.9504 335.497 45.5554L335.828 36.0925C335.877 34.6975 336.205 33.4947 336.814 32.4841C337.423 31.4631 338.268 30.6952 339.349 30.1805C340.43 29.6659 341.684 29.4334 343.11 29.4832C344.547 29.5334 345.787 29.8529 346.829 30.4417C347.872 31.0306 348.661 31.8555 349.197 32.9165C349.734 33.9671 349.977 35.1899 349.929 36.5849L349.597 46.0479C349.548 47.4428 349.22 48.6456 348.611 49.6563C348.002 50.6669 347.157 51.4347 346.076 51.9598C344.995 52.4745 343.736 52.7067 342.299 52.6566ZM342.442 48.5809C343.025 48.6013 343.539 48.4994 343.985 48.2752C344.431 48.0406 344.776 47.7035 345.021 47.2639C345.265 46.8242 345.398 46.3025 345.419 45.6987L345.738 36.6105C345.758 36.0171 345.662 35.4926 345.449 35.037C345.235 34.5813 344.914 34.2262 344.485 33.9715C344.057 33.7064 343.551 33.5636 342.968 33.5433C342.385 33.5229 341.871 33.63 341.425 33.8646C340.99 34.0891 340.65 34.4212 340.405 34.8609C340.16 35.3005 340.027 35.817 340.007 36.4104L339.689 45.4986C339.667 46.1024 339.764 46.6321 339.977 47.0877C340.19 47.5434 340.506 47.9036 340.924 48.1683C341.353 48.423 341.859 48.5606 342.442 48.5809ZM355.027 40.1244L360.664 40.3212C361.08 40.3357 361.443 40.2546 361.751 40.0778C362.07 39.8909 362.319 39.6234 362.498 39.2752C362.688 38.9275 362.791 38.5193 362.807 38.0509L362.854 36.7236C362.871 36.2343 362.802 35.8098 362.648 35.45C362.494 35.0798 362.264 34.7956 361.959 34.5973C361.664 34.3889 361.303 34.2773 360.876 34.2624L355.239 34.0656L355.376 30.1461L361.013 30.3429C362.283 30.3873 363.378 30.6705 364.298 31.1925C365.228 31.7044 365.928 32.4272 366.395 33.3607C366.874 34.2842 367.091 35.3602 367.048 36.5886L366.982 38.4937C366.939 39.7117 366.647 40.7594 366.105 41.6369C365.564 42.5144 364.816 43.1814 363.862 43.638C362.909 44.0841 361.797 44.285 360.527 44.2407L354.889 44.0438L355.027 40.1244ZM353.502 30.0807L357.578 30.223L356.783 52.9278L352.707 52.7855L353.502 30.0807ZM376.3 41.1643L380.626 31.0278L385.077 31.1833L379.249 44.0189L376.3 41.1643ZM376.169 43.5674L379.828 41.7565L385.234 53.9214L380.518 53.7567L376.169 43.5674ZM370.617 30.6783L374.692 30.8206L373.897 53.5255L369.822 53.3831L370.617 30.6783ZM372.066 40.2034L379.092 40.4488L378.955 44.3683L371.928 44.1229L372.066 40.2034ZM393.228 31.4679L395.945 31.5628L402.208 54.5141L397.977 54.3663L394.323 39.0264L389.607 54.074L385.39 53.9268L393.228 31.4679ZM389.571 46.5995L398.644 46.9163L398.508 50.789L389.436 50.4721L389.571 46.5995ZM402.316 31.7853L406.642 31.9363L410.902 48.6733L408.215 51.7533L402.316 31.7853ZM411.992 50.6032C411.666 51.5611 411.247 52.3647 410.735 53.0139C410.222 53.6631 409.606 54.1471 408.886 54.4659C408.166 54.7847 407.338 54.9277 406.401 54.895L404.293 54.8214L404.432 50.8395L406.072 50.8967C406.519 50.9124 406.924 50.8275 407.284 50.642C407.646 50.4462 407.958 50.16 408.221 49.7836C408.495 49.3971 408.72 48.9255 408.896 48.3688L413.715 32.1833L417.869 32.3284L411.992 50.6032ZM424.018 34.4193L428.094 34.5616L427.365 55.3926L423.289 55.2503L424.018 34.4193ZM419.118 32.372L433.125 32.8612L432.988 36.7806L418.981 36.2915L419.118 32.372Z" fill="white"/>
<rect x="1.69472" y="1.27656" width="177" height="73.0021" transform="matrix(0.990268 -0.139173 0.139548 0.990215 -0.161648 231.475)" fill="#1E5B9C"/>
<rect x="1.69472" y="1.27656" width="177" height="73.0021" transform="matrix(0.990268 -0.139173 0.139548 0.990215 -0.161648 231.475)" stroke="white" stroke-width="3" stroke-dasharray="10 10"/>
<path d="M40.291 255.008L44.3294 254.44L47.2381 275.08L43.1997 275.648L40.291 255.008ZM35.109 253.843L48.9882 251.892L49.5355 255.776L35.6562 257.726L35.109 253.843ZM54.389 261.215L59.9747 260.43C60.3873 260.372 60.7301 260.23 61.0031 260.002C61.2849 259.762 61.4837 259.456 61.5993 259.082C61.7252 258.707 61.7555 258.287 61.6901 257.823L61.5047 256.507C61.4364 256.023 61.295 255.617 61.0805 255.289C60.8646 254.951 60.5888 254.711 60.2532 254.569C59.9265 254.415 59.5516 254.368 59.1287 254.427L53.543 255.212L52.9957 251.329L58.5814 250.544C59.8399 250.367 60.9675 250.456 61.9641 250.81C62.9697 251.152 63.784 251.743 64.4071 252.581C65.039 253.407 65.4407 254.429 65.6122 255.646L65.8782 257.534C66.0483 258.741 65.9431 259.823 65.5627 260.781C65.1823 261.739 64.562 262.526 63.7019 263.141C62.8404 263.746 61.7805 264.137 60.522 264.314L54.9363 265.099L54.389 261.215ZM51.1389 251.59L55.1774 251.022L58.3477 273.519L54.3093 274.086L51.1389 251.59ZM81.8025 270.206L79.4542 253.543L79.8711 253.926L75.3348 271.115L71.2654 271.687L68.0973 249.206L71.8727 248.676L74.2471 265.525L73.8147 265.144L78.3558 247.765L82.4097 247.195L85.5779 269.676L81.8025 270.206ZM93.6852 255.993L96.1806 245.26L100.59 244.64L97.0862 258.292L93.6852 255.993ZM93.9746 258.382L97.263 255.963L104.705 267.004L100.032 267.66L93.9746 258.382ZM86.2625 246.653L90.3009 246.086L93.4713 268.582L89.4328 269.15L86.2625 246.653ZM89.3477 255.782L96.3106 254.803L96.8579 258.687L89.895 259.665L89.3477 255.782ZM117.328 265.214L114.98 248.55L115.397 248.933L110.861 266.123L106.791 266.695L103.623 244.214L107.399 243.683L109.773 260.532L109.341 260.151L113.882 242.772L117.936 242.202L121.104 264.683L117.328 265.214ZM131.382 240.312L135.42 239.745L138.59 262.241L134.552 262.809L131.382 240.312ZM121.788 241.661L125.827 241.093L128.997 263.589L124.959 264.157L121.788 241.661ZM125.008 250.849L135.329 249.398L135.869 253.235L125.549 254.686L125.008 250.849ZM139.273 239.203L143.311 238.636L146.482 261.132L142.443 261.7L139.273 239.203ZM141.191 238.934L150.104 237.681L150.651 241.565L141.739 242.817L141.191 238.934Z" fill="white"/>
<rect x="1.27607" y="1.69408" width="263" height="73.0022" transform="matrix(0.990268 0.139173 -0.139552 0.990215 226.034 256.329)" fill="#1E5B9C"/>
<rect x="1.27607" y="1.69408" width="263" height="73.0022" transform="matrix(0.990268 0.139173 -0.139552 0.990215 226.034 256.329)" stroke="white" stroke-width="3" stroke-dasharray="10 10"/>
<path d="M258.927 311.877C257.504 311.677 256.325 311.233 255.391 310.544C254.459 309.845 253.799 308.932 253.41 307.804C253.022 306.677 252.934 305.365 253.144 303.87L254.39 295.035C254.6 293.539 255.048 292.303 255.733 291.327C256.419 290.34 257.306 289.644 258.394 289.239C259.483 288.824 260.74 288.717 262.163 288.917C263.566 289.114 264.708 289.558 265.589 290.25C266.47 290.942 267.093 291.892 267.459 293.101C267.837 294.301 267.956 295.774 267.815 297.521L263.668 296.939C263.721 296.115 263.676 295.425 263.533 294.869C263.401 294.313 263.173 293.882 262.848 293.573C262.525 293.254 262.105 293.058 261.59 292.986C261.043 292.909 260.557 292.962 260.131 293.144C259.708 293.316 259.36 293.614 259.09 294.039C258.821 294.453 258.642 294.981 258.552 295.62L257.307 304.455C257.217 305.094 257.243 305.65 257.387 306.123C257.531 306.595 257.782 306.978 258.141 307.27C258.501 307.552 258.954 307.731 259.501 307.808C260.017 307.881 260.473 307.813 260.87 307.606C261.278 307.401 261.622 307.049 261.903 306.552C262.195 306.046 262.424 305.389 262.591 304.582L266.737 305.165C266.38 306.882 265.858 308.27 265.172 309.331C264.487 310.381 263.626 311.118 262.588 311.54C261.551 311.962 260.33 312.075 258.927 311.877ZM276.277 301.519L281.642 291.891L286.052 292.511L278.91 304.666L276.277 301.519ZM275.895 303.895L279.724 302.477L283.825 315.14L279.152 314.483L275.895 303.895ZM271.724 290.497L275.762 291.065L272.592 313.561L268.553 312.994L271.724 290.497ZM272.166 300.121L279.129 301.1L278.582 304.983L271.619 304.005L272.166 300.121ZM289.084 292.937L293.123 293.505L289.952 316.001L285.914 315.433L289.084 292.937ZM288.075 311.745L298.999 313.28L298.447 317.195L287.523 315.66L288.075 311.745ZM289.374 302.524L299.06 303.885L298.509 307.799L288.823 306.438L289.374 302.524ZM290.693 293.163L301.617 294.698L301.066 298.613L290.142 297.078L290.693 293.163ZM311.926 319.073L314.274 302.41L314.569 302.893L305.458 318.164L301.389 317.593L304.557 295.112L308.333 295.642L305.958 312.491L305.648 312.006L314.816 296.553L318.87 297.123L315.701 319.604L311.926 319.073ZM317.195 290.198C316.974 291.765 316.4 292.926 315.473 293.679C314.547 294.433 313.351 294.706 311.886 294.501L311.762 294.483C310.298 294.277 309.224 293.685 308.541 292.705C307.859 291.726 307.628 290.452 307.849 288.884L311.094 289.372C311.004 290.011 311.052 290.528 311.238 290.923C311.437 291.308 311.747 291.53 312.17 291.59L312.294 291.607C312.727 291.668 313.087 291.54 313.374 291.223C313.662 290.895 313.851 290.411 313.941 289.772L317.195 290.198ZM326.298 300.06L330.337 300.628L327.428 321.268L323.389 320.7L326.298 300.06ZM321.639 297.512L335.519 299.463L334.971 303.346L321.092 301.396L321.639 297.512ZM336.996 318.652L342.318 319.4C342.772 319.464 343.179 319.416 343.538 319.256C343.909 319.087 344.214 318.825 344.454 318.47C344.695 318.104 344.851 317.663 344.924 317.147L345.05 316.25C345.126 315.713 345.099 315.236 344.968 314.818C344.85 314.391 344.635 314.051 344.323 313.797C344.013 313.532 343.631 313.368 343.178 313.304L337.855 312.556L338.402 308.673L344.019 309.462C345.257 309.636 346.295 310.034 347.133 310.657C347.971 311.28 348.572 312.085 348.938 313.072C349.305 314.05 349.402 315.157 349.227 316.395L348.977 318.174C348.805 319.391 348.408 320.419 347.785 321.257C347.162 322.095 346.357 322.692 345.371 323.048C344.394 323.405 343.293 323.497 342.065 323.325L336.448 322.536L336.996 318.652ZM337.669 299.765L341.708 300.333L338.537 322.829L334.499 322.262L337.669 299.765ZM339.588 300.035L349.97 301.494L349.423 305.377L339.041 303.918L339.588 300.035ZM357.614 325.747C356.2 325.548 355.006 325.102 354.031 324.407C353.058 323.702 352.359 322.799 351.936 321.698C351.512 320.598 351.398 319.356 351.593 317.974L352.914 308.598C353.109 307.216 353.562 306.054 354.273 305.112C354.986 304.161 355.907 303.485 357.036 303.087C358.165 302.688 359.436 302.588 360.85 302.786C362.273 302.986 363.472 303.434 364.447 304.128C365.423 304.823 366.121 305.726 366.543 306.837C366.967 307.938 367.081 309.179 366.886 310.561L365.565 319.938C365.37 321.32 364.917 322.481 364.206 323.423C363.494 324.364 362.573 325.04 361.443 325.449C360.314 325.848 359.037 325.947 357.614 325.747ZM358.183 321.709C358.76 321.79 359.283 321.742 359.749 321.566C360.217 321.379 360.596 321.08 360.886 320.668C361.175 320.257 361.362 319.752 361.446 319.154L362.715 310.149C362.798 309.561 362.757 309.029 362.593 308.554C362.429 308.078 362.146 307.692 361.747 307.393C361.348 307.085 360.86 306.89 360.283 306.809C359.705 306.728 359.182 306.781 358.714 306.967C358.258 307.145 357.885 307.44 357.595 307.851C357.306 308.263 357.12 308.763 357.037 309.351L355.768 318.356C355.683 318.954 355.723 319.491 355.888 319.966C356.052 320.441 356.329 320.833 356.717 321.14C357.116 321.438 357.605 321.627 358.183 321.709ZM371.585 314.614L377.171 315.399C377.584 315.457 377.953 315.414 378.278 315.271C378.615 315.118 378.891 314.878 379.105 314.551C379.33 314.225 379.475 313.83 379.54 313.365L379.726 312.05C379.794 311.566 379.77 311.136 379.655 310.762C379.541 310.378 379.342 310.071 379.059 309.842C378.787 309.604 378.44 309.456 378.017 309.396L372.431 308.611L372.979 304.728L378.564 305.513C379.823 305.689 380.882 306.086 381.742 306.701C382.614 307.307 383.233 308.099 383.601 309.076C383.98 310.045 384.083 311.138 383.912 312.355L383.646 314.242C383.476 315.449 383.075 316.46 382.445 317.277C381.815 318.093 381.001 318.678 380.004 319.032C379.009 319.376 377.882 319.46 376.624 319.283L371.038 318.498L371.585 314.614ZM371.122 304.467L375.16 305.034L371.99 327.531L367.951 326.963L371.122 304.467ZM383.91 325.245L384.266 325.295C385.039 325.404 385.69 325.08 386.217 324.323C386.745 323.566 387.117 322.414 387.336 320.867L389.287 307.02L393.155 307.563L391.319 320.591C391.068 322.375 390.647 323.868 390.057 325.068C389.477 326.27 388.696 327.149 387.713 327.705C386.74 328.262 385.558 328.443 384.165 328.248L383.5 328.154L383.91 325.245ZM383.631 325.206L387.438 325.741L386.278 333.972L382.471 333.437L383.631 325.206ZM383.631 325.206L399.847 327.485L399.3 331.369L383.084 329.09L383.631 325.206ZM397.263 327.122L401.069 327.657L399.909 335.888L396.103 335.353L397.263 327.122ZM397.519 308.176L401.557 308.744L398.387 331.24L394.348 330.673L397.519 308.176ZM391.887 307.385L399.344 308.433L398.797 312.317L391.339 311.268L391.887 307.385ZM413.924 333.408L416.272 316.745L416.567 317.228L407.456 332.499L403.387 331.927L406.555 309.446L410.33 309.977L407.956 326.826L407.645 326.341L416.813 310.888L420.867 311.458L417.699 333.939L413.924 333.408ZM434.313 313.348L438.352 313.915L435.181 336.412L431.143 335.844L434.313 313.348ZM424.72 311.999L428.759 312.567L425.588 335.063L421.55 334.496L424.72 311.999ZM425.275 321.718L435.596 323.169L435.055 327.006L424.735 325.555L425.275 321.718ZM442.205 314.457L446.243 315.024L443.072 337.521L439.034 336.953L442.205 314.457ZM444.123 314.726L453.036 315.979L452.488 319.862L443.576 318.61L444.123 314.726Z" fill="white"/>
</svg>
