<svg width="494" height="370" viewBox="0 0 494 370" fill="none" xmlns="http://www.w3.org/2000/svg">
<path d="M51.3742 58.5279L55.3898 57.8169L59.48 80.1644L55.4643 80.8754L51.3742 58.5279ZM53.282 58.1901L62.1442 56.621L62.8502 60.4788L53.9881 62.0479L53.282 58.1901ZM68.2497 65.6795L73.8039 64.6962C74.2142 64.6235 74.5512 64.4686 74.8149 64.2315C75.087 63.9824 75.2732 63.6691 75.3736 63.2916C75.4842 62.9124 75.4973 62.4922 75.4129 62.0311L75.1738 60.7247C75.0856 60.2431 74.9276 59.8427 74.6998 59.5233C74.47 59.1938 74.1844 58.964 73.8429 58.8341C73.5098 58.692 73.133 58.6583 72.7125 58.7327L67.1582 59.7161L66.4522 55.8583L72.0064 54.8749C73.2578 54.6534 74.3891 54.7017 75.4004 55.0198C76.42 55.3259 77.2586 55.8862 77.9159 56.7007C78.5817 57.5032 79.0252 58.5089 79.2465 59.718L79.5897 61.5931C79.8091 62.7919 79.7482 63.8764 79.4069 64.8466C79.0655 65.8168 78.4774 66.6244 77.6424 67.2694C76.8055 67.9042 75.7614 68.3324 74.51 68.554L68.9558 69.5373L68.2497 65.6795ZM64.6059 56.1852L68.6215 55.4742L72.7117 77.8218L68.696 78.5327L64.6059 56.1852ZM85.4073 52.5023L88.0845 52.0283L99.129 73.1445L94.9594 73.8828L88.099 59.6581L86.7127 75.3429L82.5586 76.0784L85.4073 52.5023ZM85.0757 68.0479L94.0148 66.4652L94.7125 70.2769L85.7734 71.8596L85.0757 68.0479ZM109.078 68.9235C107.017 69.2885 105.194 69.2832 103.611 68.9076C102.028 68.5321 100.74 67.8027 99.748 66.7196C98.7639 65.6244 98.1125 64.2058 97.7936 62.4639L97.4308 60.4813C97.1138 58.7496 97.2233 57.2069 97.7591 55.8532C98.3034 54.4874 99.2508 53.3571 100.601 52.4621C101.952 51.5671 103.658 50.9371 105.72 50.5721C107.791 50.2052 109.614 50.2105 111.187 50.5879C112.77 50.9635 114.058 51.698 115.053 52.7914C116.045 53.8745 116.7 55.2819 117.017 57.0135L117.38 58.9962C117.698 60.7381 117.586 62.292 117.042 63.6577C116.495 65.0133 115.547 66.1385 114.197 67.0335C112.856 67.9267 111.15 68.5567 109.078 68.9235ZM103.237 48.5521L107.33 47.8275L111.561 70.9435L107.468 71.6681L103.237 48.5521ZM108.392 65.1733C110.289 64.8373 111.682 64.1994 112.569 63.2596C113.464 62.3077 113.78 61.1145 113.518 59.68L113.155 57.6973C112.894 56.273 112.177 55.2735 111.002 54.6987C109.835 54.1118 108.303 53.9863 106.406 54.3223C104.508 54.6583 103.117 55.3013 102.232 56.2514C101.345 57.1912 101.032 58.3733 101.293 59.7975L101.655 61.7802C101.918 63.2147 102.632 64.2254 103.799 64.8123C104.963 65.3889 106.494 65.5093 108.392 65.1733ZM129.88 65.2406C127.818 65.6056 125.996 65.6003 124.413 65.2247C122.83 64.8491 121.542 64.1198 120.549 63.0366C119.565 61.9415 118.914 60.5229 118.595 58.781L118.232 56.7983C117.915 55.0667 118.025 53.524 118.561 52.1703C119.105 50.8045 120.052 49.6741 121.403 48.7791C122.753 47.8842 124.459 47.2542 126.521 46.8891C128.593 46.5223 130.415 46.5276 131.988 46.905C133.571 47.2806 134.86 48.0151 135.854 49.1084C136.847 50.1916 137.501 51.5989 137.818 53.3306L138.181 55.3133C138.5 57.0552 138.387 58.609 137.843 59.9748C137.297 61.3303 136.349 62.4556 134.998 63.3506C133.658 64.2437 131.952 64.8737 129.88 65.2406ZM124.039 44.8691L128.131 44.1445L132.362 67.2606L128.27 67.9852L124.039 44.8691ZM129.193 61.4904C131.091 61.1544 132.483 60.5165 133.37 59.5766C134.265 58.6247 134.582 57.4315 134.319 55.997L133.956 54.0143C133.696 52.5901 132.978 51.5905 131.803 51.0157C130.637 50.4288 129.105 50.3034 127.207 50.6394C125.31 50.9753 123.919 51.6183 123.033 52.5684C122.147 53.5083 121.833 54.6903 122.094 56.1146L122.457 58.0973C122.719 59.5318 123.434 60.5425 124.6 61.1294C125.765 61.706 127.296 61.8263 129.193 61.4904ZM153.115 63.5704L150.085 47.0173L150.518 47.385L146.683 64.7091L142.637 65.4255L138.55 43.0934L142.304 42.4287L145.367 59.1663L144.919 58.8013L148.75 41.2873L152.781 40.5736L156.869 62.9058L153.115 63.5704ZM160.766 41.0641L164.781 40.3531L168.534 60.8563L164.518 61.5673L160.766 41.0641ZM155.535 40.086L169.336 37.6425L170.042 41.5003L156.241 43.9438L155.535 40.086ZM186.04 57.7409L183.01 41.1878L183.443 41.5555L179.609 58.8796L175.562 59.596L171.475 37.2639L175.229 36.5992L178.293 53.3368L177.845 52.9718L181.676 35.4578L185.707 34.7441L189.794 57.0763L186.04 57.7409Z" fill="black"/>
<path d="M174.592 151.379L178.896 141.23L183.347 141.371L177.547 154.224L174.592 151.379ZM174.466 153.782L178.121 151.96L183.553 164.108L178.837 163.958L174.466 153.782ZM168.886 140.911L172.962 141.041L172.215 163.747L168.139 163.617L168.886 140.911ZM170.355 150.431L177.383 150.655L177.254 154.575L170.226 154.351L170.355 150.431ZM191.499 141.631L194.217 141.717L200.529 164.648L196.297 164.514L192.611 149.185L187.926 164.247L183.709 164.113L191.499 141.631ZM187.875 156.773L196.948 157.062L196.821 160.935L187.747 160.646L187.875 156.773ZM202.75 160.811C203.281 160.828 203.733 160.717 204.105 160.479C204.488 160.241 204.782 159.88 204.985 159.397C205.189 158.913 205.302 158.318 205.325 157.61L205.836 142.087L209.912 142.217L209.391 158.052C209.342 159.541 209.061 160.787 208.549 161.792C208.047 162.798 207.319 163.551 206.364 164.052C205.42 164.543 204.272 164.767 202.918 164.724L202.621 164.715L202.75 160.811ZM214.535 142.364L218.611 142.493L217.864 165.2L213.788 165.07L214.535 142.364ZM208.288 142.165L216.44 142.424L216.311 146.344L208.159 146.085L208.288 142.165ZM221.116 161.395C221.647 161.412 222.098 161.301 222.471 161.063C222.854 160.825 223.147 160.464 223.351 159.981C223.554 159.498 223.668 158.902 223.691 158.194L224.202 142.671L228.278 142.801L227.757 158.636C227.708 160.125 227.427 161.372 226.915 162.377C226.413 163.382 225.684 164.136 224.73 164.637C223.786 165.128 222.637 165.352 221.284 165.309L220.987 165.299L221.116 161.395ZM232.9 142.948L236.976 143.078L236.229 165.784L232.153 165.655L232.9 142.948ZM226.654 142.749L234.806 143.009L234.677 146.929L226.525 146.669L226.654 142.749ZM250.769 166.231L251.323 149.412L251.668 149.861L244.242 166.024L240.134 165.893L240.881 143.202L244.691 143.323L244.132 160.33L243.771 159.881L251.235 143.532L255.327 143.662L254.58 166.353L250.769 166.231ZM259.215 143.786L263.291 143.915L262.544 166.622L258.468 166.492L259.215 143.786ZM261.152 143.847L270.147 144.133L270.018 148.053L261.023 147.767L261.152 143.847ZM274.192 154.252L279.829 154.431C280.246 154.444 280.608 154.362 280.916 154.184C281.235 153.996 281.484 153.728 281.662 153.379C281.851 153.031 281.953 152.623 281.968 152.154L282.012 150.827C282.028 150.337 281.958 149.913 281.803 149.554C281.649 149.184 281.418 148.901 281.112 148.703C280.817 148.496 280.456 148.385 280.029 148.372L274.391 148.192L274.52 144.273L280.158 144.452C281.428 144.492 282.523 144.772 283.444 145.291C284.376 145.8 285.077 146.521 285.546 147.453C286.027 148.375 286.247 149.45 286.206 150.679L286.144 152.584C286.103 153.802 285.814 154.851 285.274 155.73C284.734 156.609 283.988 157.278 283.035 157.738C282.082 158.187 280.971 158.391 279.7 158.351L274.063 158.171L274.192 154.252ZM272.646 144.213L276.722 144.343L275.975 167.049L271.899 166.919L272.646 144.213ZM293.76 144.885L296.478 144.971L302.79 167.902L298.557 167.768L294.872 152.44L290.187 167.501L285.97 167.367L293.76 144.885ZM290.135 160.027L299.209 160.316L299.081 164.189L290.008 163.9L290.135 160.027ZM313.411 165.817C311.318 165.751 309.538 165.371 308.07 164.678C306.603 163.985 305.499 163.007 304.759 161.743C304.029 160.469 303.694 158.948 303.752 157.178L303.818 155.163C303.876 153.404 304.311 151.917 305.122 150.702C305.944 149.478 307.11 148.567 308.62 147.968C310.13 147.37 311.931 147.105 314.024 147.171C316.127 147.238 317.907 147.618 319.365 148.31C320.832 149.003 321.936 149.987 322.676 151.261C323.416 152.525 323.757 154.036 323.699 155.796L323.633 157.81C323.574 159.58 323.134 161.077 322.312 162.302C321.491 163.516 320.325 164.422 318.815 165.02C317.315 165.619 315.514 165.884 313.411 165.817ZM312.027 144.685L316.181 144.817L315.408 168.304L311.254 168.172L312.027 144.685ZM313.536 162.007C315.462 162.068 316.958 161.73 318.025 160.993C319.102 160.246 319.665 159.143 319.713 157.686L319.779 155.671C319.827 154.224 319.337 153.098 318.311 152.295C317.296 151.481 315.825 151.043 313.899 150.982C311.973 150.92 310.476 151.264 309.409 152.011C308.343 152.749 307.786 153.841 307.738 155.288L307.672 157.302C307.624 158.76 308.108 159.896 309.123 160.71C310.139 161.513 311.61 161.946 313.536 162.007ZM336.476 168.959L337.029 152.14L337.374 152.588L329.948 168.751L325.841 168.62L326.587 145.93L330.398 146.051L329.838 163.057L329.478 162.608L336.941 146.259L341.033 146.389L340.287 169.08L336.476 168.959ZM349.866 160.646C348.606 160.606 347.521 160.321 346.611 159.792C345.701 159.253 345.007 158.506 344.527 157.553C344.059 156.59 343.845 155.473 343.887 154.203L343.941 152.563C343.982 151.324 344.267 150.254 344.797 149.354C345.327 148.444 346.064 147.758 347.006 147.298C347.96 146.839 349.066 146.629 350.326 146.669L355.698 146.84L355.569 150.76L350.728 150.606C350.207 150.589 349.751 150.684 349.358 150.891C348.976 151.097 348.674 151.406 348.452 151.815C348.241 152.226 348.126 152.712 348.107 153.274L348.086 153.914C348.068 154.476 348.156 154.969 348.35 155.392C348.545 155.815 348.826 156.142 349.194 156.373C349.561 156.603 350.005 156.727 350.526 156.743L355.367 156.897L355.238 160.817L349.866 160.646ZM348.328 159.409L352.271 160.254L347.892 169.338L343.316 169.192L348.328 159.409ZM353.73 146.778L357.822 146.908L357.075 169.63L352.983 169.5L353.73 146.778Z" fill="black"/>
<path d="M343.156 28.9301L347.232 29.0598L346.485 51.7662L342.409 51.6365L343.156 28.9301ZM333.474 28.6219L337.55 28.7517L336.803 51.4581L332.727 51.3284L333.474 28.6219ZM335.473 28.6856L345.718 29.0116L345.589 32.9157L335.344 32.5897L335.473 28.6856ZM357.175 52.3409C355.749 52.2955 354.514 51.9801 353.47 51.3945C352.427 50.7985 351.636 49.976 351.097 48.9271C350.558 47.8782 350.312 46.6562 350.358 45.2611L350.669 35.7975C350.715 34.4024 351.041 33.1986 351.648 32.1862C352.255 31.1633 353.098 30.3929 354.178 29.8749C355.258 29.3569 356.512 29.1206 357.938 29.166C359.375 29.2117 360.615 29.5273 361.659 30.1129C362.703 30.6985 363.494 31.521 364.032 32.5803C364.571 33.6292 364.817 34.8512 364.771 36.2463L364.46 45.7099C364.414 47.105 364.088 48.3088 363.481 49.3212C362.875 50.3337 362.031 51.1041 360.951 51.6325C359.871 52.1505 358.612 52.3867 357.175 52.3409ZM357.31 48.265C357.893 48.2836 358.407 48.1801 358.852 47.9545C359.297 47.7186 359.642 47.3804 359.886 46.94C360.13 46.4996 360.261 45.9775 360.281 45.3737L360.58 36.2849C360.6 35.6914 360.502 35.1672 360.288 34.7123C360.074 34.2573 359.752 33.9031 359.322 33.6498C358.893 33.386 358.387 33.2448 357.804 33.2263C357.221 33.2077 356.707 33.3164 356.261 33.5524C355.827 33.7782 355.487 34.1114 355.244 34.5517C355 34.9921 354.868 35.509 354.849 36.1025L354.55 45.1913C354.53 45.7951 354.627 46.3245 354.841 46.7795C355.056 47.2345 355.372 47.5937 355.791 47.8571C356.22 48.1105 356.727 48.2465 357.31 48.265ZM373.855 52.8717C372.418 52.826 371.198 52.511 370.196 51.9267C369.194 51.3321 368.44 50.4952 367.934 49.416C367.427 48.3369 367.199 47.0425 367.249 45.5329L367.542 36.6158C367.592 35.1062 367.905 33.8291 368.481 32.7844C369.058 31.7293 369.865 30.9421 370.904 30.4228C371.942 29.893 373.18 29.651 374.617 29.6967C376.033 29.7418 377.216 30.0608 378.166 30.6538C379.115 31.2469 379.837 32.1244 380.33 33.2865C380.834 34.4386 381.109 35.8908 381.156 37.6431L376.971 37.5099C376.935 36.6855 376.817 36.0043 376.616 35.4664C376.425 34.9288 376.152 34.524 375.796 34.2522C375.44 33.9699 375.002 33.8205 374.482 33.8039C373.93 33.7863 373.452 33.891 373.049 34.1179C372.646 34.3343 372.332 34.6683 372.109 35.1197C371.886 35.5608 371.764 36.104 371.743 36.7495L371.45 45.6666C371.428 46.3121 371.514 46.8619 371.708 47.3162C371.901 47.7705 372.192 48.1237 372.58 48.3758C372.968 48.6174 373.438 48.747 373.99 48.7646C374.51 48.7811 374.957 48.6651 375.33 48.4164C375.713 48.168 376.018 47.7817 376.244 47.2574C376.48 46.7229 376.638 46.0453 376.717 45.2245L380.902 45.3577C380.73 47.1031 380.36 48.54 379.791 49.6683C379.223 50.7862 378.445 51.6108 377.459 52.1422C376.472 52.6736 375.27 52.9168 373.855 52.8717ZM387.166 32.2065L391.242 32.3363L390.557 53.1687L386.481 53.039L387.166 32.2065ZM382.262 30.1745L396.27 30.6203L396.141 34.5401L382.133 34.0943L382.262 30.1745ZM398.441 30.6894L402.517 30.8191L401.77 53.5256L397.694 53.3959L398.441 30.6894ZM399.448 49.4966L410.474 49.8474L410.344 53.7984L399.318 53.4475L399.448 49.4966ZM399.754 40.1891L409.531 40.5002L409.401 44.4512L399.624 44.1401L399.754 40.1891ZM400.065 30.7411L411.091 31.0919L410.961 35.0429L399.935 34.6921L400.065 30.7411ZM415.604 41.225L421.242 41.4044C421.658 41.4176 422.02 41.3354 422.328 41.1576C422.647 40.9697 422.896 40.7014 423.074 40.3528C423.263 40.0044 423.365 39.596 423.38 39.1275L423.424 37.8001C423.44 37.3108 423.37 36.8865 423.215 36.5272C423.061 36.1575 422.83 35.874 422.524 35.6767C422.229 35.4693 421.868 35.3588 421.441 35.3452L415.803 35.1658L415.932 31.246L421.57 31.4254C422.84 31.4658 423.936 31.7456 424.857 32.2648C425.788 32.7738 426.489 33.4944 426.958 34.4265C427.439 35.3485 427.659 36.4237 427.618 37.6522L427.556 39.5574C427.516 40.7755 427.226 41.8241 426.686 42.7032C426.147 43.5823 425.4 44.2517 424.447 44.7111C423.494 45.1602 422.383 45.3646 421.113 45.3242L415.475 45.1447L415.604 41.225ZM414.058 31.1864L418.134 31.3161L417.387 54.0226L413.311 53.8928L414.058 31.1864ZM432.524 50.5804L437.115 50.7265C437.574 50.7411 437.973 50.6496 438.313 50.4519C438.663 50.2443 438.939 49.9508 439.139 49.5715C439.339 49.1819 439.448 48.7268 439.465 48.2062L439.495 47.3005C439.513 46.7591 439.435 46.2876 439.26 45.886C439.097 45.4744 438.846 45.159 438.51 44.9398C438.173 44.7102 437.776 44.5882 437.318 44.5736L432.726 44.4275L432.855 40.5077L437.744 40.6633C438.993 40.703 440.068 40.9874 440.967 41.5162C441.867 42.0451 442.552 42.7808 443.021 43.7233C443.49 44.6554 443.705 45.7461 443.664 46.9954L443.605 48.7913C443.564 50.0198 443.279 51.0842 442.749 51.9845C442.219 52.8847 441.483 53.5648 440.54 54.0246C439.608 54.4848 438.522 54.6951 437.283 54.6557L432.395 54.5002L432.524 50.5804ZM431.174 31.7311L435.25 31.8608L434.503 54.5672L430.427 54.4375L431.174 31.7311ZM449.23 55.0359L445.076 54.9037L445.823 32.1972L449.977 32.3294L449.23 55.0359Z" fill="black"/>
<path d="M50.9895 254.377L55.0245 253.785L58.1496 274.393L54.1147 274.985L50.9895 254.377ZM45.7923 253.244L59.6595 251.21L60.2475 255.088L46.3803 257.122L45.7923 253.244ZM70.6606 272.795C69.259 273 68.0367 272.895 66.9939 272.48C65.9511 272.064 65.0766 271.335 64.3704 270.291C63.673 269.235 63.1364 267.85 62.7606 266.137L66.9038 265.529C67.089 266.333 67.3253 266.988 67.6126 267.494C67.9087 267.987 68.2566 268.336 68.6564 268.541C69.0665 268.744 69.5292 268.807 70.0445 268.732C70.5907 268.652 71.0425 268.47 71.3998 268.186C71.7555 267.891 72.0028 267.508 72.1418 267.034C72.2808 266.561 72.3018 266.006 72.205 265.367L70.8673 256.546C70.7705 255.907 70.5854 255.382 70.3121 254.969C70.0373 254.546 69.6869 254.25 69.2609 254.081C68.8333 253.902 68.3464 253.852 67.8002 253.932C67.2849 254.008 66.862 254.207 66.5316 254.529C66.2099 254.839 65.9807 255.273 65.8439 255.83C65.7174 256.386 65.6849 257.075 65.7465 257.897L61.6033 258.505C61.444 256.76 61.542 255.287 61.8974 254.088C62.2616 252.876 62.8807 251.922 63.7548 251.225C64.6393 250.527 65.7824 250.075 67.184 249.869C68.596 249.662 69.8492 249.763 70.9435 250.171C72.0466 250.567 72.9414 251.257 73.6279 252.24C74.3232 253.212 74.784 254.445 75.0105 255.938L76.3482 264.759C76.5746 266.253 76.4995 267.564 76.1229 268.693C75.7566 269.82 75.1106 270.736 74.1849 271.441C73.2577 272.135 72.0829 272.586 70.6606 272.795ZM65.6158 259.954L73.392 258.813L73.9683 262.613L66.1921 263.754L65.6158 259.954ZM77.2988 248.622L81.3337 248.03L84.74 270.492L80.7051 271.084L77.2988 248.622ZM79.2158 248.341L88.1205 247.035L88.7085 250.912L79.8038 252.219L79.2158 248.341ZM90.594 246.672L94.6289 246.08L98.0352 268.542L94.0003 269.134L90.594 246.672ZM92.511 246.391L101.416 245.085L102.004 248.962L93.099 250.268L92.511 246.391ZM117.821 265.624L115.298 248.986L115.719 249.366L111.359 266.572L107.293 267.168L103.889 244.722L107.661 244.168L110.213 260.992L109.776 260.613L114.139 243.218L118.189 242.624L121.593 265.07L117.821 265.624ZM131.624 240.653L135.659 240.061L139.065 262.523L135.03 263.115L131.624 240.653ZM122.039 242.059L126.074 241.467L129.48 263.929L125.445 264.521L122.039 242.059ZM125.356 251.221L135.668 249.709L136.249 253.54L125.937 255.053L125.356 251.221ZM139.508 239.496L143.543 238.905L146.949 261.366L142.914 261.958L139.508 239.496ZM141.425 239.215L150.33 237.909L150.918 241.786L142.013 243.093L141.425 239.215Z" fill="black"/>
<path d="M237.129 314.788L241.205 314.918L240.458 337.625L236.382 337.495L237.129 314.788ZM227.446 314.48L231.523 314.61L230.776 337.317L226.699 337.187L227.446 314.48ZM229.445 314.544L239.69 314.87L239.562 318.774L229.317 318.448L229.445 314.544ZM250.185 315.204L252.902 315.29L259.214 338.222L254.982 338.087L251.297 322.759L246.611 337.82L242.395 337.686L250.185 315.204ZM246.56 330.346L255.634 330.635L255.506 334.508L246.433 334.219L246.56 330.346ZM263.637 334.47L268.962 334.639C269.691 334.662 270.259 334.498 270.667 334.146C271.085 333.795 271.305 333.291 271.326 332.635L271.377 331.089C271.393 330.621 271.312 330.217 271.136 329.878C270.97 329.529 270.713 329.26 270.365 329.072C270.027 328.884 269.614 328.782 269.124 328.766L263.83 328.598L263.957 324.741L269.204 324.908C269.871 324.929 270.392 324.763 270.768 324.41C271.156 324.047 271.36 323.528 271.382 322.851L271.423 321.633C271.442 321.039 271.27 320.575 270.906 320.241C270.552 319.896 270.042 319.713 269.376 319.692L264.129 319.525L264.256 315.652L269.769 315.827C271.018 315.867 272.078 316.114 272.949 316.569C273.82 317.014 274.472 317.65 274.903 318.476C275.335 319.303 275.531 320.289 275.494 321.434L275.454 322.652C275.428 323.433 275.254 324.12 274.932 324.715C274.611 325.309 274.152 325.795 273.556 326.172C272.96 326.538 272.254 326.776 271.437 326.886C272.308 327.028 273.049 327.318 273.66 327.754C274.271 328.18 274.728 328.726 275.029 329.392C275.34 330.058 275.482 330.829 275.453 331.703L275.402 333.265C275.364 334.421 275.102 335.403 274.617 336.21C274.132 337.008 273.44 337.606 272.541 338.005C271.642 338.403 270.573 338.583 269.334 338.544L263.509 338.358L263.637 334.47ZM262.21 315.587L266.286 315.716L265.539 338.423L261.463 338.293L262.21 315.587ZM279.264 316.129L283.34 316.259L282.593 338.966L278.517 338.836L279.264 316.129ZM280.271 334.936L291.297 335.287L291.167 339.238L280.141 338.887L280.271 334.936ZM280.577 325.629L290.354 325.94L290.224 329.891L280.447 329.58L280.577 325.629ZM280.888 316.181L291.914 316.532L291.784 320.483L280.758 320.132L280.888 316.181ZM296.427 326.665L302.065 326.844C302.481 326.858 302.843 326.775 303.151 326.598C303.47 326.41 303.719 326.141 303.897 325.793C304.086 325.444 304.188 325.036 304.203 324.567L304.247 323.24C304.263 322.751 304.193 322.326 304.039 321.967C303.884 321.597 303.654 321.314 303.347 321.117C303.052 320.909 302.691 320.799 302.264 320.785L296.626 320.606L296.755 316.686L302.393 316.865C303.663 316.906 304.759 317.186 305.68 317.705C306.611 318.214 307.312 318.934 307.782 319.866C308.262 320.788 308.482 321.864 308.441 323.092L308.379 324.997C308.339 326.215 308.049 327.264 307.509 328.143C306.97 329.022 306.223 329.692 305.27 330.151C304.317 330.6 303.206 330.805 301.936 330.764L296.298 330.585L296.427 326.665ZM294.881 316.626L298.957 316.756L298.21 339.462L294.134 339.333L294.881 316.626ZM313.347 336.02L318.719 336.191C319.178 336.206 319.577 336.114 319.917 335.917C320.267 335.709 320.543 335.416 320.743 335.036C320.943 334.647 321.052 334.192 321.069 333.671L321.099 332.765C321.117 332.224 321.038 331.752 320.864 331.351C320.7 330.939 320.45 330.624 320.114 330.405C319.777 330.175 319.38 330.053 318.922 330.038L313.55 329.867L313.678 325.948L319.347 326.128C320.597 326.168 321.671 326.452 322.571 326.981C323.471 327.51 324.155 328.246 324.625 329.188C325.094 330.12 325.309 331.211 325.268 332.46L325.208 334.256C325.168 335.485 324.883 336.549 324.353 337.449C323.823 338.35 323.087 339.03 322.144 339.489C321.212 339.95 320.126 340.16 318.887 340.12L313.218 339.94L313.347 336.02ZM311.997 317.171L316.073 317.301L315.326 340.007L311.25 339.877L311.997 317.171ZM313.934 317.233L324.413 317.566L324.284 321.486L313.805 321.152L313.934 317.233ZM334.606 340.855C333.18 340.81 331.944 340.494 330.901 339.909C329.857 339.313 329.066 338.49 328.527 337.441C327.989 336.392 327.742 335.17 327.788 333.775L328.099 324.312C328.145 322.917 328.472 321.713 329.078 320.7C329.685 319.678 330.528 318.907 331.609 318.389C332.689 317.871 333.942 317.635 335.368 317.68C336.805 317.726 338.045 318.042 339.089 318.627C340.133 319.213 340.924 320.035 341.462 321.095C342.001 322.143 342.248 323.365 342.202 324.761L341.89 334.224C341.844 335.619 341.518 336.823 340.912 337.835C340.305 338.848 339.462 339.618 338.381 340.147C337.301 340.665 336.043 340.901 334.606 340.855ZM334.74 336.779C335.323 336.798 335.837 336.694 336.282 336.469C336.728 336.233 337.072 335.895 337.316 335.454C337.56 335.014 337.692 334.492 337.712 333.888L338.011 324.799C338.03 324.206 337.933 323.682 337.718 323.227C337.504 322.772 337.182 322.417 336.753 322.164C336.324 321.9 335.818 321.759 335.235 321.741C334.652 321.722 334.137 321.831 333.692 322.067C333.257 322.293 332.918 322.626 332.674 323.066C332.43 323.506 332.299 324.023 332.279 324.617L331.98 333.706C331.96 334.309 332.058 334.839 332.272 335.294C332.486 335.749 332.803 336.108 333.221 336.371C333.651 336.625 334.157 336.761 334.74 336.779ZM358.568 318.653L363.206 318.801L362.459 341.507L358.789 341.39L359.34 324.649L359.494 325.655L355.274 337.996L352.416 337.905L348.989 325.633L349.267 324.329L348.716 341.07L345.015 340.952L345.762 318.245L350.431 318.394L354.021 332.343L358.568 318.653ZM368.444 337.774L373.817 337.945C374.275 337.959 374.674 337.868 375.014 337.67C375.364 337.462 375.64 337.169 375.84 336.79C376.04 336.4 376.149 335.945 376.166 335.424L376.196 334.519C376.214 333.977 376.136 333.506 375.961 333.104C375.798 332.693 375.547 332.377 375.211 332.158C374.874 331.928 374.477 331.806 374.019 331.792L368.647 331.621L368.776 327.701L374.445 327.881C375.694 327.921 376.769 328.205 377.668 328.734C378.568 329.263 379.253 329.999 379.722 330.941C380.191 331.874 380.406 332.964 380.365 334.214L380.306 336.009C380.265 337.238 379.98 338.302 379.45 339.203C378.92 340.103 378.184 340.783 377.241 341.243C376.309 341.703 375.223 341.913 373.984 341.874L368.315 341.693L368.444 337.774ZM367.095 318.924L371.171 319.054L370.424 341.761L366.348 341.631L367.095 318.924ZM369.031 318.986L379.51 319.319L379.381 323.239L368.902 322.906L369.031 318.986ZM394.006 342.495L394.559 325.676L394.904 326.125L387.478 342.288L383.371 342.157L384.117 319.466L387.928 319.587L387.368 336.594L387.008 336.145L394.471 319.796L398.563 319.926L397.816 342.617L394.006 342.495ZM412.134 320.358L416.21 320.487L415.463 343.194L411.387 343.064L412.134 320.358ZM402.452 320.05L406.528 320.179L405.781 342.886L401.705 342.756L402.452 320.05ZM404.043 329.652L414.46 329.983L414.332 333.856L403.916 333.525L404.043 329.652ZM420.099 320.611L424.175 320.741L423.428 343.447L419.352 343.318L420.099 320.611ZM422.035 320.673L431.031 320.959L430.902 324.879L421.906 324.592L422.035 320.673Z" fill="black"/>
</svg>
