<svg width="1440" height="265" viewBox="0 0 1440 265" fill="none" xmlns="http://www.w3.org/2000/svg">
<rect x="-73.1383" y="1.67162" width="1662" height="59" transform="rotate(7 -73.1383 1.67162)" fill="white"/>
<rect x="-73.1383" y="1.67162" width="1662" height="59" transform="rotate(7 -73.1383 1.67162)" stroke="#222222" stroke-width="3" stroke-dasharray="10 10"/>
<path d="M-52.4568 24.1408L-47.8508 24.7064L-50.6195 47.2558L-54.264 46.8083L-52.2227 30.1831L-52.1585 31.1985L-57.4621 43.1097L-60.3002 42.7612L-62.6183 30.2291L-62.2257 28.9549L-64.267 45.5801L-67.9425 45.1288L-65.1738 22.5794L-60.5368 23.1487L-58.2053 37.367L-52.4568 24.1408ZM-36.1947 49.0112L-34.1438 32.3085L-33.8405 32.7865L-42.6772 48.2152L-46.756 47.7144L-43.9892 25.1805L-40.2051 25.6451L-42.2788 42.5339L-42.5977 42.054L-33.707 26.443L-29.6438 26.9419L-32.4106 49.4758L-36.1947 49.0112ZM-25.1379 37.5545L-19.5393 38.2419C-19.1258 38.2927 -18.7576 38.2434 -18.435 38.0942C-18.1007 37.9358 -17.8292 37.691 -17.6207 37.3598C-17.4017 37.0299 -17.2637 36.6323 -17.2066 36.167L-17.0447 34.8488C-16.985 34.3628 -17.0163 33.9339 -17.1386 33.5621C-17.2596 33.1799 -17.4638 32.8768 -17.7511 32.6526C-18.0268 32.4193 -18.3766 32.2767 -18.8005 32.2246L-24.3991 31.5372L-23.9211 27.6445L-18.3225 28.332C-17.0612 28.4868 -15.9951 28.8644 -15.1242 29.4646C-14.2418 30.0557 -13.6083 30.8366 -13.2237 31.8074C-12.8275 32.7691 -12.7044 33.8599 -12.8542 35.0799L-13.0865 36.972C-13.235 38.1816 -13.6172 39.2 -14.2329 40.0269C-14.8487 40.8539 -15.6517 41.4532 -16.6419 41.8249C-17.6308 42.1862 -18.7559 42.2894 -20.0173 42.1346L-25.6159 41.4471L-25.1379 37.5545ZM-25.7821 27.416L-21.7344 27.913L-24.5031 50.4624L-28.5509 49.9654L-25.7821 27.416ZM-2.9846 30.2152L1.31126 30.7427L4.09854 47.7876L1.15308 50.6216L-2.9846 30.2152ZM5.01576 49.805C4.60821 50.731 4.12084 51.495 3.55366 52.097C2.98648 52.6991 2.33042 53.1275 1.58547 53.3824C0.840528 53.6372 0.00279928 53.7075 -0.927713 53.5933L-3.02136 53.3362L-2.53579 49.3815L-0.907396 49.5815C-0.462818 49.6361 -0.0527053 49.5867 0.322941 49.4334C0.699858 49.2698 1.03587 49.012 1.33098 48.6599C1.63769 48.2988 1.90287 47.8485 2.1265 47.3093L8.33663 31.6053L12.4619 32.1118L5.01576 49.805ZM9.85906 50.746C10.3864 50.8108 10.8462 50.7413 11.2385 50.5376C11.6412 50.3351 11.9654 50.0024 12.2112 49.5393C12.4569 49.0762 12.623 48.4931 12.7093 47.7901L14.6021 32.3746L18.6498 32.8716L16.7189 48.5973C16.5374 50.0757 16.1466 51.2924 15.5466 52.2472C14.957 53.2033 14.1645 53.8879 13.1692 54.3009C12.1856 54.7049 11.0217 54.8244 9.67767 54.6593L9.38301 54.6231L9.85906 50.746ZM23.2403 33.4352L27.2881 33.9322L24.5193 56.4817L20.4716 55.9847L23.2403 33.4352ZM17.0369 32.6736L25.1324 33.6676L24.6544 37.5602L16.559 36.5662L17.0369 32.6736ZM38.9597 58.239L41.0105 41.5363L41.3139 42.0143L32.4771 57.443L28.3984 56.9422L31.1652 34.4083L34.9493 34.8729L32.8756 51.7617L32.5567 51.2818L41.4473 35.6708L45.5106 36.1697L42.7438 58.7036L38.9597 58.239ZM58.8906 37.844L62.9384 38.341L60.1735 60.8594L56.1257 60.3624L58.8906 37.844ZM49.4853 55.5958L60.853 56.9915L60.3751 60.8842L49.0073 59.4884L49.4853 55.5958ZM59.1781 56.7859L63.0707 57.2638L61.9625 66.2898L58.0699 65.8119L59.1781 56.7859ZM49.3722 36.6438L53.4199 37.1408L50.6512 59.6902L46.6035 59.1932L49.3722 36.6438Z" fill="#222222"/>
<path d="M97.4176 42.543L102.024 43.1086L99.2549 65.658L95.6104 65.2105L97.6517 48.5853L97.7159 49.6007L92.4123 61.5119L89.5742 61.1635L87.2561 48.6313L87.6487 47.3571L85.6074 63.9823L81.9318 63.531L84.7006 40.9816L89.3376 41.5509L91.6691 55.7692L97.4176 42.543ZM113.68 67.4134L115.731 50.7107L116.034 51.1887L107.197 66.6174L103.118 66.1166L105.885 43.5827L109.669 44.0473L107.596 60.9361L107.277 60.4562L116.167 44.8452L120.231 45.3441L117.464 67.878L113.68 67.4134ZM124.736 55.9567L130.335 56.6441C130.749 56.6949 131.117 56.6457 131.439 56.4964C131.774 56.338 132.045 56.0932 132.254 55.762C132.473 55.4321 132.611 55.0345 132.668 54.5692L132.83 53.251C132.889 52.7651 132.858 52.3362 132.736 51.9643C132.615 51.5822 132.411 51.279 132.123 51.0548C131.848 50.8215 131.498 50.6789 131.074 50.6268L125.475 49.9394L125.953 46.0468L131.552 46.7342C132.813 46.8891 133.879 47.2666 134.75 47.8668C135.633 48.4579 136.266 49.2388 136.651 50.2096C137.047 51.1713 137.17 52.2622 137.02 53.4822L136.788 55.3742C136.639 56.5839 136.257 57.6022 135.641 58.4291C135.026 59.2561 134.223 59.8554 133.233 60.2271C132.244 60.5884 131.118 60.6917 129.857 60.5368L124.259 59.8494L124.736 55.9567ZM124.092 45.8183L128.14 46.3153L125.371 68.8647L121.324 68.3677L124.092 45.8183ZM146.89 48.6174L151.186 49.1449L153.973 66.1898L151.027 69.0238L146.89 48.6174ZM154.89 68.2072C154.483 69.1332 153.995 69.8972 153.428 70.4992C152.861 71.1013 152.205 71.5297 151.46 71.7846C150.715 72.0394 149.877 72.1098 148.947 71.9955L146.853 71.7384L147.339 67.7838L148.967 67.9837C149.412 68.0383 149.822 67.9889 150.197 67.8357C150.574 67.672 150.91 67.4142 151.205 67.0621C151.512 66.701 151.777 66.2508 152.001 65.7115L158.211 50.0075L162.336 50.514L154.89 68.2072ZM159.733 69.1482C160.261 69.213 160.721 69.1435 161.113 68.9398C161.516 68.7374 161.84 68.4046 162.086 67.9415C162.331 67.4784 162.497 66.8954 162.584 66.1923L164.476 50.7768L168.524 51.2738L166.593 66.9995C166.412 68.478 166.021 69.6946 165.421 70.6494C164.831 71.6055 164.039 72.2901 163.044 72.7031C162.06 73.1071 160.896 73.2266 159.552 73.0615L159.257 73.0254L159.733 69.1482ZM173.115 51.8375L177.162 52.3345L174.394 74.8839L170.346 74.3869L173.115 51.8375ZM166.911 51.0758L175.007 52.0698L174.529 55.9624L166.433 54.9684L166.911 51.0758ZM188.834 76.6412L190.885 59.9385L191.188 60.4165L182.352 75.8452L178.273 75.3444L181.04 52.8105L184.824 53.2751L182.75 70.1639L182.431 69.684L191.322 54.073L195.385 54.5719L192.618 77.1058L188.834 76.6412ZM208.765 56.2463L212.813 56.7433L210.048 79.2616L206 78.7646L208.765 56.2463ZM199.36 73.998L210.727 75.3938L210.249 79.2864L198.882 77.8906L199.36 73.998ZM209.052 75.1881L212.945 75.6661L211.837 84.692L207.944 84.2141L209.052 75.1881ZM199.247 55.0461L203.294 55.5431L200.526 78.0925L196.478 77.5955L199.247 55.0461Z" fill="#222222"/>
<path d="M247.292 60.9454L251.898 61.5109L249.129 84.0603L245.485 83.6128L247.526 66.9877L247.59 68.0031L242.287 79.9143L239.449 79.5658L237.131 67.0336L237.523 65.7595L235.482 82.3846L231.806 81.9333L234.575 59.3839L239.212 59.9533L241.544 74.1715L247.292 60.9454ZM263.554 85.8157L265.605 69.113L265.908 69.5911L257.072 85.0198L252.993 84.519L255.76 61.9851L259.544 62.4497L257.47 79.3385L257.151 78.8585L266.042 63.2476L270.105 63.7465L267.338 86.2804L263.554 85.8157ZM274.611 74.3591L280.21 75.0465C280.623 75.0973 280.991 75.048 281.314 74.8987C281.648 74.7404 281.92 74.4956 282.128 74.1644C282.347 73.8344 282.485 73.4368 282.542 72.9716L282.704 71.6533C282.764 71.1674 282.733 70.7385 282.61 70.3667C282.489 69.9845 282.285 69.6813 281.998 69.4571C281.722 69.2239 281.372 69.0812 280.948 69.0292L275.35 68.3418L275.828 64.4491L281.426 65.1365C282.688 65.2914 283.754 65.6689 284.625 66.2691C285.507 66.8602 286.141 67.6412 286.525 68.612C286.921 69.5737 287.045 70.6645 286.895 71.8845L286.662 73.7765C286.514 74.9862 286.132 76.0045 285.516 76.8315C284.9 77.6584 284.097 78.2577 283.107 78.6294C282.118 78.9908 280.993 79.094 279.732 78.9391L274.133 78.2517L274.611 74.3591ZM273.967 64.2206L278.014 64.7176L275.246 87.267L271.198 86.77L273.967 64.2206ZM296.764 67.0198L301.06 67.5473L303.847 84.5921L300.902 87.4262L296.764 67.0198ZM304.765 86.6096C304.357 87.5355 303.87 88.2996 303.303 88.9016C302.735 89.5036 302.079 89.9321 301.334 90.1869C300.589 90.4418 299.752 90.5121 298.821 90.3978L296.728 90.1408L297.213 86.1861L298.842 86.386C299.286 86.4406 299.696 86.3913 300.072 86.238C300.449 86.0744 300.785 85.8165 301.08 85.4645C301.387 85.1033 301.652 84.6531 301.875 84.1138L308.086 68.4099L312.211 68.9164L304.765 86.6096ZM309.608 87.5506C310.135 87.6153 310.595 87.5458 310.987 87.3421C311.39 87.1397 311.714 86.8069 311.96 86.3439C312.206 85.8808 312.372 85.2977 312.458 84.5946L314.351 69.1792L318.399 69.6762L316.468 85.4018C316.286 86.8803 315.896 88.097 315.296 89.0518C314.706 90.0079 313.913 90.6924 312.918 91.1055C311.935 91.5095 310.771 91.6289 309.427 91.4639L309.132 91.4277L309.608 87.5506ZM322.989 70.2398L327.037 70.7368L324.268 93.2862L320.221 92.7892L322.989 70.2398ZM316.786 69.4781L324.881 70.4721L324.403 74.3648L316.308 73.3708L316.786 69.4781ZM338.709 95.0435L340.759 78.3408L341.063 78.8189L332.226 94.2476L328.147 93.7468L330.914 71.2129L334.698 71.6775L332.624 88.5663L332.306 88.0863L341.196 72.4754L345.259 72.9743L342.493 95.5082L338.709 95.0435ZM358.64 74.6486L362.687 75.1456L359.922 97.664L355.875 97.167L358.64 74.6486ZM349.234 92.4003L360.602 93.7961L360.124 97.6887L348.756 96.293L349.234 92.4003ZM358.927 93.5904L362.82 94.0684L361.711 103.094L357.819 102.616L358.927 93.5904ZM349.121 73.4484L353.169 73.9454L350.4 96.4948L346.352 95.9978L349.121 73.4484Z" fill="#222222"/>
<path d="M397.167 79.3476L401.773 79.9131L399.004 102.463L395.359 102.015L397.401 85.3899L397.465 86.4053L392.161 98.3165L389.323 97.968L387.005 85.4359L387.398 84.1617L385.356 100.787L381.681 100.336L384.45 77.7861L389.087 78.3555L391.418 92.5737L397.167 79.3476ZM413.429 104.218L415.48 87.5153L415.783 87.9933L406.946 103.422L402.867 102.921L405.634 80.3873L409.418 80.8519L407.345 97.7407L407.026 97.2608L415.916 81.6498L419.98 82.1487L417.213 104.683L413.429 104.218ZM424.486 92.7613L430.084 93.4487C430.498 93.4995 430.866 93.4502 431.188 93.3009C431.523 93.1426 431.794 92.8978 432.003 92.5666C432.222 92.2366 432.36 91.839 432.417 91.3738L432.579 90.0556C432.638 89.5696 432.607 89.1407 432.485 88.7689C432.364 88.3867 432.16 88.0835 431.872 87.8594C431.597 87.6261 431.247 87.4834 430.823 87.4314L425.224 86.744L425.702 82.8513L431.301 83.5388C432.562 83.6936 433.628 84.0712 434.499 84.6713C435.382 85.2625 436.015 86.0434 436.4 87.0142C436.796 87.9759 436.919 89.0667 436.769 90.2867L436.537 92.1788C436.388 93.3884 436.006 94.4067 435.39 95.2337C434.775 96.0606 433.972 96.66 432.982 97.0316C431.993 97.393 430.867 97.4962 429.606 97.3413L424.008 96.6539L424.486 92.7613ZM423.841 82.6228L427.889 83.1198L425.12 105.669L421.073 105.172L423.841 82.6228ZM446.639 85.422L450.935 85.9495L453.722 102.994L450.776 105.828L446.639 85.422ZM454.639 105.012C454.232 105.938 453.744 106.702 453.177 107.304C452.61 107.906 451.954 108.334 451.209 108.589C450.464 108.844 449.626 108.914 448.696 108.8L446.602 108.543L447.088 104.588L448.716 104.788C449.161 104.843 449.571 104.794 449.946 104.64C450.323 104.477 450.659 104.219 450.954 103.867C451.261 103.506 451.526 103.055 451.75 102.516L457.96 86.8121L462.085 87.3186L454.639 105.012ZM459.482 105.953C460.01 106.018 460.47 105.948 460.862 105.744C461.265 105.542 461.589 105.209 461.835 104.746C462.08 104.283 462.246 103.7 462.333 102.997L464.225 87.5814L468.273 88.0784L466.342 103.804C466.161 105.283 465.77 106.499 465.17 107.454C464.58 108.41 463.788 109.095 462.793 109.508C461.809 109.912 460.645 110.031 459.301 109.866L459.006 109.83L459.482 105.953ZM472.864 88.642L476.911 89.139L474.143 111.688L470.095 111.191L472.864 88.642ZM466.66 87.8803L474.756 88.8743L474.278 92.767L466.182 91.773L466.66 87.8803ZM488.583 113.446L490.634 96.7431L490.937 97.2211L482.101 112.65L478.022 112.149L480.789 89.6151L484.573 90.0797L482.499 106.969L482.18 106.489L491.071 90.8776L495.134 91.3765L492.367 113.91L488.583 113.446ZM508.514 93.0508L512.562 93.5478L509.797 116.066L505.749 115.569L508.514 93.0508ZM499.109 110.803L510.476 112.198L509.998 116.091L498.631 114.695L499.109 110.803ZM508.802 111.993L512.694 112.471L511.586 121.497L507.693 121.019L508.802 111.993ZM498.996 91.8506L503.043 92.3476L500.275 114.897L496.227 114.4L498.996 91.8506Z" fill="#222222"/>
<path d="M547.041 97.7499L551.647 98.3155L548.878 120.865L545.234 120.417L547.275 103.792L547.339 104.808L542.036 116.719L539.198 116.37L536.88 103.838L537.272 102.564L535.231 119.189L531.555 118.738L534.324 96.1885L538.961 96.7578L541.293 110.976L547.041 97.7499ZM563.303 122.62L565.354 105.918L565.657 106.396L556.821 121.824L552.742 121.324L555.509 98.7896L559.293 99.2543L557.219 116.143L556.9 115.663L565.791 100.052L569.854 100.551L567.087 123.085L563.303 122.62ZM574.36 111.164L579.958 111.851C580.372 111.902 580.74 111.853 581.063 111.703C581.397 111.545 581.669 111.3 581.877 110.969C582.096 110.639 582.234 110.241 582.291 109.776L582.453 108.458C582.513 107.972 582.481 107.543 582.359 107.171C582.238 106.789 582.034 106.486 581.747 106.262C581.471 106.028 581.121 105.886 580.697 105.834L575.099 105.146L575.577 101.254L581.175 101.941C582.437 102.096 583.503 102.474 584.374 103.074C585.256 103.665 585.89 104.446 586.274 105.417C586.67 106.378 586.793 107.469 586.644 108.689L586.411 110.581C586.263 111.791 585.881 112.809 585.265 113.636C584.649 114.463 583.846 115.062 582.856 115.434C581.867 115.795 580.742 115.899 579.481 115.744L573.882 115.056L574.36 111.164ZM573.716 101.025L577.763 101.522L574.995 124.072L570.947 123.575L573.716 101.025ZM596.513 103.824L600.809 104.352L603.596 121.397L600.651 124.231L596.513 103.824ZM604.514 123.414C604.106 124.34 603.619 125.104 603.051 125.706C602.484 126.308 601.828 126.737 601.083 126.991C600.338 127.246 599.501 127.317 598.57 127.202L596.476 126.945L596.962 122.991L598.59 123.191C599.035 123.245 599.445 123.196 599.821 123.043C600.198 122.879 600.534 122.621 600.829 122.269C601.135 121.908 601.401 121.458 601.624 120.918L607.834 105.214L611.96 105.721L604.514 123.414ZM609.357 124.355C609.884 124.42 610.344 124.35 610.736 124.147C611.139 123.944 611.463 123.612 611.709 123.148C611.955 122.685 612.121 122.102 612.207 121.399L614.1 105.984L618.148 106.481L616.217 122.206C616.035 123.685 615.644 124.902 615.044 125.856C614.455 126.812 613.662 127.497 612.667 127.91C611.683 128.314 610.52 128.433 609.175 128.268L608.881 128.232L609.357 124.355ZM622.738 107.044L626.786 107.541L624.017 130.091L619.969 129.594L622.738 107.044ZM616.535 106.283L624.63 107.277L624.152 111.169L616.057 110.175L616.535 106.283ZM638.457 131.848L640.508 115.145L640.812 115.623L631.975 131.052L627.896 130.551L630.663 108.017L634.447 108.482L632.373 125.371L632.055 124.891L640.945 109.28L645.008 109.779L642.242 132.313L638.457 131.848ZM658.388 111.453L662.436 111.95L659.671 134.469L655.624 133.972L658.388 111.453ZM648.983 129.205L660.351 130.601L659.873 134.493L648.505 133.098L648.983 129.205ZM658.676 130.395L662.569 130.873L661.46 139.899L657.568 139.421L658.676 130.395ZM648.87 110.253L652.918 110.75L650.149 133.299L646.101 132.802L648.87 110.253Z" fill="#222222"/>
<path d="M696.915 116.152L701.522 116.718L698.753 139.267L695.108 138.82L697.15 122.194L697.214 123.21L691.91 135.121L689.072 134.773L686.754 122.24L687.147 120.966L685.105 137.591L681.43 137.14L684.198 114.591L688.836 115.16L691.167 129.378L696.915 116.152ZM713.178 141.023L715.228 124.32L715.532 124.798L706.695 140.227L702.616 139.726L705.383 117.192L709.167 117.656L707.094 134.545L706.775 134.065L715.665 118.454L719.729 118.953L716.962 141.487L713.178 141.023ZM724.234 129.566L729.833 130.253C730.247 130.304 730.615 130.255 730.937 130.106C731.272 129.947 731.543 129.702 731.752 129.371C731.971 129.041 732.109 128.644 732.166 128.178L732.328 126.86C732.387 126.374 732.356 125.945 732.234 125.573C732.113 125.191 731.909 124.888 731.621 124.664C731.346 124.431 730.996 124.288 730.572 124.236L724.973 123.549L725.451 119.656L731.05 120.343C732.311 120.498 733.377 120.876 734.248 121.476C735.131 122.067 735.764 122.848 736.149 123.819C736.545 124.78 736.668 125.871 736.518 127.091L736.286 128.983C736.137 130.193 735.755 131.211 735.139 132.038C734.524 132.865 733.721 133.465 732.73 133.836C731.742 134.198 730.616 134.301 729.355 134.146L723.756 133.458L724.234 129.566ZM723.59 119.427L727.638 119.924L724.869 142.474L720.821 141.977L723.59 119.427ZM746.388 122.227L750.684 122.754L753.471 139.799L750.525 142.633L746.388 122.227ZM754.388 141.816C753.981 142.742 753.493 143.506 752.926 144.108C752.359 144.71 751.703 145.139 750.958 145.394C750.213 145.649 749.375 145.719 748.445 145.605L746.351 145.348L746.837 141.393L748.465 141.593C748.909 141.647 749.32 141.598 749.695 141.445C750.072 141.281 750.408 141.023 750.703 140.671C751.01 140.31 751.275 139.86 751.499 139.321L757.709 123.617L761.834 124.123L754.388 141.816ZM759.231 142.757C759.759 142.822 760.218 142.753 760.611 142.549C761.013 142.346 761.338 142.014 761.583 141.551C761.829 141.088 761.995 140.504 762.082 139.801L763.974 124.386L768.022 124.883L766.091 140.609C765.91 142.087 765.519 143.304 764.919 144.259C764.329 145.215 763.537 145.899 762.542 146.312C761.558 146.716 760.394 146.836 759.05 146.671L758.755 146.634L759.231 142.757ZM772.613 125.447L776.66 125.944L773.892 148.493L769.844 147.996L772.613 125.447ZM766.409 124.685L774.505 125.679L774.027 129.572L765.931 128.578L766.409 124.685ZM788.332 150.25L790.383 133.548L790.686 134.026L781.849 149.454L777.771 148.954L780.538 126.42L784.322 126.884L782.248 143.773L781.929 143.293L790.82 127.682L794.883 128.181L792.116 150.715L788.332 150.25ZM808.263 129.855L812.311 130.352L809.546 152.871L805.498 152.374L808.263 129.855ZM798.858 147.607L810.225 149.003L809.747 152.896L798.38 151.5L798.858 147.607ZM808.55 148.797L812.443 149.275L811.335 158.301L807.442 157.823L808.55 148.797ZM798.745 128.655L802.792 129.152L800.024 151.702L795.976 151.205L798.745 128.655Z" fill="#222222"/>
<path d="M846.79 134.554L851.396 135.12L848.627 157.669L844.983 157.222L847.024 140.597L847.088 141.612L841.785 153.523L838.947 153.175L836.628 140.643L837.021 139.368L834.98 155.994L831.304 155.542L834.073 132.993L838.71 133.562L841.041 147.781L846.79 134.554ZM863.052 159.425L865.103 142.722L865.406 143.2L856.57 158.629L852.491 158.128L855.258 135.594L859.042 136.059L856.968 152.947L856.649 152.468L865.54 136.857L869.603 137.355L866.836 159.889L863.052 159.425ZM874.109 147.968L879.707 148.655C880.121 148.706 880.489 148.657 880.812 148.508C881.146 148.349 881.418 148.105 881.626 147.773C881.845 147.443 881.983 147.046 882.04 146.581L882.202 145.262C882.262 144.776 882.23 144.348 882.108 143.976C881.987 143.594 881.783 143.29 881.496 143.066C881.22 142.833 880.87 142.69 880.446 142.638L874.848 141.951L875.326 138.058L880.924 138.746C882.186 138.9 883.252 139.278 884.123 139.878C885.005 140.469 885.638 141.25 886.023 142.221C886.419 143.183 886.542 144.274 886.393 145.494L886.16 147.386C886.012 148.595 885.63 149.614 885.014 150.44C884.398 151.267 883.595 151.867 882.605 152.238C881.616 152.6 880.491 152.703 879.229 152.548L873.631 151.861L874.109 147.968ZM873.465 137.83L877.512 138.327L874.744 160.876L870.696 160.379L873.465 137.83ZM896.262 140.629L900.558 141.156L903.345 158.201L900.4 161.035L896.262 140.629ZM904.263 160.219C903.855 161.145 903.368 161.909 902.8 162.511C902.233 163.113 901.577 163.541 900.832 163.796C900.087 164.051 899.25 164.121 898.319 164.007L896.225 163.75L896.711 159.795L898.339 159.995C898.784 160.05 899.194 160 899.57 159.847C899.947 159.683 900.283 159.426 900.578 159.073C900.884 158.712 901.15 158.262 901.373 157.723L907.583 142.019L911.709 142.525L904.263 160.219ZM909.106 161.16C909.633 161.224 910.093 161.155 910.485 160.951C910.888 160.749 911.212 160.416 911.458 159.953C911.704 159.49 911.87 158.907 911.956 158.204L913.849 142.788L917.897 143.285L915.966 159.011C915.784 160.489 915.393 161.706 914.793 162.661C914.204 163.617 913.411 164.301 912.416 164.714C911.432 165.118 910.269 165.238 908.924 165.073L908.63 165.037L909.106 161.16ZM922.487 143.849L926.535 144.346L923.766 166.895L919.718 166.398L922.487 143.849ZM916.284 143.087L924.379 144.081L923.901 147.974L915.806 146.98L916.284 143.087ZM938.206 168.653L940.257 151.95L940.561 152.428L931.724 167.857L927.645 167.356L930.412 144.822L934.196 145.286L932.122 162.175L931.803 161.695L940.694 146.084L944.757 146.583L941.991 169.117L938.206 168.653ZM958.137 148.258L962.185 148.755L959.42 171.273L955.372 170.776L958.137 148.258ZM948.732 166.009L960.1 167.405L959.622 171.298L948.254 169.902L948.732 166.009ZM958.425 167.199L962.318 167.677L961.209 176.703L957.317 176.225L958.425 167.199ZM948.619 147.057L952.667 147.554L949.898 170.104L945.85 169.607L948.619 147.057Z" fill="#222222"/>
<path d="M996.664 152.957L1001.27 153.522L998.502 176.072L994.857 175.624L996.899 158.999L996.963 160.014L991.659 171.926L988.821 171.577L986.503 159.045L986.896 157.771L984.854 174.396L981.179 173.945L983.947 151.395L988.585 151.965L990.916 166.183L996.664 152.957ZM1012.93 177.827L1014.98 161.124L1015.28 161.602L1006.44 177.031L1002.37 176.53L1005.13 153.996L1008.92 154.461L1006.84 171.35L1006.52 170.87L1015.41 155.259L1019.48 155.758L1016.71 178.292L1012.93 177.827ZM1023.98 166.37L1029.58 167.058C1030 167.109 1030.36 167.059 1030.69 166.91C1031.02 166.752 1031.29 166.507 1031.5 166.176C1031.72 165.846 1031.86 165.448 1031.91 164.983L1032.08 163.665C1032.14 163.179 1032.1 162.75 1031.98 162.378C1031.86 161.996 1031.66 161.693 1031.37 161.468C1031.09 161.235 1030.74 161.093 1030.32 161.041L1024.72 160.353L1025.2 156.46L1030.8 157.148C1032.06 157.303 1033.13 157.68 1034 158.28C1034.88 158.872 1035.51 159.653 1035.9 160.623C1036.29 161.585 1036.42 162.676 1036.27 163.896L1036.03 165.788C1035.89 166.998 1035.5 168.016 1034.89 168.843C1034.27 169.67 1033.47 170.269 1032.48 170.641C1031.49 171.002 1030.37 171.105 1029.1 170.95L1023.51 170.263L1023.98 166.37ZM1023.34 156.232L1027.39 156.729L1024.62 179.278L1020.57 178.781L1023.34 156.232ZM1046.14 159.031L1050.43 159.559L1053.22 176.603L1050.27 179.438L1046.14 159.031ZM1054.14 178.621C1053.73 179.547 1053.24 180.311 1052.67 180.913C1052.11 181.515 1051.45 181.943 1050.71 182.198C1049.96 182.453 1049.12 182.523 1048.19 182.409L1046.1 182.152L1046.59 178.197L1048.21 178.397C1048.66 178.452 1049.07 178.403 1049.44 178.249C1049.82 178.086 1050.16 177.828 1050.45 177.476C1050.76 177.115 1051.02 176.664 1051.25 176.125L1057.46 160.421L1061.58 160.928L1054.14 178.621ZM1058.98 179.562C1059.51 179.627 1059.97 179.557 1060.36 179.353C1060.76 179.151 1061.09 178.818 1061.33 178.355C1061.58 177.892 1061.74 177.309 1061.83 176.606L1063.72 161.191L1067.77 161.688L1065.84 177.413C1065.66 178.892 1065.27 180.108 1064.67 181.063C1064.08 182.019 1063.29 182.704 1062.29 183.117C1061.31 183.521 1060.14 183.64 1058.8 183.475L1058.5 183.439L1058.98 179.562ZM1072.36 162.251L1076.41 162.748L1073.64 185.298L1069.59 184.801L1072.36 162.251ZM1066.16 161.489L1074.25 162.483L1073.78 166.376L1065.68 165.382L1066.16 161.489ZM1088.08 187.055L1090.13 170.352L1090.44 170.83L1081.6 186.259L1077.52 185.758L1080.29 163.224L1084.07 163.689L1082 180.578L1081.68 180.098L1090.57 164.487L1094.63 164.986L1091.87 187.52L1088.08 187.055ZM1108.01 166.66L1112.06 167.157L1109.29 189.675L1105.25 189.178L1108.01 166.66ZM1098.61 184.412L1109.97 185.807L1109.5 189.7L1098.13 188.304L1098.61 184.412ZM1108.3 185.602L1112.19 186.08L1111.08 195.106L1107.19 194.628L1108.3 185.602ZM1098.49 165.46L1102.54 165.957L1099.77 188.506L1095.72 188.009L1098.49 165.46Z" fill="#222222"/>
<path d="M1146.54 171.359L1151.14 171.924L1148.38 194.474L1144.73 194.026L1146.77 177.401L1146.84 178.417L1141.53 190.328L1138.7 189.979L1136.38 177.447L1136.77 176.173L1134.73 192.798L1131.05 192.347L1133.82 169.797L1138.46 170.367L1140.79 184.585L1146.54 171.359ZM1162.8 196.229L1164.85 179.527L1165.16 180.005L1156.32 195.433L1152.24 194.933L1155.01 172.399L1158.79 172.863L1156.72 189.752L1156.4 189.272L1165.29 173.661L1169.35 174.16L1166.59 196.694L1162.8 196.229ZM1173.86 184.773L1179.46 185.46C1179.87 185.511 1180.24 185.462 1180.56 185.312C1180.9 185.154 1181.17 184.909 1181.38 184.578C1181.59 184.248 1181.73 183.85 1181.79 183.385L1181.95 182.067C1182.01 181.581 1181.98 181.152 1181.86 180.78C1181.74 180.398 1181.53 180.095 1181.24 179.871C1180.97 179.637 1180.62 179.495 1180.2 179.443L1174.6 178.755L1175.07 174.863L1180.67 175.55C1181.93 175.705 1183 176.083 1183.87 176.683C1184.75 177.274 1185.39 178.055 1185.77 179.026C1186.17 179.987 1186.29 181.078 1186.14 182.298L1185.91 184.19C1185.76 185.4 1185.38 186.418 1184.76 187.245C1184.15 188.072 1183.34 188.671 1182.35 189.043C1181.36 189.404 1180.24 189.508 1178.98 189.353L1173.38 188.665L1173.86 184.773ZM1173.21 174.634L1177.26 175.131L1174.49 197.681L1170.44 197.184L1173.21 174.634ZM1196.01 177.433L1200.31 177.961L1203.09 195.006L1200.15 197.84L1196.01 177.433ZM1204.01 197.023C1203.6 197.949 1203.12 198.713 1202.55 199.315C1201.98 199.917 1201.33 200.346 1200.58 200.601C1199.84 200.855 1199 200.926 1198.07 200.811L1195.97 200.554L1196.46 196.6L1198.09 196.8C1198.53 196.854 1198.94 196.805 1199.32 196.652C1199.7 196.488 1200.03 196.23 1200.33 195.878C1200.63 195.517 1200.9 195.067 1201.12 194.527L1207.33 178.823L1211.46 179.33L1204.01 197.023ZM1208.85 197.964C1209.38 198.029 1209.84 197.959 1210.23 197.756C1210.64 197.553 1210.96 197.221 1211.21 196.757C1211.45 196.294 1211.62 195.711 1211.71 195.008L1213.6 179.593L1217.65 180.09L1215.71 195.815C1215.53 197.294 1215.14 198.511 1214.54 199.465C1213.95 200.421 1213.16 201.106 1212.16 201.519C1211.18 201.923 1210.02 202.042 1208.67 201.877L1208.38 201.841L1208.85 197.964ZM1222.24 180.653L1226.28 181.15L1223.52 203.7L1219.47 203.203L1222.24 180.653ZM1216.03 179.892L1224.13 180.886L1223.65 184.778L1215.55 183.784L1216.03 179.892ZM1237.96 205.457L1240.01 188.754L1240.31 189.232L1231.47 204.661L1227.39 204.16L1230.16 181.626L1233.94 182.091L1231.87 198.98L1231.55 198.5L1240.44 182.889L1244.51 183.388L1241.74 205.922L1237.96 205.457ZM1257.89 185.062L1261.93 185.559L1259.17 208.078L1255.12 207.581L1257.89 185.062ZM1248.48 202.814L1259.85 204.21L1259.37 208.102L1248 206.707L1248.48 202.814ZM1258.17 204.004L1262.07 204.482L1260.96 213.508L1257.07 213.03L1258.17 204.004ZM1248.37 183.862L1252.42 184.359L1249.65 206.908L1245.6 206.411L1248.37 183.862Z" fill="#222222"/>
<path d="M1296.41 189.761L1301.02 190.327L1298.25 212.876L1294.61 212.429L1296.65 195.804L1296.71 196.819L1291.41 208.73L1288.57 208.382L1286.25 195.85L1286.64 194.575L1284.6 211.201L1280.93 210.749L1283.7 188.2L1288.33 188.769L1290.66 202.987L1296.41 189.761ZM1312.68 214.632L1314.73 197.929L1315.03 198.407L1306.19 213.836L1302.11 213.335L1304.88 190.801L1308.67 191.266L1306.59 208.154L1306.27 207.674L1315.16 192.063L1319.23 192.562L1316.46 215.096L1312.68 214.632ZM1323.73 203.175L1329.33 203.862C1329.74 203.913 1330.11 203.864 1330.44 203.715C1330.77 203.556 1331.04 203.311 1331.25 202.98C1331.47 202.65 1331.61 202.253 1331.66 201.787L1331.83 200.469C1331.89 199.983 1331.85 199.554 1331.73 199.183C1331.61 198.8 1331.41 198.497 1331.12 198.273C1330.84 198.04 1330.49 197.897 1330.07 197.845L1324.47 197.158L1324.95 193.265L1330.55 193.952C1331.81 194.107 1332.88 194.485 1333.75 195.085C1334.63 195.676 1335.26 196.457 1335.65 197.428C1336.04 198.39 1336.17 199.48 1336.02 200.7L1335.78 202.592C1335.64 203.802 1335.25 204.82 1334.64 205.647C1334.02 206.474 1333.22 207.074 1332.23 207.445C1331.24 207.807 1330.11 207.91 1328.85 207.755L1323.25 207.068L1323.73 203.175ZM1323.09 193.037L1327.14 193.534L1324.37 216.083L1320.32 215.586L1323.09 193.037ZM1345.89 195.836L1350.18 196.363L1352.97 213.408L1350.02 216.242L1345.89 195.836ZM1353.89 215.425C1353.48 216.351 1352.99 217.115 1352.42 217.718C1351.86 218.32 1351.2 218.748 1350.46 219.003C1349.71 219.258 1348.87 219.328 1347.94 219.214L1345.85 218.957L1346.33 215.002L1347.96 215.202C1348.41 215.257 1348.82 215.207 1349.19 215.054C1349.57 214.89 1349.91 214.632 1350.2 214.28C1350.51 213.919 1350.77 213.469 1351 212.93L1357.21 197.226L1361.33 197.732L1353.89 215.425ZM1358.73 216.366C1359.26 216.431 1359.72 216.362 1360.11 216.158C1360.51 215.956 1360.84 215.623 1361.08 215.16C1361.33 214.697 1361.49 214.114 1361.58 213.411L1363.47 197.995L1367.52 198.492L1365.59 214.218C1365.41 215.696 1365.02 216.913 1364.42 217.868C1363.83 218.824 1363.03 219.508 1362.04 219.921C1361.06 220.325 1359.89 220.445 1358.55 220.28L1358.25 220.244L1358.73 216.366ZM1372.11 199.056L1376.16 199.553L1373.39 222.102L1369.34 221.605L1372.11 199.056ZM1365.91 198.294L1374 199.288L1373.52 203.181L1365.43 202.187L1365.91 198.294ZM1387.83 223.859L1389.88 207.157L1390.18 207.635L1381.35 223.063L1377.27 222.563L1380.04 200.029L1383.82 200.493L1381.75 217.382L1381.43 216.902L1390.32 201.291L1394.38 201.79L1391.61 224.324L1387.83 223.859ZM1407.76 203.465L1411.81 203.962L1409.04 226.48L1405 225.983L1407.76 203.465ZM1398.36 221.216L1409.72 222.612L1409.25 226.505L1397.88 225.109L1398.36 221.216ZM1408.05 222.406L1411.94 222.884L1410.83 231.91L1406.94 231.432L1408.05 222.406ZM1398.24 202.264L1402.29 202.761L1399.52 225.311L1395.47 224.814L1398.24 202.264Z" fill="#222222"/>
<path d="M1446.29 208.164L1450.89 208.729L1448.13 231.278L1444.48 230.831L1446.52 214.206L1446.59 215.221L1441.28 227.132L1438.44 226.784L1436.13 214.252L1436.52 212.978L1434.48 229.603L1430.8 229.151L1433.57 206.602L1438.21 207.171L1440.54 221.39L1446.29 208.164ZM1462.55 233.034L1464.6 216.331L1464.9 216.809L1456.07 232.238L1451.99 231.737L1454.76 209.203L1458.54 209.668L1456.47 226.557L1456.15 226.077L1465.04 210.466L1469.1 210.965L1466.33 233.498L1462.55 233.034ZM1473.61 221.577L1479.21 222.265C1479.62 222.315 1479.99 222.266 1480.31 222.117C1480.64 221.959 1480.92 221.714 1481.12 221.383C1481.34 221.053 1481.48 220.655 1481.54 220.19L1481.7 218.871C1481.76 218.386 1481.73 217.957 1481.61 217.585C1481.49 217.203 1481.28 216.899 1480.99 216.675C1480.72 216.442 1480.37 216.299 1479.94 216.247L1474.35 215.56L1474.82 211.667L1480.42 212.355C1481.68 212.51 1482.75 212.887 1483.62 213.487C1484.5 214.078 1485.14 214.859 1485.52 215.83C1485.92 216.792 1486.04 217.883 1485.89 219.103L1485.66 220.995C1485.51 222.204 1485.13 223.223 1484.51 224.05C1483.9 224.877 1483.09 225.476 1482.1 225.848C1481.11 226.209 1479.99 226.312 1478.73 226.157L1473.13 225.47L1473.61 221.577ZM1472.96 211.439L1477.01 211.936L1474.24 234.485L1470.19 233.988L1472.96 211.439ZM1495.76 214.238L1500.06 214.765L1502.84 231.81L1499.9 234.644L1495.76 214.238ZM1503.76 233.828C1503.35 234.754 1502.87 235.518 1502.3 236.12C1501.73 236.722 1501.08 237.15 1500.33 237.405C1499.59 237.66 1498.75 237.73 1497.82 237.616L1495.72 237.359L1496.21 233.404L1497.84 233.604C1498.28 233.659 1498.69 233.609 1499.07 233.456C1499.44 233.293 1499.78 233.035 1500.08 232.683C1500.38 232.321 1500.65 231.871 1500.87 231.332L1507.08 215.628L1511.21 216.135L1503.76 233.828ZM1508.6 234.769C1509.13 234.833 1509.59 234.764 1509.98 234.56C1510.39 234.358 1510.71 234.025 1510.96 233.562C1511.2 233.099 1511.37 232.516 1511.45 231.813L1513.35 216.397L1517.39 216.894L1515.46 232.62C1515.28 234.098 1514.89 235.315 1514.29 236.27C1513.7 237.226 1512.91 237.911 1511.91 238.324C1510.93 238.728 1509.77 238.847 1508.42 238.682L1508.13 238.646L1508.6 234.769ZM1521.98 217.458L1526.03 217.955L1523.26 240.504L1519.22 240.007L1521.98 217.458ZM1515.78 216.696L1523.88 217.69L1523.4 221.583L1515.3 220.589L1515.78 216.696ZM1537.7 242.262L1539.76 225.559L1540.06 226.037L1531.22 241.466L1527.14 240.965L1529.91 218.431L1533.69 218.896L1531.62 235.784L1531.3 235.304L1540.19 219.693L1544.26 220.192L1541.49 242.726L1537.7 242.262ZM1557.64 221.867L1561.68 222.364L1558.92 244.882L1554.87 244.385L1557.64 221.867ZM1548.23 239.618L1559.6 241.014L1559.12 244.907L1547.75 243.511L1548.23 239.618ZM1557.92 240.809L1561.82 241.287L1560.71 250.313L1556.81 249.835L1557.92 240.809ZM1548.12 220.667L1552.16 221.164L1549.4 243.713L1545.35 243.216L1548.12 220.667Z" fill="#222222"/>
</svg>
