<?xml version="1.0"?>
<svg width="24" height="24" xmlns="http://www.w3.org/2000/svg" xmlns:svg="http://www.w3.org/2000/svg">
 <g class="layer">
  <title>Layer 1</title>
  <g id="iconamoon:profile-circle-fill">
   <path clip-rule="evenodd" d="m12,4c-1.4,0 -2.77,0.37 -3.99,1.06c-1.21,0.7 -2.22,1.7 -2.92,2.91c-0.71,1.21 -1.08,2.58 -1.09,3.98c-0.01,1.4 0.35,2.78 1.04,4c0.47,-0.61 1.07,-1.1 1.75,-1.44c0.69,-0.34 1.44,-0.51 2.21,-0.51l6,0c0.77,0 1.52,0.17 2.21,0.51c0.68,0.34 1.28,0.83 1.75,1.44c0.69,-1.22 1.05,-2.6 1.04,-4c-0.01,-1.4 -0.38,-2.77 -1.09,-3.98c-0.7,-1.21 -1.71,-2.21 -2.92,-2.91c-1.22,-0.69 -2.59,-1.06 -3.99,-1.06zm7.94,14.08c1.34,-1.75 2.06,-3.88 2.06,-6.08c0,-5.52 -4.48,-10 -10,-10c-5.52,0 -10,4.48 -10,10c0,2.2 0.72,4.33 2.06,6.08l-0.01,0.01l0.36,0.42c0.93,1.09 2.1,1.97 3.41,2.58c1.31,0.6 2.74,0.91 4.18,0.91c2.03,0 4.01,-0.61 5.68,-1.77c0.71,-0.49 1.35,-1.07 1.91,-1.72l0.36,-0.42l-0.01,-0.01zm-7.94,-12.08c-0.8,0 -1.56,0.32 -2.12,0.88c-0.56,0.56 -0.88,1.32 -0.88,2.12c0,0.8 0.32,1.56 0.88,2.12c0.56,0.56 1.32,0.88 2.12,0.88c0.8,0 1.56,-0.32 2.12,-0.88c0.56,-0.56 0.88,-1.32 0.88,-2.12c0,-0.8 -0.32,-1.56 -0.88,-2.12c-0.56,-0.56 -1.32,-0.88 -2.12,-0.88z" fill="#ffffff" fill-rule="evenodd" id="Vector"/>
  </g>
 </g>
</svg>