<svg width="51" height="51" viewBox="0 0 51 51" fill="none" xmlns="http://www.w3.org/2000/svg">
<g id="Text input">
<path id="Vector" d="M21.3332 31.7318L32.1457 25.4818L21.3332 19.2318V31.7318ZM45.4165 15.4193C45.6873 16.3984 45.8748 17.7109 45.9998 19.3776C46.1457 21.0443 46.2082 22.4818 46.2082 23.7318L46.3332 25.4818C46.3332 30.0443 45.9998 33.3984 45.4165 35.5443C44.8957 37.4193 43.6873 38.6276 41.8123 39.1484C40.8332 39.4193 39.0415 39.6068 36.2915 39.7318C33.5832 39.8776 31.104 39.9401 28.8123 39.9401L25.4998 40.0651C16.7707 40.0651 11.3332 39.7318 9.18734 39.1484C7.31234 38.6276 6.104 37.4193 5.58317 35.5443C5.31234 34.5651 5.12484 33.2526 4.99984 31.5859C4.854 29.9193 4.7915 28.4818 4.7915 27.2318L4.6665 25.4818C4.6665 20.9193 4.99984 17.5651 5.58317 15.4193C6.104 13.5443 7.31234 12.3359 9.18734 11.8151C10.1665 11.5443 11.9582 11.3568 14.7082 11.2318C17.4165 11.0859 19.8957 11.0234 22.1873 11.0234L25.4998 10.8984C34.229 10.8984 39.6665 11.2318 41.8123 11.8151C43.6873 12.3359 44.8957 13.5443 45.4165 15.4193Z" fill="white"/>
</g>
</svg>
