<svg width="21" height="20" viewBox="0 0 21 20" fill="none" xmlns="http://www.w3.org/2000/svg">
<path fill-rule="evenodd" clip-rule="evenodd" d="M10.5 2C9.10077 1.99974 7.72593 2.36649 6.51273 3.06363C5.29952 3.76077 4.29038 4.76392 3.58603 5.97295C2.88168 7.18199 2.50675 8.55462 2.49868 9.95383C2.4906 11.3531 2.84966 12.7299 3.54001 13.947C4.00662 13.3406 4.60644 12.8496 5.2931 12.512C5.97975 12.1744 6.73485 11.9992 7.50001 12H13.5C14.2652 11.9992 15.0203 12.1744 15.7069 12.512C16.3936 12.8496 16.9934 13.3406 17.46 13.947C18.1504 12.7299 18.5094 11.3531 18.5013 9.95383C18.4933 8.55462 18.1183 7.18199 17.414 5.97295C16.7096 4.76392 15.7005 3.76077 14.4873 3.06363C13.2741 2.36649 11.8993 1.99974 10.5 2ZM18.443 16.076C19.78 14.333 20.5032 12.1968 20.5 10C20.5 4.477 16.023 0 10.5 0C4.97701 0 0.500011 4.477 0.500011 10C0.49671 12.1968 1.21992 14.333 2.55701 16.076L2.55201 16.094L2.90701 16.507C3.8449 17.6035 5.0094 18.4836 6.32024 19.0866C7.63109 19.6897 9.05711 20.0013 10.5 20C12.5273 20.0037 14.5074 19.3879 16.175 18.235C16.8859 17.7438 17.5306 17.163 18.093 16.507L18.448 16.094L18.443 16.076ZM10.5 4C9.70436 4 8.9413 4.31607 8.37869 4.87868C7.81608 5.44129 7.50001 6.20435 7.50001 7C7.50001 7.79565 7.81608 8.55871 8.37869 9.12132C8.9413 9.68393 9.70436 10 10.5 10C11.2957 10 12.0587 9.68393 12.6213 9.12132C13.1839 8.55871 13.5 7.79565 13.5 7C13.5 6.20435 13.1839 5.44129 12.6213 4.87868C12.0587 4.31607 11.2957 4 10.5 4Z" fill="white"/>
</svg>
