<svg width="46" height="34" viewBox="0 0 46 34" fill="none" xmlns="http://www.w3.org/2000/svg">
<path d="M18.4 24.0714L30.337 17L18.4 9.92857V24.0714ZM44.988 5.615C45.287 6.72286 45.494 8.20786 45.632 10.0936C45.793 11.9793 45.862 13.6057 45.862 15.02L46 17C46 22.1621 45.632 25.9571 44.988 28.385C44.413 30.5064 43.079 31.8736 41.009 32.4629C39.928 32.7693 37.95 32.9814 34.914 33.1229C31.924 33.2879 29.187 33.3586 26.657 33.3586L23 33.5C13.363 33.5 7.36 33.1229 4.991 32.4629C2.921 31.8736 1.587 30.5064 1.012 28.385C0.713 27.2771 0.506 25.7921 0.368 23.9064C0.207 22.0207 0.138 20.3943 0.138 18.98L0 17C0 11.8379 0.368 8.04286 1.012 5.615C1.587 3.49357 2.921 2.12643 4.991 1.53714C6.072 1.23071 8.05 1.01857 11.086 0.877143C14.076 0.712142 16.813 0.641428 19.343 0.641428L23 0.5C32.637 0.5 38.64 0.877143 41.009 1.53714C43.079 2.12643 44.413 3.49357 44.988 5.615Z" fill="white"/>
</svg>
