<svg width="519" height="373" viewBox="0 0 519 373" fill="none" xmlns="http://www.w3.org/2000/svg">
<path d="M71.8565 66.2324L75.8701 65.5099L79.8951 87.8692L75.8815 88.5917L71.8565 66.2324ZM62.3223 67.9487L66.3359 67.2262L70.3609 89.5855L66.3472 90.308L62.3223 67.9487ZM65.8897 77.0068L76.1467 75.1604L76.8333 78.9741L66.5762 80.8205L65.8897 77.0068ZM90.4704 86.2037C89.0659 86.4565 87.7919 86.4053 86.6484 86.0502C85.5031 85.6849 84.5571 85.0455 83.8106 84.132C83.064 83.2186 82.5671 82.075 82.3198 80.7013L80.6423 71.3823C80.395 70.0085 80.4619 68.7634 80.843 67.647C81.2223 66.5203 81.8859 65.5912 82.8338 64.8596C83.7817 64.128 84.9579 63.6358 86.3624 63.383C87.7772 63.1283 89.0563 63.1785 90.1998 63.5336C91.3433 63.8887 92.2893 64.5281 93.0377 65.4518C93.7842 66.3652 94.2811 67.5088 94.5284 68.8826L96.206 78.2016C96.4533 79.5753 96.3863 80.8204 96.0052 81.9368C95.624 83.0533 94.9604 83.9824 94.0144 84.7243C93.0665 85.4558 91.8852 85.949 90.4704 86.2037ZM89.7479 82.19C90.322 82.0867 90.8032 81.8784 91.1913 81.5651C91.5776 81.2415 91.8438 80.839 91.99 80.3576C92.1362 79.8762 92.1558 79.3381 92.0487 78.7435L90.4376 69.7936C90.3324 69.2093 90.1274 68.717 89.8225 68.3167C89.5176 67.9165 89.1286 67.6373 88.6556 67.479C88.1807 67.3104 87.6562 67.2778 87.0821 67.3812C86.508 67.4845 86.0278 67.698 85.6416 68.0215C85.2637 68.333 85.0016 68.7295 84.8555 69.2109C84.7093 69.6923 84.6888 70.2252 84.794 70.8096L86.4051 79.7595C86.5121 80.3541 86.7181 80.8515 87.023 81.2517C87.3279 81.652 87.7126 81.9373 88.1772 82.1076C88.6503 82.2659 89.1738 82.2934 89.7479 82.19ZM101.996 79.9376L107.24 78.9937C107.957 78.8645 108.479 78.5854 108.804 78.1565C109.139 77.7257 109.248 77.1874 109.132 76.5415L108.858 75.0191C108.775 74.5578 108.612 74.1797 108.368 73.8848C108.133 73.5779 107.825 73.3686 107.445 73.2571C107.076 73.1437 106.65 73.1304 106.168 73.2171L100.955 74.1556L100.271 70.3573L105.438 69.4271C106.094 69.309 106.569 69.0383 106.864 68.6149C107.166 68.1793 107.258 67.6284 107.138 66.962L106.922 65.7626C106.817 65.1782 106.551 64.7603 106.125 64.509C105.707 64.2455 105.17 64.1728 104.514 64.2909L99.3466 65.2211L98.6601 61.4074L104.088 60.4302C105.319 60.2087 106.407 60.2297 107.354 60.4932C108.3 60.7464 109.07 61.2322 109.665 61.9507C110.26 62.6691 110.659 63.5922 110.862 64.7199L111.078 65.9194C111.216 66.6883 111.19 67.3968 111 68.0449C110.81 68.693 110.463 69.2635 109.959 69.7565C109.453 70.2391 108.812 70.6191 108.036 70.8963C108.918 70.854 109.703 70.9826 110.392 71.2819C111.079 71.571 111.64 72.0099 112.074 72.5986C112.518 73.1854 112.818 73.9094 112.973 74.7705L113.25 76.3083C113.454 77.4463 113.404 78.4608 113.099 79.3519C112.792 80.2328 112.24 80.9618 111.445 81.539C110.649 82.1162 109.641 82.5146 108.421 82.7342L102.685 83.7667L101.996 79.9376ZM96.6456 61.77L100.659 61.0475L104.684 83.4068L100.671 84.1294L96.6456 61.77ZM118.298 57.8723L120.973 57.3907L131.949 78.4988L127.782 79.249L120.967 65.0282L119.539 80.7327L115.387 81.4802L118.298 57.8723ZM117.924 73.4347L126.858 71.8264L127.545 75.6401L118.61 77.2484L117.924 73.4347ZM132.439 57.2318L136.453 56.5093L140.145 77.0233L136.132 77.7458L132.439 57.2318ZM127.217 56.2668L141.011 53.7837L141.705 57.6435L127.912 60.1266L127.217 56.2668ZM153.304 74.8927C151.9 75.1455 150.626 75.0944 149.482 74.7393C148.337 74.3739 147.391 73.7345 146.644 72.8211C145.898 71.9077 145.401 70.7641 145.154 69.3903L143.476 60.0713C143.229 58.6976 143.296 57.4525 143.677 56.3361C144.056 55.2094 144.72 54.2802 145.668 53.5486C146.616 52.8171 147.792 52.3248 149.196 52.072C150.611 51.8173 151.89 51.8676 153.034 52.2227C154.177 52.5778 155.123 53.2172 155.871 54.1409C156.618 55.0543 157.115 56.1979 157.362 57.5716L159.04 66.8906C159.287 68.2644 159.22 69.5095 158.839 70.6259C158.458 71.7423 157.794 72.6715 156.848 73.4133C155.9 74.1449 154.719 74.638 153.304 74.8927ZM152.582 70.8791C153.156 70.7758 153.637 70.5674 154.025 70.2541C154.411 69.9306 154.678 69.5281 154.824 69.0466C154.97 68.5652 154.99 68.0272 154.883 67.4326L153.271 58.4827C153.166 57.8983 152.961 57.406 152.656 57.0058C152.351 56.6056 151.962 56.3263 151.489 56.168C151.015 55.9995 150.49 55.9669 149.916 56.0702C149.342 56.1736 148.862 56.387 148.475 56.7106C148.097 57.0221 147.835 57.4185 147.689 57.8999C147.543 58.3814 147.523 58.9143 147.628 59.4986L149.239 68.4485C149.346 69.0431 149.552 69.5405 149.857 69.9408C150.162 70.341 150.546 70.6263 151.011 70.7967C151.484 70.955 152.008 70.9824 152.582 70.8791ZM163.094 59.9533L168.645 58.954C169.055 58.8801 169.392 58.7242 169.656 58.4862C169.929 58.236 170.116 57.9219 170.217 57.5438C170.328 57.1639 170.343 56.7432 170.26 56.2819L170.024 54.9748C169.938 54.4929 169.781 54.0925 169.554 53.7735C169.325 53.4442 169.041 53.2149 168.7 53.0858C168.368 52.9445 167.991 52.9117 167.571 52.9874L162.02 53.9867L161.325 50.1269L166.876 49.1275C168.127 48.9024 169.257 48.9477 170.266 49.2634C171.284 49.5671 172.12 50.1257 172.775 50.9393C173.438 51.7408 173.878 52.7464 174.096 53.9561L174.433 55.8322C174.649 57.0317 174.586 58.1174 174.242 59.0895C173.898 60.0616 173.309 60.8716 172.473 61.5196C171.635 62.1572 170.591 62.5887 169.34 62.8138L163.788 63.8131L163.094 59.9533ZM159.479 50.459L163.493 49.7365L167.518 72.0959L163.504 72.8184L159.479 50.459ZM186.428 68.93C185.013 69.1846 183.755 69.1307 182.652 68.7682C181.548 68.3955 180.635 67.7343 179.914 66.7845C179.192 65.8348 178.698 64.6167 178.43 63.1302L176.85 54.3494C176.582 52.8629 176.621 51.5488 176.966 50.4071C177.309 49.2552 177.933 48.3172 178.84 47.593C179.745 46.8585 180.905 46.3639 182.32 46.1093C183.714 45.8583 184.938 45.9238 185.991 46.3057C187.044 46.6877 187.934 47.3955 188.659 48.4291C189.394 49.4506 189.967 50.8133 190.38 52.5171L186.258 53.259C186.051 52.4602 185.793 51.8187 185.483 51.3346C185.184 50.8487 184.832 50.5099 184.427 50.3182C184.02 50.1162 183.561 50.0614 183.048 50.1536C182.505 50.2514 182.06 50.4533 181.712 50.7592C181.363 51.0549 181.127 51.4467 181.003 51.9347C180.877 52.4125 180.872 52.9691 180.986 53.6048L182.567 62.3855C182.681 63.0211 182.881 63.5409 183.165 63.9448C183.45 64.3487 183.808 64.6335 184.24 64.7992C184.67 64.9546 185.157 64.9834 185.7 64.8856C186.213 64.7933 186.625 64.5867 186.938 64.2659C187.261 63.9431 187.478 63.5019 187.589 62.9421C187.708 62.3703 187.72 61.6748 187.626 60.8556L191.747 60.1138C191.944 61.8564 191.883 63.3386 191.563 64.5604C191.242 65.772 190.654 66.7404 189.8 67.4656C188.946 68.1909 187.822 68.679 186.428 68.93ZM195.119 45.9486L199.133 45.226L202.825 65.7401L198.812 66.4626L195.119 45.9486ZM189.897 44.9835L203.691 42.5004L204.385 46.3603L190.592 48.8433L189.897 44.9835ZM211.178 60.2833L216.422 59.3393C217.14 59.2101 217.661 58.9311 217.986 58.5021C218.321 58.0713 218.431 57.533 218.315 56.8871L218.04 55.3647C217.957 54.9034 217.794 54.5253 217.551 54.2305C217.315 53.9235 217.008 53.7143 216.628 53.6028C216.258 53.4894 215.832 53.4761 215.351 53.5628L210.137 54.5012L209.454 50.7029L214.621 49.7728C215.277 49.6547 215.752 49.3839 216.046 48.9605C216.349 48.525 216.44 47.974 216.32 47.3077L216.104 46.1082C215.999 45.5238 215.733 45.106 215.307 44.8546C214.889 44.5911 214.352 44.5185 213.696 44.6366L208.529 45.5667L207.843 41.753L213.271 40.7758C214.501 40.5544 215.59 40.5754 216.537 40.8388C217.482 41.092 218.252 41.5779 218.847 42.2963C219.442 43.0147 219.841 43.9378 220.044 45.0655L220.26 46.265C220.399 47.0339 220.373 47.7424 220.183 48.3905C219.992 49.0387 219.645 49.6092 219.141 50.1021C218.635 50.5848 217.995 50.9647 217.219 51.2419C218.1 51.1997 218.886 51.3282 219.575 51.6276C220.262 51.9167 220.822 52.3556 221.256 52.9442C221.701 53.531 222 54.255 222.155 55.1162L222.432 56.654C222.637 57.7919 222.587 58.8064 222.281 59.6975C221.974 60.5784 221.423 61.3074 220.627 61.8846C219.831 62.4618 218.824 62.8602 217.604 63.0798L211.868 64.1124L211.178 60.2833ZM205.828 42.1156L209.842 41.3931L213.867 63.7525L209.853 64.475L205.828 42.1156ZM232.931 60.5589C231.526 60.8117 230.252 60.7606 229.109 60.4054C227.963 60.0401 227.017 59.4007 226.271 58.4873C225.524 57.5738 225.027 56.4302 224.78 55.0565L223.102 45.7375C222.855 44.3638 222.922 43.1187 223.303 42.0022C223.683 40.8755 224.346 39.9464 225.294 39.2148C226.242 38.4832 227.418 37.991 228.823 37.7382C230.237 37.4835 231.516 37.5337 232.66 37.8888C233.804 38.2439 234.749 38.8833 235.498 39.807C236.244 40.7205 236.741 41.8641 236.989 43.2378L238.666 52.5568C238.913 53.9305 238.847 55.1756 238.465 56.2921C238.084 57.4085 237.421 58.3376 236.475 59.0795C235.527 59.8111 234.345 60.3042 232.931 60.5589ZM232.208 56.5453C232.782 56.4419 233.263 56.2336 233.651 55.9203C234.038 55.5967 234.304 55.1942 234.45 54.7128C234.596 54.2314 234.616 53.6933 234.509 53.0987L232.898 44.1488C232.793 43.5645 232.588 43.0722 232.283 42.672C231.978 42.2717 231.589 41.9925 231.116 41.8342C230.641 41.6657 230.116 41.6331 229.542 41.7364C228.968 41.8398 228.488 42.0532 228.102 42.3768C227.724 42.6882 227.462 43.0847 227.316 43.5661C227.169 44.0475 227.149 44.5804 227.254 45.1648L228.865 54.1147C228.972 54.7093 229.178 55.2067 229.483 55.6069C229.788 56.0072 230.173 56.2925 230.637 56.4629C231.11 56.6211 231.634 56.6486 232.208 56.5453Z" fill="black"/>
<path d="M217.169 165.526C215.742 165.48 214.507 165.164 213.463 164.578C212.419 163.981 211.628 163.158 211.088 162.109C210.549 161.06 210.302 159.838 210.347 158.443L210.653 148.979C210.699 147.584 211.024 146.38 211.63 145.368C212.236 144.345 213.079 143.575 214.159 143.058C215.239 142.54 216.492 142.305 217.918 142.351C219.355 142.397 220.596 142.714 221.64 143.3C222.684 143.886 223.475 144.709 224.014 145.769C224.554 146.818 224.801 148.04 224.755 149.435L224.449 158.899C224.404 160.294 224.079 161.498 223.473 162.51C222.867 163.522 222.024 164.292 220.943 164.82C219.864 165.337 218.605 165.573 217.169 165.526ZM217.3 161.45C217.884 161.469 218.398 161.366 218.843 161.141C219.288 160.905 219.632 160.567 219.876 160.127C220.119 159.686 220.251 159.164 220.27 158.56L220.565 149.471C220.584 148.878 220.486 148.354 220.272 147.899C220.057 147.444 219.735 147.089 219.305 146.836C218.876 146.572 218.37 146.43 217.787 146.411C217.204 146.392 216.69 146.501 216.244 146.737C215.81 146.962 215.471 147.295 215.227 147.735C214.984 148.176 214.852 148.693 214.833 149.286L214.539 158.375C214.52 158.979 214.617 159.508 214.832 159.963C215.046 160.419 215.363 160.778 215.782 161.042C216.211 161.295 216.717 161.431 217.3 161.45ZM229.672 161.772L235.044 161.946C235.502 161.961 235.901 161.87 236.241 161.672C236.591 161.465 236.867 161.171 237.066 160.792C237.267 160.403 237.375 159.948 237.392 159.427L237.421 158.521C237.439 157.98 237.36 157.508 237.186 157.107C237.022 156.695 236.772 156.379 236.435 156.16C236.098 155.93 235.701 155.808 235.243 155.793L229.871 155.619L229.997 151.7L235.666 151.883C236.916 151.923 237.99 152.208 238.89 152.738C239.79 153.267 240.475 154.003 240.945 154.946C241.415 155.878 241.63 156.969 241.59 158.218L241.531 160.014C241.492 161.243 241.207 162.307 240.678 163.207C240.148 164.107 239.412 164.787 238.47 165.246C237.538 165.706 236.453 165.916 235.214 165.876L229.545 165.692L229.672 161.772ZM228.312 142.922L232.388 143.054L231.653 165.76L227.577 165.629L228.312 142.922ZM230.248 142.984L240.727 143.323L240.6 147.243L230.121 146.904L230.248 142.984ZM246.897 162.33L262.03 162.819L261.903 166.739L246.77 166.25L246.897 162.33ZM260.779 143.972L264.699 144.099L263.964 166.806L260.044 166.679L260.779 143.972ZM245.365 143.473L249.285 143.6L248.55 166.307L244.631 166.18L245.365 143.473ZM253.096 143.724L257.015 143.85L256.281 166.557L252.361 166.43L253.096 143.724ZM262.467 162.834L266.527 162.965L266.233 172.054L262.173 171.923L262.467 162.834ZM279.504 144.578L283.58 144.71L282.845 167.417L278.769 167.285L279.504 144.578ZM269.821 144.265L273.897 144.397L273.163 167.104L269.087 166.972L269.821 144.265ZM271.418 153.868L281.834 154.205L281.709 158.078L271.292 157.741L271.418 153.868ZM293.535 167.997C292.109 167.951 290.873 167.635 289.829 167.049C288.785 166.452 287.994 165.629 287.455 164.58C286.915 163.531 286.668 162.309 286.714 160.913L287.02 151.45C287.065 150.055 287.39 148.851 287.996 147.839C288.603 146.816 289.446 146.046 290.526 145.529C291.605 145.011 292.858 144.776 294.285 144.822C295.721 144.868 296.962 145.185 298.006 145.771C299.05 146.357 299.842 147.18 300.381 148.239C300.92 149.289 301.167 150.511 301.122 151.906L300.816 161.37C300.77 162.765 300.445 163.969 299.839 164.981C299.233 165.993 298.39 166.763 297.31 167.291C296.23 167.808 294.972 168.044 293.535 167.997ZM293.667 163.921C294.25 163.94 294.764 163.837 295.209 163.612C295.654 163.376 295.999 163.038 296.242 162.598C296.486 162.157 296.617 161.635 296.637 161.031L296.931 151.942C296.95 151.349 296.852 150.825 296.638 150.37C296.423 149.914 296.101 149.56 295.672 149.306C295.242 149.042 294.736 148.901 294.153 148.882C293.57 148.863 293.056 148.972 292.611 149.207C292.176 149.433 291.837 149.766 291.594 150.206C291.35 150.647 291.219 151.163 291.199 151.757L290.905 160.846C290.886 161.45 290.983 161.979 291.198 162.434C291.412 162.889 291.729 163.249 292.148 163.512C292.577 163.766 293.084 163.902 293.667 163.921ZM310.214 168.537C308.777 168.49 307.557 168.175 306.555 167.59C305.553 166.995 304.798 166.157 304.291 165.078C303.784 163.998 303.555 162.704 303.604 161.194L303.892 152.277C303.941 150.767 304.254 149.49 304.829 148.446C305.405 147.391 306.212 146.604 307.251 146.086C308.289 145.556 309.527 145.315 310.964 145.361C312.379 145.407 313.562 145.727 314.512 146.32C315.463 146.914 316.185 147.792 316.678 148.954C317.183 150.107 317.459 151.559 317.507 153.312L313.321 153.176C313.286 152.352 313.167 151.67 312.965 151.132C312.774 150.595 312.501 150.19 312.145 149.918C311.789 149.635 311.351 149.486 310.831 149.469C310.279 149.451 309.801 149.555 309.398 149.782C308.995 149.998 308.682 150.332 308.459 150.783C308.236 151.224 308.114 151.767 308.093 152.413L307.805 161.33C307.784 161.976 307.87 162.526 308.064 162.98C308.258 163.434 308.549 163.788 308.937 164.04C309.325 164.282 309.795 164.412 310.347 164.43C310.867 164.446 311.314 164.331 311.687 164.082C312.07 163.834 312.374 163.448 312.6 162.924C312.836 162.389 312.993 161.712 313.072 160.891L317.257 161.026C317.086 162.772 316.716 164.208 316.148 165.336C315.581 166.454 314.804 167.278 313.817 167.809C312.831 168.34 311.63 168.583 310.214 168.537ZM323.514 147.878L327.59 148.01L326.916 168.843L322.84 168.711L323.514 147.878ZM318.608 145.843L332.616 146.297L332.49 150.216L318.481 149.763L318.608 145.843ZM336.147 165.217L341.441 165.389C341.899 165.404 342.298 165.312 342.638 165.115C342.989 164.907 343.264 164.614 343.464 164.235C343.664 163.845 343.773 163.39 343.789 162.87L343.819 161.964C343.836 161.422 343.758 160.951 343.583 160.549C343.419 160.137 343.169 159.822 342.832 159.603C342.496 159.373 342.098 159.251 341.64 159.236L336.346 159.064L336.473 155.145L342.064 155.326C343.313 155.366 344.388 155.651 345.288 156.18C346.188 156.71 346.873 157.446 347.343 158.388C347.813 159.321 348.027 160.412 347.987 161.661L347.929 163.457C347.889 164.685 347.605 165.75 347.075 166.65C346.546 167.55 345.81 168.229 344.867 168.689C343.935 169.148 342.85 169.358 341.611 169.318L336.02 169.137L336.147 165.217ZM334.787 146.367L338.863 146.499L338.129 169.206L334.053 169.074L334.787 146.367Z" fill="black"/>
<path d="M326.168 51.5263C324.741 51.4802 323.506 51.164 322.462 50.5778C321.418 49.9813 320.627 49.1584 320.087 48.1091C319.548 47.0599 319.301 45.8377 319.346 44.4426L319.652 34.9788C319.698 33.5837 320.023 32.3801 320.629 31.3679C321.235 30.3453 322.078 29.5753 323.158 29.0579C324.238 28.5404 325.491 28.3048 326.917 28.3509C328.354 28.3974 329.595 28.7137 330.639 29.2999C331.683 29.886 332.474 30.7089 333.013 31.7686C333.553 32.8178 333.8 34.04 333.754 35.4351L333.448 44.8989C333.403 46.294 333.078 47.4977 332.472 48.5098C331.866 49.522 331.023 50.292 329.942 50.8199C328.863 51.3373 327.604 51.5728 326.168 51.5263ZM326.3 47.4503C326.883 47.4692 327.397 47.366 327.842 47.1406C328.287 46.9049 328.631 46.5669 328.875 46.1267C329.118 45.6864 329.25 45.1643 329.27 44.5605L329.564 35.4715C329.583 34.878 329.485 34.3538 329.271 33.8987C329.056 33.4436 328.734 33.0892 328.304 32.8356C327.875 32.5716 327.369 32.4302 326.786 32.4113C326.203 32.3924 325.689 32.5009 325.244 32.7366C324.809 32.9622 324.47 33.2952 324.226 33.7355C323.983 34.1757 323.851 34.6926 323.832 35.286L323.538 44.375C323.519 44.9789 323.616 45.5084 323.831 45.9634C324.045 46.4185 324.362 46.7779 324.781 47.0416C325.21 47.2952 325.716 47.4314 326.3 47.4503ZM340.186 30.8907L344.262 31.0226L343.588 51.8554L339.512 51.7236L340.186 30.8907ZM335.281 28.856L349.289 29.3093L349.162 33.2291L335.154 32.7758L335.281 28.856ZM357.171 39.8509L361.47 29.7034L365.921 29.8474L360.127 42.698L357.171 39.8509ZM357.046 42.2544L360.701 40.4341L366.139 52.5851L361.422 52.4325L357.046 42.2544ZM351.46 29.3795L355.536 29.5114L354.801 52.2182L350.725 52.0864L351.46 29.3795ZM352.934 38.9009L359.961 39.1283L359.834 43.0481L352.807 42.8207L352.934 38.9009ZM370.533 39.9862L376.17 40.1686C376.587 40.1821 376.949 40.1 377.257 39.9224C377.576 39.7347 377.824 39.4665 378.002 39.1179C378.191 38.7697 378.292 38.3613 378.308 37.8928L378.351 36.5654C378.366 36.076 378.297 35.6517 378.142 35.2923C377.987 34.9225 377.756 34.6389 377.45 34.4414C377.155 34.2338 376.793 34.1231 376.366 34.1093L370.729 33.9269L370.856 30.0071L376.493 30.1895C377.763 30.2306 378.859 30.5109 379.78 31.0306C380.712 31.5402 381.413 32.2611 381.883 33.1935C382.364 34.1158 382.585 35.1912 382.545 36.4197L382.483 38.3249C382.444 39.5431 382.155 40.5915 381.616 41.4704C381.076 42.3493 380.33 43.0182 379.378 43.4772C378.425 43.9258 377.314 44.1295 376.044 44.0885L370.406 43.906L370.533 39.9862ZM368.982 29.9464L373.058 30.0783L372.323 52.7852L368.247 52.6533L368.982 29.9464ZM387.458 49.3509L392.049 49.4995C392.507 49.5143 392.906 49.423 393.246 49.2256C393.597 49.018 393.872 48.7247 394.072 48.3456C394.272 47.956 394.38 47.5009 394.397 46.9804L394.427 46.0746C394.444 45.5332 394.365 45.0617 394.191 44.66C394.027 44.2482 393.777 43.9327 393.44 43.7133C393.103 43.4836 392.706 43.3613 392.248 43.3465L387.657 43.1979L387.783 39.2781L392.672 39.4362C393.921 39.4767 394.996 39.7616 395.896 40.2909C396.796 40.8203 397.48 41.5564 397.95 42.4992C398.42 43.4315 398.635 44.5224 398.595 45.7717L398.537 47.5677C398.497 48.7962 398.212 49.8605 397.683 50.7605C397.154 51.6605 396.418 52.3402 395.475 52.7995C394.543 53.2592 393.458 53.469 392.219 53.4289L387.331 53.2708L387.458 49.3509ZM386.098 30.5002L390.174 30.6321L389.439 53.339L385.363 53.2071L386.098 30.5002ZM404.166 53.8155L400.012 53.6811L400.746 30.9742L404.9 31.1086L404.166 53.8155ZM412.305 33.2241L416.381 33.356L415.706 54.1889L411.63 54.057L412.305 33.2241ZM407.399 31.1894L421.407 31.6427L421.28 35.5625L407.272 35.1093L407.399 31.1894ZM429.02 54.8541C427.594 54.808 426.359 54.4918 425.314 53.9057C424.271 53.3091 423.479 52.4862 422.94 51.437C422.401 50.3877 422.154 49.1656 422.199 47.7705L422.505 38.3067C422.55 36.9116 422.876 35.7079 423.482 34.6957C424.088 33.6731 424.931 32.9031 426.011 32.3857C427.09 31.8683 428.344 31.6326 429.77 31.6788C431.207 31.7253 432.447 32.0416 433.491 32.6277C434.535 33.2139 435.327 34.0368 435.866 35.0964C436.405 36.1457 436.652 37.3678 436.607 38.7629L436.301 48.2267C436.256 49.6218 435.93 50.8255 435.324 51.8377C434.718 52.8499 433.875 53.6199 432.795 54.1477C431.715 54.6651 430.457 54.9006 429.02 54.8541ZM429.152 50.7781C429.735 50.797 430.249 50.6938 430.694 50.4685C431.139 50.2328 431.484 49.8948 431.727 49.4545C431.971 49.0142 432.102 48.4922 432.122 47.8883L432.416 38.7993C432.435 38.2059 432.338 37.6816 432.123 37.2265C431.908 36.7714 431.586 36.4171 431.157 36.1635C430.728 35.8994 430.222 35.758 429.639 35.7391C429.055 35.7203 428.541 35.8287 428.096 36.0644C427.661 36.2901 427.322 36.623 427.079 37.0633C426.835 37.5036 426.704 38.0204 426.685 38.6139L426.391 47.7029C426.371 48.3067 426.469 48.8362 426.683 49.2913C426.898 49.7464 427.214 50.1058 427.633 50.3694C428.063 50.623 428.569 50.7593 429.152 50.7781ZM445.699 55.3938C444.262 55.3473 443.042 55.0317 442.04 54.4468C441.038 53.8516 440.283 53.0143 439.776 51.9348C439.269 50.8554 439.04 49.5608 439.089 48.0512L439.378 39.134C439.426 37.6244 439.739 36.3473 440.314 35.3029C440.891 34.2481 441.698 33.4613 442.736 32.9425C443.774 32.4133 445.012 32.1719 446.449 32.2184C447.865 32.2642 449.048 32.5839 449.998 33.1774C450.948 33.771 451.67 34.6489 452.164 35.8114C452.668 36.9637 452.944 38.4161 452.992 40.1685L448.807 40.0331C448.771 39.2086 448.652 38.5273 448.451 37.9893C448.26 37.4516 447.986 37.0467 447.63 36.7746C447.274 36.4921 446.836 36.3425 446.316 36.3256C445.764 36.3078 445.286 36.4122 444.883 36.6388C444.48 36.8551 444.167 37.1889 443.944 37.6402C443.721 38.0812 443.599 38.6244 443.579 39.2699L443.29 48.1871C443.269 48.8326 443.356 49.3826 443.549 49.837C443.743 50.2914 444.034 50.6447 444.422 50.897C444.81 51.1389 445.28 51.2687 445.832 51.2866C446.352 51.3034 446.799 51.1876 447.172 50.9391C447.555 50.6909 447.859 50.3047 448.085 49.7805C448.321 49.2462 448.478 48.5686 448.557 47.7478L452.742 47.8833C452.571 49.6286 452.202 51.0654 451.634 52.1934C451.066 53.311 450.289 54.1353 449.302 54.6662C448.316 55.1971 447.115 55.4396 445.699 55.3938ZM458.999 34.735L463.075 34.8668L462.401 55.6997L458.325 55.5678L458.999 34.735ZM454.093 32.7003L468.102 33.1535L467.975 37.0733L453.967 36.6201L454.093 32.7003ZM471.632 52.0744L476.926 52.2457C477.384 52.2606 477.783 52.1692 478.123 51.9718C478.474 51.7643 478.749 51.471 478.949 51.0918C479.149 50.7022 479.258 50.2472 479.275 49.7266L479.304 48.8208C479.321 48.2795 479.243 47.8079 479.068 47.4062C478.904 46.9945 478.654 46.6789 478.317 46.4596C477.981 46.2298 477.584 46.1075 477.125 46.0927L471.831 45.9214L471.958 42.0016L477.549 42.1825C478.798 42.2229 479.873 42.5078 480.773 43.0372C481.673 43.5666 482.358 44.3027 482.828 45.2454C483.298 46.1778 483.513 47.2686 483.472 48.518L483.414 50.3139C483.374 51.5424 483.09 52.6067 482.56 53.5067C482.031 54.4067 481.295 55.0864 480.353 55.5458C479.421 56.0055 478.335 56.2152 477.096 56.1752L471.505 55.9943L471.632 52.0744ZM470.272 33.2237L474.348 33.3556L473.614 56.0625L469.538 55.9306L470.272 33.2237Z" fill="black"/>
<path d="M47.803 293.468C46.3915 293.678 45.1196 293.589 43.9873 293.199C42.8535 292.8 41.9271 292.132 41.2084 291.197C40.4896 290.261 40.0272 289.103 39.8213 287.723L38.4245 278.358C38.2186 276.977 38.3229 275.735 38.7374 274.63C39.1504 273.515 39.8416 272.607 40.811 271.904C41.7804 271.201 42.9709 270.744 44.3824 270.534C45.8041 270.322 47.0812 270.41 48.2135 270.8C49.3458 271.189 50.2721 271.856 50.9925 272.802C51.7112 273.738 52.1736 274.896 52.3795 276.276L53.7763 285.641C53.9822 287.022 53.8779 288.264 53.4634 289.369C53.0489 290.473 52.3577 291.382 51.3898 292.095C50.4204 292.798 49.2248 293.256 47.803 293.468ZM47.2014 289.434C47.7783 289.348 48.2655 289.154 48.6629 288.853C49.0587 288.541 49.3369 288.147 49.4975 287.67C49.6581 287.193 49.6938 286.656 49.6047 286.058L48.2632 277.064C48.1756 276.477 47.9854 275.978 47.6927 275.569C47.3999 275.16 47.0195 274.869 46.5515 274.697C46.0819 274.514 45.5586 274.466 44.9817 274.552C44.4047 274.638 43.9183 274.837 43.5225 275.149C43.1354 275.449 42.8616 275.837 42.701 276.314C42.5404 276.791 42.5039 277.323 42.5915 277.91L43.933 286.904C44.0222 287.502 44.2131 288.005 44.5058 288.414C44.7986 288.824 45.1746 289.12 45.6339 289.305C46.1019 289.477 46.6244 289.52 47.2014 289.434ZM57.8913 270.652L61.9248 270.05L64.9997 290.666L60.9662 291.267L57.8913 270.652ZM52.7003 269.53L66.5626 267.463L67.1412 271.341L53.2789 273.409L52.7003 269.53ZM73.5127 285.462L78.7826 284.676C79.5037 284.569 80.0332 284.305 80.3709 283.886C80.7189 283.466 80.8445 282.931 80.7477 282.282L80.5195 280.752C80.4504 280.288 80.2985 279.906 80.0639 279.604C79.838 279.29 79.5369 279.071 79.1605 278.948C78.7944 278.824 78.3692 278.798 77.885 278.87L72.646 279.652L72.0767 275.834L77.2693 275.06C77.9286 274.962 78.4117 274.705 78.7185 274.291C79.0341 273.865 79.142 273.317 79.0421 272.647L78.8623 271.442C78.7747 270.854 78.5216 270.429 78.1031 270.165C77.6933 269.889 77.1588 269.8 76.4994 269.898L71.3068 270.673L70.7352 266.84L76.1905 266.026C77.4268 265.842 78.5143 265.896 79.453 266.188C80.3902 266.469 81.1454 266.978 81.7186 267.714C82.2918 268.45 82.6629 269.384 82.8319 270.518L83.0117 271.723C83.127 272.496 83.0798 273.203 82.8701 273.845C82.6605 274.488 82.2964 275.047 81.7778 275.525C81.2577 275.992 80.6058 276.353 79.8222 276.606C80.7045 276.591 81.4855 276.743 82.1652 277.063C82.8432 277.372 83.3904 277.828 83.8066 278.429C84.2331 279.029 84.5109 279.762 84.6399 280.627L84.8705 282.173C85.041 283.316 84.9603 284.329 84.6284 285.21C84.295 286.082 83.7219 286.794 82.9091 287.347C82.0964 287.9 81.077 288.268 79.851 288.451L74.0867 289.31L73.5127 285.462ZM68.7107 267.142L72.7442 266.541L76.0957 289.011L72.0622 289.612L68.7107 267.142ZM85.5865 264.625L89.62 264.023L92.9715 286.494L88.938 287.095L85.5865 264.625ZM89.9621 282.946L100.873 281.318L101.456 285.228L90.5452 286.856L89.9621 282.946ZM88.5883 273.735L98.2625 272.292L98.8457 276.202L89.1714 277.645L88.5883 273.735ZM87.1937 264.385L98.1043 262.758L98.6875 266.668L87.7769 268.295L87.1937 264.385ZM105.15 263.603L109.183 263.001L112.258 283.617L108.225 284.219L105.15 263.603ZM99.9588 262.481L113.821 260.414L114.4 264.293L100.537 266.36L99.9588 262.481ZM125.259 281.915C123.837 282.127 122.58 282.035 121.489 281.64C120.397 281.234 119.504 280.546 118.812 279.575C118.119 278.604 117.662 277.371 117.439 275.877L116.123 267.053C115.9 265.559 115.978 264.247 116.357 263.116C116.734 261.975 117.387 261.056 118.315 260.36C119.242 259.653 120.416 259.193 121.838 258.981C123.239 258.772 124.46 258.874 125.501 259.288C126.543 259.701 127.41 260.435 128.105 261.49C128.808 262.533 129.34 263.913 129.702 265.628L125.56 266.246C125.377 265.441 125.138 264.792 124.843 264.299C124.559 263.804 124.217 263.455 123.818 263.251C123.417 263.037 122.959 262.969 122.444 263.045C121.898 263.127 121.447 263.315 121.091 263.611C120.733 263.896 120.485 264.28 120.347 264.764C120.207 265.238 120.184 265.794 120.28 266.433L121.596 275.257C121.691 275.896 121.875 276.422 122.147 276.834C122.419 277.246 122.769 277.542 123.195 277.72C123.621 277.888 124.106 277.932 124.652 277.85C125.168 277.774 125.586 277.58 125.908 277.268C126.241 276.955 126.471 276.521 126.599 275.965C126.735 275.397 126.768 274.702 126.699 273.88L130.84 273.262C130.985 275.01 130.879 276.49 130.523 277.702C130.165 278.903 129.548 279.853 128.673 280.553C127.798 281.252 126.66 281.706 125.259 281.915ZM134.636 259.205L138.67 258.603L141.744 279.219L137.711 279.821L134.636 259.205ZM129.445 258.083L143.307 256.016L143.886 259.895L130.024 261.962L129.445 258.083ZM150.258 274.016L155.527 273.23C156.249 273.122 156.778 272.859 157.116 272.44C157.464 272.019 157.589 271.484 157.493 270.835L157.264 269.305C157.195 268.842 157.043 268.459 156.809 268.157C156.583 267.843 156.282 267.625 155.905 267.502C155.539 267.377 155.114 267.351 154.63 267.423L149.391 268.205L148.821 264.388L154.014 263.613C154.673 263.515 155.157 263.259 155.463 262.844C155.779 262.418 155.887 261.87 155.787 261.2L155.607 259.995C155.519 259.408 155.266 258.982 154.848 258.718C154.438 258.442 153.904 258.353 153.244 258.452L148.052 259.226L147.48 255.393L152.935 254.58C154.172 254.395 155.259 254.449 156.198 254.741C157.135 255.022 157.89 255.531 158.463 256.267C159.037 257.003 159.408 257.938 159.577 259.071L159.757 260.276C159.872 261.049 159.825 261.757 159.615 262.399C159.405 263.041 159.041 263.601 158.523 264.078C158.003 264.545 157.351 264.906 156.567 265.16C157.449 265.144 158.23 265.296 158.91 265.616C159.588 265.926 160.135 266.381 160.551 266.983C160.978 267.583 161.256 268.315 161.385 269.181L161.615 270.726C161.786 271.87 161.705 272.882 161.373 273.764C161.04 274.635 160.467 275.347 159.654 275.9C158.841 276.453 157.822 276.821 156.596 277.004L150.831 277.864L150.258 274.016ZM145.455 255.695L149.489 255.094L152.84 277.564L148.807 278.166L145.455 255.695ZM162.331 253.178L166.365 252.577L169.716 275.047L165.683 275.649L162.331 253.178ZM166.707 271.499L177.617 269.872L178.201 273.781L167.29 275.409L166.707 271.499ZM165.333 262.288L175.007 260.845L175.59 264.755L165.916 266.198L165.333 262.288ZM163.939 252.939L174.849 251.311L175.432 255.221L164.522 256.849L163.939 252.939ZM187.367 249.444L191.4 248.843L194.752 271.313L190.718 271.914L187.367 249.444ZM177.785 250.873L181.819 250.272L185.17 272.742L181.137 273.344L177.785 250.873ZM181.079 260.035L191.387 258.497L191.959 262.33L181.651 263.867L181.079 260.035ZM204.83 246.84L208.863 246.238L212.215 268.708L208.181 269.31L204.83 246.84ZM195.248 248.269L199.282 247.667L202.633 270.137L198.6 270.739L195.248 248.269ZM198.542 257.43L208.85 255.892L209.422 259.725L199.114 261.263L198.542 257.43ZM222.836 267.361C221.424 267.572 220.152 267.482 219.02 267.093C217.886 266.693 216.96 266.026 216.241 265.09C215.522 264.155 215.06 262.997 214.854 261.616L213.457 252.251C213.251 250.871 213.355 249.628 213.77 248.524C214.183 247.409 214.874 246.5 215.844 245.797C216.813 245.094 218.003 244.638 219.415 244.427C220.837 244.215 222.114 244.304 223.246 244.693C224.378 245.082 225.305 245.75 226.025 246.696C226.744 247.631 227.206 248.789 227.412 250.17L228.809 259.535C229.015 260.915 228.91 262.158 228.496 263.262C228.081 264.367 227.39 265.276 226.422 265.989C225.453 266.692 224.257 267.149 222.836 267.361ZM222.234 263.328C222.811 263.241 223.298 263.048 223.695 262.746C224.091 262.434 224.369 262.04 224.53 261.563C224.691 261.086 224.726 260.549 224.637 259.952L223.296 250.957C223.208 250.37 223.018 249.872 222.725 249.463C222.432 249.054 222.052 248.763 221.584 248.59C221.114 248.408 220.591 248.359 220.014 248.445C219.437 248.531 218.951 248.73 218.555 249.042C218.168 249.342 217.894 249.73 217.734 250.207C217.573 250.684 217.536 251.216 217.624 251.803L218.966 260.798C219.055 261.395 219.246 261.899 219.538 262.308C219.831 262.717 220.207 263.014 220.666 263.198C221.134 263.37 221.657 263.414 222.234 263.328ZM239.34 264.899C237.919 265.111 236.662 265.02 235.571 264.624C234.478 264.218 233.586 263.53 232.893 262.559C232.201 261.588 231.743 260.356 231.52 258.862L230.204 250.038C229.982 248.544 230.06 247.231 230.439 246.101C230.816 244.959 231.469 244.041 232.397 243.344C233.324 242.637 234.498 242.178 235.92 241.965C237.321 241.757 238.542 241.859 239.583 242.272C240.624 242.686 241.492 243.42 242.187 244.475C242.89 245.518 243.422 246.897 243.783 248.613L239.642 249.23C239.458 248.426 239.219 247.777 238.925 247.284C238.64 246.789 238.299 246.44 237.9 246.236C237.499 246.022 237.041 245.953 236.526 246.03C235.98 246.111 235.529 246.3 235.173 246.595C234.815 246.88 234.567 247.265 234.429 247.749C234.289 248.223 234.266 248.779 234.361 249.418L235.678 258.242C235.773 258.881 235.957 259.406 236.229 259.818C236.501 260.231 236.85 260.526 237.277 260.705C237.703 260.873 238.188 260.916 238.734 260.835C239.249 260.758 239.668 260.564 239.99 260.253C240.323 259.94 240.553 259.505 240.68 258.949C240.817 258.381 240.85 257.686 240.78 256.865L244.922 256.247C245.067 257.995 244.961 259.474 244.605 260.686C244.247 261.887 243.63 262.838 242.755 263.537C241.88 264.236 240.742 264.69 239.34 264.899ZM248.718 242.189L252.751 241.588L255.826 262.203L251.793 262.805L248.718 242.189ZM243.527 241.068L257.389 239L257.968 242.879L244.105 244.947L243.527 241.068ZM264.257 256.981L269.496 256.199C269.95 256.132 270.326 255.97 270.625 255.715C270.932 255.448 271.151 255.11 271.279 254.701C271.406 254.282 271.431 253.815 271.355 253.3L271.221 252.403C271.141 251.868 270.979 251.418 270.735 251.054C270.5 250.678 270.197 250.413 269.827 250.257C269.454 250.092 269.041 250.043 268.588 250.11L263.349 250.892L262.771 247.013L268.303 246.188C269.54 246.003 270.648 246.091 271.628 246.45C272.609 246.809 273.415 247.41 274.046 248.254C274.676 249.087 275.083 250.121 275.267 251.357L275.532 253.135C275.713 254.35 275.624 255.448 275.265 256.429C274.906 257.409 274.304 258.21 273.459 258.831C272.625 259.45 271.595 259.852 270.369 260.034L264.836 260.86L264.257 256.981ZM259.537 238.68L263.571 238.078L266.922 260.548L262.889 261.15L259.537 238.68Z" fill="black"/>
<path d="M260.783 315.678L264.859 315.81L264.125 338.517L260.049 338.385L260.783 315.678ZM251.101 315.365L255.177 315.497L254.442 338.204L250.366 338.072L251.101 315.365ZM252.697 324.968L263.114 325.305L262.989 329.178L252.572 328.841L252.697 324.968ZM268.748 315.936L272.824 316.068L272.089 338.775L268.013 338.643L268.748 315.936ZM269.765 334.744L280.791 335.101L280.663 339.052L269.637 338.695L269.765 334.744ZM270.066 325.437L279.843 325.753L279.715 329.704L269.939 329.388L270.066 325.437ZM270.372 315.988L281.398 316.345L281.27 320.296L270.244 319.939L270.372 315.988ZM289.963 339.587C288.443 339.538 287.18 339.263 286.175 338.761C285.181 338.25 284.428 337.506 283.918 336.531C283.408 335.545 283.14 334.312 283.115 332.831L287.238 332.965C287.262 333.851 287.501 334.516 287.955 334.958C288.421 335.39 289.106 335.62 290.012 335.649C290.866 335.677 291.529 335.474 292.002 335.042C292.485 334.599 292.74 333.961 292.767 333.128L292.806 331.91C292.83 331.171 292.661 330.597 292.299 330.189C291.938 329.771 291.413 329.551 290.726 329.529L287.493 329.424L287.621 325.489L290.853 325.593C291.416 325.611 291.858 325.469 292.18 325.167C292.503 324.855 292.674 324.412 292.692 323.839L292.734 322.543C292.756 321.866 292.575 321.339 292.191 320.962C291.818 320.575 291.278 320.37 290.57 320.347C289.799 320.322 289.194 320.521 288.753 320.945C288.322 321.369 288.051 322.032 287.938 322.935L283.815 322.802C283.967 321.316 284.32 320.093 284.872 319.131C285.424 318.169 286.192 317.464 287.176 317.017C288.16 316.569 289.359 316.368 290.775 316.414C292.118 316.458 293.262 316.719 294.205 317.197C295.159 317.666 295.872 318.335 296.344 319.205C296.816 320.075 297.033 321.108 296.994 322.306L296.953 323.571C296.925 324.445 296.675 325.234 296.204 325.938C295.744 326.643 295.111 327.206 294.305 327.628C295.212 327.949 295.902 328.524 296.375 329.352C296.859 330.181 297.082 331.193 297.043 332.391L297.003 333.624C296.961 334.926 296.654 336.031 296.083 336.94C295.512 337.849 294.708 338.532 293.672 338.988C292.636 339.434 291.4 339.634 289.963 339.587ZM305.354 317.12L308.071 317.208L314.395 340.143L310.163 340.006L306.469 324.676L301.792 339.736L297.576 339.599L305.354 317.12ZM301.737 332.261L310.811 332.555L310.685 336.428L301.612 336.134L301.737 332.261ZM318.816 336.394L324.141 336.566C324.87 336.59 325.438 336.426 325.845 336.074C326.263 335.723 326.483 335.219 326.504 334.563L326.554 333.017C326.569 332.549 326.488 332.145 326.312 331.806C326.146 331.456 325.889 331.188 325.541 330.999C325.203 330.811 324.789 330.709 324.3 330.693L319.006 330.522L319.13 326.665L324.378 326.834C325.044 326.856 325.565 326.69 325.942 326.338C326.328 325.975 326.533 325.455 326.555 324.779L326.594 323.561C326.613 322.967 326.441 322.503 326.076 322.168C325.723 321.823 325.213 321.64 324.547 321.618L319.299 321.448L319.425 317.576L324.937 317.754C326.187 317.794 327.247 318.042 328.118 318.498C328.99 318.943 329.641 319.579 330.073 320.406C330.505 321.233 330.702 322.219 330.665 323.364L330.626 324.582C330.6 325.363 330.427 326.05 330.106 326.644C329.784 327.239 329.326 327.724 328.73 328.101C328.134 328.467 327.428 328.705 326.612 328.814C327.483 328.957 328.224 329.246 328.835 329.683C329.446 330.109 329.903 330.656 330.204 331.322C330.516 331.989 330.658 332.759 330.63 333.634L330.579 335.195C330.542 336.351 330.281 337.333 329.796 338.14C329.312 338.938 328.62 339.535 327.722 339.934C326.823 340.332 325.754 340.511 324.515 340.471L318.69 340.282L318.816 336.394ZM317.379 317.509L321.455 317.641L320.72 340.348L316.644 340.216L317.379 317.509ZM344.333 341.096L344.877 324.277L345.222 324.726L337.805 340.885L333.698 340.752L334.432 318.061L338.243 318.184L337.693 335.191L337.332 334.742L344.786 318.396L348.878 318.528L348.144 341.22L344.333 341.096ZM358.615 341.809C357.178 341.762 355.958 341.447 354.956 340.862C353.954 340.267 353.199 339.429 352.692 338.35C352.185 337.27 351.956 335.976 352.005 334.466L352.293 325.549C352.342 324.039 352.654 322.762 353.23 321.718C353.806 320.663 354.613 319.876 355.652 319.357C356.69 318.828 357.928 318.587 359.364 318.633C360.78 318.679 361.963 318.999 362.913 319.592C363.863 320.186 364.585 321.064 365.079 322.226C365.584 323.379 365.86 324.831 365.908 326.583L361.722 326.448C361.686 325.623 361.568 324.942 361.366 324.404C361.175 323.866 360.902 323.462 360.546 323.19C360.19 322.907 359.752 322.757 359.231 322.741C358.68 322.723 358.202 322.827 357.799 323.054C357.396 323.27 357.083 323.604 356.86 324.055C356.637 324.496 356.515 325.039 356.494 325.685L356.206 334.602C356.185 335.247 356.271 335.797 356.465 336.252C356.659 336.706 356.95 337.06 357.337 337.312C357.726 337.554 358.196 337.684 358.747 337.701C359.268 337.718 359.715 337.602 360.087 337.354C360.471 337.106 360.775 336.72 361 336.195C361.237 335.661 361.394 334.984 361.473 334.163L365.658 334.298C365.487 336.044 365.117 337.48 364.549 338.608C363.982 339.726 363.205 340.55 362.218 341.081C361.232 341.612 360.03 341.854 358.615 341.809ZM378.94 342.216L379.484 325.397L379.829 325.846L372.412 342.005L368.305 341.872L369.039 319.181L372.85 319.304L372.299 336.311L371.939 335.861L379.393 319.516L383.485 319.648L382.751 342.339L378.94 342.216ZM400.179 320.188L404.817 320.338L404.083 343.045L400.413 342.927L400.954 326.185L401.109 327.191L396.896 339.53L394.038 339.437L390.605 327.164L390.882 325.859L390.34 342.601L386.639 342.481L387.373 319.774L392.043 319.925L395.64 333.877L400.179 320.188ZM414.773 343.626C413.346 343.58 412.111 343.263 411.067 342.677C410.023 342.081 409.232 341.258 408.692 340.209C408.153 339.159 407.906 337.937 407.951 336.542L408.257 327.078C408.303 325.683 408.628 324.479 409.234 323.467C409.84 322.445 410.683 321.675 411.763 321.157C412.843 320.64 414.096 320.404 415.522 320.45C416.959 320.497 418.2 320.813 419.244 321.399C420.288 321.985 421.079 322.808 421.618 323.868C422.158 324.917 422.405 326.139 422.359 327.534L422.053 336.998C422.008 338.393 421.683 339.597 421.077 340.609C420.471 341.621 419.628 342.391 418.547 342.919C417.468 343.437 416.209 343.672 414.773 343.626ZM414.905 339.55C415.488 339.569 416.002 339.465 416.447 339.24C416.892 339.004 417.236 338.666 417.48 338.226C417.723 337.786 417.855 337.264 417.875 336.66L418.169 327.571C418.188 326.977 418.09 326.453 417.876 325.998C417.661 325.543 417.339 325.189 416.909 324.935C416.48 324.671 415.974 324.53 415.391 324.511C414.808 324.492 414.294 324.6 413.849 324.836C413.414 325.062 413.075 325.395 412.831 325.835C412.588 326.275 412.456 326.792 412.437 327.385L412.143 336.474C412.124 337.078 412.221 337.608 412.436 338.063C412.65 338.518 412.967 338.877 413.386 339.141C413.815 339.395 414.322 339.531 414.905 339.55ZM431.451 344.165C430.015 344.119 428.795 343.803 427.793 343.218C426.791 342.623 426.036 341.786 425.529 340.706C425.022 339.627 424.793 338.332 424.842 336.823L425.13 327.906C425.179 326.396 425.491 325.119 426.067 324.074C426.643 323.02 427.45 322.233 428.488 321.714C429.527 321.185 430.765 320.943 432.201 320.99C433.617 321.036 434.8 321.355 435.75 321.949C436.7 322.543 437.422 323.42 437.916 324.583C438.421 325.735 438.697 327.188 438.744 328.94L434.559 328.805C434.523 327.98 434.405 327.299 434.203 326.761C434.012 326.223 433.739 325.818 433.383 325.546C433.027 325.264 432.589 325.114 432.068 325.097C431.517 325.079 431.039 325.184 430.636 325.41C430.233 325.627 429.92 325.96 429.697 326.412C429.474 326.853 429.352 327.396 429.331 328.041L429.043 336.959C429.022 337.604 429.108 338.154 429.302 338.609C429.496 339.063 429.786 339.416 430.174 339.669C430.563 339.91 431.033 340.04 431.584 340.058C432.105 340.075 432.552 339.959 432.924 339.711C433.308 339.462 433.612 339.076 433.837 338.552C434.073 338.018 434.231 337.34 434.31 336.519L438.495 336.655C438.324 338.4 437.954 339.837 437.386 340.965C436.818 342.083 436.041 342.907 435.055 343.438C434.069 343.969 432.867 344.211 431.451 344.165ZM444.751 323.507L448.827 323.638L448.153 344.471L444.077 344.339L444.751 323.507ZM439.846 321.472L453.854 321.925L453.727 325.845L439.719 325.392L439.846 321.472ZM457.385 340.846L462.679 341.017C463.137 341.032 463.536 340.941 463.876 340.743C464.227 340.536 464.502 340.242 464.702 339.863C464.902 339.474 465.01 339.019 465.027 338.498L465.057 337.592C465.074 337.051 464.996 336.579 464.821 336.178C464.657 335.766 464.407 335.45 464.07 335.231C463.733 335.001 463.336 334.879 462.878 334.864L457.584 334.693L457.711 330.773L463.302 330.954C464.551 330.994 465.626 331.279 466.526 331.809C467.426 332.338 468.111 333.074 468.58 334.017C469.05 334.949 469.265 336.04 469.225 337.29L469.167 339.085C469.127 340.314 468.842 341.378 468.313 342.278C467.784 343.178 467.048 343.858 466.105 344.317C465.173 344.777 464.088 344.987 462.849 344.947L457.258 344.766L457.385 340.846ZM456.025 321.995L460.101 322.127L459.366 344.834L455.29 344.702L456.025 321.995Z" fill="black"/>
</svg>
