<svg width="68" height="74" viewBox="0 0 68 74" fill="none" xmlns="http://www.w3.org/2000/svg">
<g id="Group">
<g id="Group_2">
<g id="Vector">
<mask id="path-1-inside-1_949_5443" fill="white">
<path d="M11.4055 11.48L34 34.2222L68 0V21.7778L34 56L0 21.7778V0"/>
</mask>
<path d="M11.4181 7.60901C9.28018 7.60205 7.54144 9.3295 7.53447 11.4674L7.42099 46.3063C7.41402 48.4442 9.14148 50.1829 11.2794 50.1899C13.4173 50.1968 15.156 48.4694 15.163 46.3315L15.2638 15.3636L46.2317 15.4645C48.3696 15.4714 50.1084 13.744 50.1153 11.6061C50.1223 9.46821 48.3948 7.72946 46.257 7.7225L11.4181 7.60901ZM34 34.2222L31.2539 36.9505L34 39.7146L36.7461 36.9505L34 34.2222ZM68 0L71.871 0V-9.38866L65.2539 -2.72829L68 0ZM68 21.7778L70.7461 24.5061L71.871 23.3738V21.7778H68ZM34 56L31.2539 58.7283L34 61.4924L36.7461 58.7283L34 56ZM0 21.7778H-3.87101V23.3738L-2.74612 24.5061L0 21.7778ZM3.87101 0V-3.87101L-3.87101 -3.87101V0L3.87101 0ZM8.65934 14.2083L31.2539 36.9505L36.7461 31.4939L14.1516 8.75171L8.65934 14.2083ZM36.7461 36.9505L70.7461 2.72829L65.2539 -2.72829L31.2539 31.4939L36.7461 36.9505ZM64.129 0V21.7778H71.871V0L64.129 0ZM65.2539 19.0495L31.2539 53.2717L36.7461 58.7283L70.7461 24.5061L65.2539 19.0495ZM36.7461 53.2717L2.74612 19.0495L-2.74612 24.5061L31.2539 58.7283L36.7461 53.2717ZM3.87101 21.7778V0L-3.87101 0V21.7778H3.87101Z" fill="#D2D1D0" mask="url(#path-1-inside-1_949_5443)"/>
</g>
<g id="Vector_2">
<mask id="path-3-inside-2_949_5443" fill="white">
<path d="M68 40L34 74L0 40"/>
</mask>
<path d="M70.7372 42.7372L73.4744 40L68 34.5256L65.2628 37.2628L70.7372 42.7372ZM34 74L31.2628 76.7372L34 79.4744L36.7372 76.7372L34 74ZM0 36.129C-2.1379 36.129 -3.87101 37.8621 -3.87101 40V74.8391C-3.87101 76.977 -2.1379 78.7101 0 78.7101C2.13789 78.7101 3.87101 76.977 3.87101 74.8391V43.871H34.8391C36.977 43.871 38.7101 42.1379 38.7101 40C38.7101 37.8621 36.977 36.129 34.8391 36.129H0ZM65.2628 37.2628L31.2628 71.2628L36.7372 76.7372L70.7372 42.7372L65.2628 37.2628ZM36.7372 71.2628L2.73721 37.2628L-2.73722 42.7372L31.2628 76.7372L36.7372 71.2628Z" fill="#1E5B9C" mask="url(#path-3-inside-2_949_5443)"/>
</g>
</g>
</g>
</svg>
